<?xml version="1.0" encoding="UTF-8" standalone="no"?>
<!-- Created with Inkscape (http://www.inkscape.org/) -->

<svg
   xmlns:dc="http://purl.org/dc/elements/1.1/"
   xmlns:cc="http://creativecommons.org/ns#"
   xmlns:rdf="http://www.w3.org/1999/02/22-rdf-syntax-ns#"
   xmlns:svg="http://www.w3.org/2000/svg"
   xmlns="http://www.w3.org/2000/svg"
   xmlns:sodipodi="http://sodipodi.sourceforge.net/DTD/sodipodi-0.dtd"
   xmlns:inkscape="http://www.inkscape.org/namespaces/inkscape"
   width="600"
   height="900"
   viewBox="0 0 158.75 238.12501"
   version="1.1"
   id="svg8"
   inkscape:version="0.92.2 (5c3e80d, 2017-08-06)"
   sodipodi:docname="pintrest.svg">
  <defs
     id="defs2" />
  <sodipodi:namedview
     id="base"
     pagecolor="#ffffff"
     bordercolor="#666666"
     borderopacity="1.0"
     inkscape:pageopacity="0.0"
     inkscape:pageshadow="2"
     inkscape:zoom="1.4"
     inkscape:cx="368.84626"
     inkscape:cy="653.54487"
     inkscape:document-units="mm"
     inkscape:current-layer="layer1"
     showgrid="false"
     units="px"
     inkscape:window-width="1920"
     inkscape:window-height="1001"
     inkscape:window-x="1591"
     inkscape:window-y="-9"
     inkscape:window-maximized="1" />
  <metadata
     id="metadata5">
    <rdf:RDF>
      <cc:Work
         rdf:about="">
        <dc:format>image/svg+xml</dc:format>
        <dc:type
           rdf:resource="http://purl.org/dc/dcmitype/StillImage" />
        <dc:title></dc:title>
      </cc:Work>
    </rdf:RDF>
  </metadata>
  <g
     inkscape:groupmode="layer"
     id="layer4"
     inkscape:label="Logo-lower" />
  <g
     inkscape:label="Logo"
     inkscape:groupmode="layer"
     id="layer1"
     transform="translate(0,-58.874983)">
    <g
       id="g954"
       transform="translate(9.3549149,86.934524)">
      <path
         inkscape:connector-curvature="0"
         d="m 57.278335,72.085636 5.680421,-0.0353"
         style="fill:none;stroke:#000000;stroke-width:0.39686495"
         id="path827" />
      <path
         inkscape:connector-curvature="0"
         d="m 68.111434,72.085636 5.680421,-0.0353"
         style="fill:none;stroke:#000000;stroke-width:0.39686495"
         id="path829" />
      <path
         inkscape:connector-curvature="0"
         d="m 78.984921,72.085636 5.716172,-0.0353"
         style="fill:none;stroke:#000000;stroke-width:0.39686495"
         id="path831" />
      <g
         transform="matrix(0.21197989,0,0,0.21197989,51.515193,110.42481)"
         style="fill:#969696;fill-rule:evenodd;stroke-width:0.66849834;stroke-linecap:square;stroke-linejoin:bevel"
         id="g817">
        <path
           inkscape:connector-curvature="0"
           d="m 11.135,10.441 c 0.1525,0 0.271,0.1017 0.271,0.2712 v 1.3051 c 0,0.1525 -0.1186,0.2712 -0.2712,0.2712 H 7.0502 v 11.424 c 0,0.1864 -0.10169,0.2879 -0.27119,0.2879 H 5.79596 c -0.44068,0 -0.66102,-0.2879 -0.66102,-0.6778 V 12.2886 H 1.05034 C 0.8978,12.2886 0.7622,12.187 0.7622,12.0175 v -1.288 c 0,-0.1697 0.11864,-0.2884 0.28814,-0.2884 h 10.085 l -4e-4,-10e-5 m 13.849,13.237 c 0.1186,0.1695 0.0341,0.322 -0.1861,0.322 h -1.2544 c -0.3729,0 -0.6781,-0.3388 -0.8136,-0.5422 l -2.6441,-3.8983 h -3.3559 v 4.1525 c 0,0.1864 -0.1016,0.288 -0.2711,0.288 h -1.3729 c -0.1695,0 -0.2712,-0.1016 -0.2712,-0.288 v -13 c 0,-0.1525 0.1017,-0.2712 0.2712,-0.2712 h 5.2203 c 2.9659,0 4.5592,2.5254 4.5592,4.5592 0,1.6949 -1.0168,3.5934 -2.9322,4.2881 l 3.0508,4.3899 m -8.2536,-11.39 v 5.4237 h 3.3559 c 1.9153,0 2.8644,-1.3729 2.8644,-2.7458 0,-1.3559 -0.9661,-2.678 -2.8644,-2.678 h -3.3559 v 10e-5 m 24.798,11.407 c 0.0846,0.1697 0.0339,0.3051 -0.1526,0.3051 h -1.5424 c -0.1525,0 -0.2371,-0.0676 -0.2879,-0.1864 l -1.0508,-2.2034 h -7.3051 l -1.0339,2.2034 c -0.0678,0.1188 -0.1526,0.1864 -0.2882,0.1864 h -1.5593 c -0.1695,0 -0.2542,-0.1354 -0.1864,-0.3051 l 6.3898,-13.186 c 0.0508,-0.1186 0.1356,-0.1525 0.2203,-0.1525 h 0.2202 c 0.0847,0 0.1525,0.0339 0.2203,0.1525 l 6.356,13.186 m -9.5087,-3.8303 h 5.6441 l -2.8136,-6 -2.8305,6 m 24.527,1.7118 c 0.1356,0.1186 0.1358,0.2714 -0.0167,0.4237 -1.2542,1.3222 -2.9661,2.1186 -5,2.1186 -3.7627,0 -6.8814,-3.0168 -6.8814,-6.8642 0,-3.8474 3.1186,-6.9322 6.8814,-6.9322 2,0 3.7625,0.7966 5.0337,2.1356 0.1525,0.1524 0.1525,0.305 0.0169,0.4066 l -1.0847,0.8812 c -0.1356,0.1188 -0.2542,0.1188 -0.3898,-0.0168 -0.7288,-0.7627 -1.9831,-1.5593 -3.5085,-1.5593 -3.0508,0 -5.0339,2.5424 -5.0339,5.0847 0,2.5593 1.9831,5.0169 5.0339,5.0169 1.5085,0 2.7288,-0.7627 3.4576,-1.5085 0.1356,-0.1525 0.2712,-0.1693 0.4068,-0.0677 l 1.0847,0.8814 m 13.883,1.7967 c 0.2544,0.2711 0.1183,0.6274 -0.2546,0.6274 h -1.4236 c -0.1526,0 -0.2373,-0.0337 -0.356,-0.1524 l -6.339,-6.678 v 6.5593 c 0,0.1524 -0.1186,0.2711 -0.2712,0.2711 h -1.3729 c -0.1525,0 -0.2712,-0.1187 -0.2712,-0.2711 v -12.034 c -0.0169,-0.3898 -0.0506,-0.6271 -0.1015,-0.9152 -0.0339,-0.1865 0.017,-0.339 0.1865,-0.339 h 1.1697 c 0.4067,0 0.661,0.2373 0.661,0.6102 v 5.661 l 5.5932,-6.1186 c 0.0847,-0.1019 0.1864,-0.1527 0.339,-0.1527 h 1.4576 c 0.3389,0 0.4576,0.3559 0.2542,0.5761 l -5.4407,5.9322 6.1695,6.4237 m 26.072,-12.932 c 0.1525,0 0.271,0.1017 0.271,0.2712 v 1.3051 c 0,0.1525 -0.1186,0.2712 -0.2712,0.2712 h -4.0846 v 11.424 c 0,0.1864 -0.1017,0.2879 -0.2712,0.2879 h -0.983 c -0.4407,0 -0.661,-0.2879 -0.661,-0.6778 v -11.034 h -4.0846 c -0.1526,0 -0.2882,-0.1016 -0.2882,-0.2711 v -1.288 c 0,-0.1697 0.1187,-0.2884 0.2882,-0.2884 h 10.085 l -4e-4,-10e-5 m 10.629,13.678 c 3.814,0 6.915,-3.0337 6.915,-6.9151 0,-3.8305 -3.101,-6.8814 -6.915,-6.8814 -3.847,0 -6.949,3.0508 -6.949,6.8814 0,3.8814 3.102,6.9151 6.949,6.9151 m 0,-1.8472 c -2.746,0 -5.034,-2.2881 -5.034,-5.0678 0,-2.7456 2.288,-5.0337 5.034,-5.0337 2.729,0 5.017,2.2881 5.017,5.0337 0,2.7797 -2.288,5.0678 -5.017,5.0678 m 22.035,-4.3051 c 0.204,0 0.289,0.102 0.289,0.2885 v 3.5085 c 0,0.0847 -0.051,0.1695 -0.119,0.2371 -1.254,1.3222 -2.966,2.1186 -5,2.1186 -3.763,0 -6.881,-3.0168 -6.881,-6.8642 0,-3.8474 3.118,-6.9322 6.881,-6.9322 2,0 3.763,0.7966 5.034,2.1356 0.152,0.1524 0.152,0.3049 0.017,0.4066 l -1.085,0.8812 c -0.136,0.1188 -0.254,0.1188 -0.39,-0.0168 -0.729,-0.7627 -1.983,-1.5593 -3.508,-1.5593 -3.051,0 -5.034,2.5424 -5.034,5.0847 0,2.5593 1.983,5.0169 5.034,5.0169 1.322,0 2.406,-0.5763 3.152,-1.2203 v -1.2542 h -3.102 c -0.186,0 -0.288,-0.0847 -0.288,-0.2712 V 18.272 c 0,-0.2034 0.085,-0.3051 0.271,-0.3051 h 4.729 m 12.647,-5.6783 h -6.729 v 4.1356 h 3.898 c 0.17,0 0.288,0.1186 0.288,0.2881 v 1.2712 c 0,0.1865 -0.118,0.2882 -0.288,0.2882 h -3.898 l 0.017,3.8814 h 6.712 c 0.169,0 0.288,0.1186 0.288,0.2881 v 1.2712 c 0,0.1695 -0.119,0.2882 -0.288,0.2882 h -8.356 c -0.17,0 -0.289,-0.1187 -0.289,-0.2882 v -13 c 0,-0.1525 0.102,-0.2712 0.272,-0.2712 h 8.373 c 0.169,0 0.288,0.1187 0.288,0.2712 v 1.3051 c 0,0.1695 -0.119,0.2712 -0.288,0.2712 v -10e-5 m 14.102,-1.847 c 0.153,0 0.271,0.1017 0.271,0.2712 v 1.3051 c 0,0.1525 -0.118,0.2712 -0.271,0.2712 h -4.084 v 11.424 c 0,0.1864 -0.102,0.2879 -0.272,0.2879 h -0.983 c -0.44,0 -0.661,-0.2879 -0.661,-0.6778 v -11.034 h -4.084 c -0.153,0 -0.288,-0.1016 -0.288,-0.2711 v -1.288 c 0,-0.1697 0.118,-0.2884 0.288,-0.2884 h 10.085 l -0.001,-1e-4 m 14.935,0 c 0.169,0 0.288,0.1188 0.288,0.2714 v 13 c 0,0.1864 -0.102,0.2879 -0.254,0.2879 h -1 c -0.424,0 -0.661,-0.2879 -0.661,-0.6778 v -5.0169 h -7.458 v 5.4068 c 0,0.1526 -0.119,0.288 -0.271,0.288 h -1.356 c -0.169,0 -0.288,-0.1186 -0.288,-0.2881 v -13 c 0,-0.1526 0.102,-0.2712 0.271,-0.2712 h 1.356 c 0.169,0 0.288,0.1186 0.288,0.2712 v 5.678 h 7.458 v -5.678 c 0,-0.1526 0.101,-0.2712 0.271,-0.2712 h 1.356 v -1e-4 m 13.103,1.847 h -6.729 v 4.1356 h 3.899 c 0.169,0 0.288,0.1186 0.288,0.2881 v 1.2712 c 0,0.1865 -0.119,0.2882 -0.288,0.2882 h -3.899 l 0.017,3.8814 h 6.712 c 0.17,0 0.288,0.1186 0.288,0.2881 v 1.2712 c 0,0.1695 -0.118,0.2882 -0.288,0.2882 h -8.356 c -0.169,0 -0.288,-0.1187 -0.288,-0.2882 v -13 c 0,-0.1525 0.102,-0.2712 0.271,-0.2712 h 8.373 c 0.17,0 0.288,0.1187 0.288,0.2712 v 1.3051 c 0,0.1695 -0.118,0.2712 -0.288,0.2712 v -10e-5 m 14.154,11.39 c 0.119,0.1695 0.034,0.322 -0.186,0.322 h -1.254 c -0.373,0 -0.679,-0.3388 -0.814,-0.5422 l -2.644,-3.8983 h -3.356 v 4.1525 c 0,0.1864 -0.102,0.288 -0.271,0.288 h -1.373 c -0.17,0 -0.271,-0.1016 -0.271,-0.288 v -13 c 0,-0.1525 0.101,-0.2712 0.271,-0.2712 h 5.22 c 2.966,0 4.559,2.5254 4.559,4.5592 0,1.6949 -1.016,3.5934 -2.932,4.2881 l 3.051,4.3899 m -8.254,-11.39 v 5.4237 h 3.356 c 1.916,0 2.865,-1.3729 2.865,-2.7458 0,-1.3559 -0.966,-2.678 -2.865,-2.678 h -3.356 v 10e-5"
           style="fill:#969696;fill-rule:nonzero;stroke-width:0.66849834"
           id="path815" />
      </g>
      <ellipse
         cx="54.730865"
         cy="72.055702"
         rx="2.0490441"
         ry="2.0487452"
         style="fill:none;stroke:#ff9100;stroke-width:1.32291663;stroke-linecap:square;stroke-linejoin:bevel;stroke-miterlimit:4;stroke-dasharray:none"
         id="ellipse819" />
      <path
         inkscape:connector-curvature="0"
         d="m 84.666239,72.324975 c 0.01571,3.74985 4.147602,8.697743 4.147602,8.697743 3.748803,-4.570784 4.430471,-7.48848 4.261438,-9.209181 -0.150619,-2.187263 -1.967819,-3.915742 -4.194124,-3.915742 -2.214936,0 -4.020303,1.743139 -4.187691,3.915892 m 4.182755,-1.930572 c 1.247796,0 2.259364,1.012107 2.259364,2.259364 0,1.247796 -1.011568,2.259364 -2.259364,2.259364 -1.247796,0 -2.259364,-1.011568 -2.259364,-2.259364 0,-1.247796 1.011568,-2.259364 2.259364,-2.259364"
         style="fill:#ff9100;stroke-width:0.99998736"
         id="path821" />
      <ellipse
         cx="65.551994"
         cy="72.055702"
         rx="2.0490441"
         ry="2.0487452"
         style="fill:none;stroke:#ff9100;stroke-width:1.32291663;stroke-linecap:square;stroke-linejoin:bevel;stroke-miterlimit:4;stroke-dasharray:none"
         id="ellipse823" />
      <ellipse
         cx="76.371635"
         cy="72.055702"
         rx="2.0490441"
         ry="2.0487452"
         style="fill:none;stroke:#ff9100;stroke-width:1.32291663;stroke-linecap:square;stroke-linejoin:bevel;stroke-miterlimit:4;stroke-dasharray:none"
         id="ellipse825" />
      <g
         transform="matrix(0.54181946,0,0,0.54181946,47.539767,62.467185)"
         style="fill:#cccccc;fill-rule:evenodd;stroke-width:0.66849834;stroke-linecap:square;stroke-linejoin:bevel"
         id="g835">
        <path
           inkscape:connector-curvature="0"
           d="m 84.087,37.562 c 0,0.7853 -3.4846,1.422 -7.783,1.422 -4.2984,0 -7.783,-0.6367 -7.783,-1.422 0,-0.7853 3.4846,-1.422 7.783,-1.422 4.2984,0 7.783,0.6367 7.783,1.422"
           style="fill:#cccccc;fill-rule:nonzero;stroke-width:0.66849834"
           id="path833" />
      </g>
      <g
         style="stroke-width:0.66849834"
         transform="matrix(1.4958711,0,0,1.4958711,-92.16218,8.1670633)"
         id="g841">
        <g
           transform="matrix(0.49237,0,0,0.49237,61.338,54.663)"
           style="fill-rule:evenodd;stroke-width:0.66849834;stroke-linecap:square;stroke-linejoin:bevel"
           id="g839">
          <path
             inkscape:connector-curvature="0"
             d="m 125.04,5 c 0.38,0 0.7,0.32 0.7,0.7 v 13.4 c 0,0.38 -0.32,0.7 -0.7,0.7 h -1.76 c -0.22,0 -0.44,-0.1 -0.58,-0.28 L 112.92,6.12 C 112.76,5.9 112.74,5.62 112.86,5.38 112.98,5.14 113.22,5 113.48,5 h 1.76 c 0.22,0 0.44,0.1 0.56,0.28 l 7.02,9.54 V 5.7 c 0,-0.38 0.3,-0.7 0.7,-0.7 h 1.52 m -9.34,10.4 v 3.7 c 0,0.38 -0.32,0.7 -0.7,0.7 h -1.52 c -0.38,0 -0.7,-0.32 -0.7,-0.7 v -3.7 c 0,-7.382 1.9e-4,-6.8266 -9.9e-4,-7.3836 l 2.9206,3.7632"
             style="fill-rule:nonzero;stroke-width:0.66849834"
             id="path837" />
        </g>
      </g>
      <g
         transform="matrix(0.73652205,0,0,0.73652205,-0.40694176,89.931378)"
         style="fill-rule:evenodd;stroke-width:0.66849834;stroke-linecap:square;stroke-linejoin:bevel"
         id="g845">
        <path
           inkscape:connector-curvature="0"
           d="M 9,7.86 C 8.64,7.8 8.4,7.52 8.4,7.16 V 5.7 C 8.4,5.5 8.48,5.3 8.64,5.18 8.8,5.04 9,4.98 9.2,5 c 1.14,0.18 2.16,0.58 3.06,1.22 1.14,0.82 1.98,1.94 2.46,3.34 0.08,0.22 0.04,0.46 -0.08,0.64 -0.14,0.2 -0.36,0.3 -0.58,0.3 h -1.6 C 12.18,10.5 11.92,10.34 11.8,10.08 11.5,9.38 11.06,8.84 10.46,8.42 10.02,8.14 9.54,7.94 9,7.86 m 5.06,6.64 c 0.22,0 0.44,0.1 0.58,0.3 0.12,0.18 0.16,0.42 0.08,0.64 -0.48,1.4 -1.32,2.52 -2.46,3.34 -0.9,0.64 -1.92,1.04 -3.06,1.22 H 9.1 C 8.92,20 8.76,19.94 8.64,19.82 8.48,19.7 8.4,19.5 8.4,19.3 v -1.46 c 0,-0.36 0.24,-0.64 0.58,-0.7 0.56,-0.08 1.04,-0.26 1.48,-0.56 0.6,-0.42 1.04,-0.96 1.34,-1.66 0.12,-0.26 0.38,-0.42 0.66,-0.42 h 1.6 M 6.9,5.24 C 7.06,5.36 7.16,5.56 7.16,5.78 V 7.34 C 7.16,7.64 6.94,7.92 6.64,8.02 6.48,8.06 6.34,8.1 6.2,8.16 5.66,8.4 5.22,8.72 4.84,9.14 4.08,10 3.7,11.1 3.7,12.5 c 0,1.4 0.38,2.5 1.14,3.36 0.48,0.54 1.06,0.9 1.8,1.12 0.3,0.08 0.52,0.36 0.52,0.66 v 1.58 c 0,0.22 -0.1,0.42 -0.26,0.54 -0.14,0.12 -0.3,0.16 -0.46,0.16 H 6.3 C 4.88,19.62 3.66,18.92 2.68,17.84 1.42,16.42 0.78,14.64 0.78,12.5 0.78,10.38 1.42,8.58 2.68,7.16 3.66,6.08 4.88,5.38 6.3,5.1 6.52,5.04 6.72,5.1 6.9,5.24 m 10.82,4.88 c -0.38,0 -0.7,-0.32 -0.7,-0.7 V 5.7 c 0,-0.38 0.32,-0.7 0.7,-0.7 h 1.52 c 0.4,0 0.7,0.32 0.7,0.7 v 3.72 c 0,0.38 -0.3,0.7 -0.7,0.7 H 17.72 M 28.58,5 c 0.38,0 0.7,0.32 0.7,0.7 v 13.44 c 0,0.38 -0.32,0.7 -0.7,0.7 h -1.52 c -0.4,0 -0.7,-0.32 -0.7,-0.7 v -5.28 h -6.42 v 5.28 c 0,0.38 -0.3,0.7 -0.7,0.7 h -1.52 c -0.38,0 -0.7,-0.32 -0.7,-0.7 v -7.48 c 0,-0.38 0.32,-0.7 0.7,-0.7 h 8.64 V 5.7 c 0,-0.38 0.3,-0.7 0.7,-0.7 h 1.52 M 43.1,16.96 c 0.4,0 0.7,0.32 0.7,0.72 v 1.46 c 0,0.38 -0.3,0.7 -0.7,0.7 h -9.88 c -0.38,0 -0.7,-0.32 -0.7,-0.7 v -1.46 c 0,-0.4 0.32,-0.72 0.7,-0.72 h 9.88 m -9.88,-3.1 c -0.38,0 -0.7,-0.32 -0.7,-0.7 v -1.5 c 0,-0.38 0.32,-0.7 0.7,-0.7 h 8.98 c 0.4,0 0.72,0.32 0.72,0.7 v 1.5 c 0,0.38 -0.32,0.7 -0.72,0.7 H 33.22 M 43.1,5 c 0.4,0 0.7,0.32 0.7,0.7 v 1.46 c 0,0.4 -0.3,0.72 -0.7,0.72 h -9.88 c -0.38,0 -0.7,-0.32 -0.7,-0.72 V 5.7 C 32.52,5.32 32.84,5 33.22,5 H 43.1 M 53.6,7.86 C 53.24,7.8 53,7.52 53,7.16 V 5.7 C 53,5.5 53.08,5.3 53.24,5.18 53.4,5.04 53.6,4.98 53.8,5 c 1.14,0.18 2.16,0.58 3.06,1.22 1.14,0.82 1.98,1.94 2.46,3.34 0.08,0.22 0.04,0.46 -0.08,0.64 -0.14,0.2 -0.36,0.3 -0.58,0.3 h -1.6 C 56.78,10.5 56.52,10.34 56.4,10.08 56.1,9.38 55.66,8.84 55.06,8.42 54.62,8.14 54.14,7.94 53.6,7.86 m 5.06,6.64 c 0.22,0 0.44,0.1 0.58,0.3 0.12,0.18 0.16,0.42 0.08,0.64 -0.48,1.4 -1.32,2.52 -2.46,3.34 -0.9,0.64 -1.92,1.04 -3.06,1.22 H 53.7 C 53.52,20 53.36,19.94 53.24,19.82 53.08,19.7 53,19.5 53,19.3 v -1.46 c 0,-0.36 0.24,-0.64 0.58,-0.7 0.56,-0.08 1.04,-0.26 1.48,-0.56 0.6,-0.42 1.04,-0.96 1.34,-1.66 0.12,-0.26 0.38,-0.42 0.66,-0.42 h 1.6 M 51.5,5.24 c 0.16,0.12 0.26,0.32 0.26,0.54 v 1.56 c 0,0.3 -0.22,0.58 -0.52,0.68 C 51.08,8.06 50.94,8.1 50.8,8.16 50.26,8.4 49.82,8.72 49.44,9.14 48.68,10 48.3,11.1 48.3,12.5 c 0,1.4 0.38,2.5 1.14,3.36 0.48,0.54 1.06,0.9 1.8,1.12 0.3,0.08 0.52,0.36 0.52,0.66 v 1.58 c 0,0.22 -0.1,0.42 -0.26,0.54 -0.14,0.12 -0.3,0.16 -0.46,0.16 H 50.9 c -1.42,-0.3 -2.64,-1 -3.62,-2.08 -1.26,-1.42 -1.9,-3.2 -1.9,-5.34 0,-2.12 0.64,-3.92 1.9,-5.34 0.98,-1.08 2.2,-1.78 3.62,-2.06 0.22,-0.06 0.42,0 0.6,0.14 M 74.32,18.7 c 0.16,0.2 0.18,0.48 0.06,0.72 -0.12,0.24 -0.36,0.38 -0.62,0.38 h -1.9 c -0.24,0 -0.46,-0.12 -0.58,-0.3 l -4.78,-6.88 -1.96,1.84 v 4.64 c 0,0.38 -0.32,0.7 -0.7,0.7 h -1.52 c -0.38,0 -0.7,-0.32 -0.7,-0.7 v -5.56 c 0,-0.2 0.08,-0.38 0.22,-0.5 L 70.2,5.2 C 70.34,5.06 70.5,5 70.68,5 h 2.16 c 0.28,0 0.54,0.18 0.64,0.44 0.12,0.28 0.04,0.58 -0.16,0.78 l -4.68,4.4 5.68,8.08 m -12,-8.6 c -0.38,0 -0.7,-0.3 -0.7,-0.7 V 5.7 c 0,-0.38 0.32,-0.7 0.7,-0.7 h 1.52 c 0.38,0 0.7,0.32 0.7,0.7 v 3.7 c 0,0.4 -0.32,0.7 -0.7,0.7 H 62.32 M 82.72,5 c 1.58,0 2.88,0.46 3.84,1.36 0.98,0.92 1.46,2.16 1.46,3.66 0,1.52 -0.48,2.74 -1.46,3.66 -0.96,0.9 -2.26,1.34 -3.84,1.34 H 78.9 v 4.08 c 0,0.38 -0.32,0.7 -0.7,0.7 h -1.52 c -0.38,0 -0.7,-0.32 -0.7,-0.7 v -6.2 c 0,-0.38 0.32,-0.7 0.7,-0.7 h 5.92 c 0.88,0 1.52,-0.18 1.92,-0.58 0.4,-0.36 0.58,-0.9 0.58,-1.6 0,-0.7 -0.18,-1.22 -0.58,-1.6 C 84.12,8.04 83.48,7.84 82.6,7.84 h -5.92 c -0.38,0 -0.7,-0.32 -0.7,-0.7 V 5.7 C 75.98,5.32 76.3,5 76.68,5 h 6.04 M 95.86,5.16 C 96.02,5.3 96.1,5.5 96.1,5.7 v 1.5 c 0,0.34 -0.22,0.62 -0.56,0.7 -0.86,0.18 -1.58,0.58 -2.18,1.22 -0.82,0.86 -1.22,1.96 -1.22,3.34 0,1.36 0.4,2.46 1.22,3.34 0.6,0.62 1.32,1.02 2.18,1.2 0.34,0.08 0.56,0.36 0.56,0.7 v 1.5 c 0,0.2 -0.08,0.4 -0.24,0.54 -0.14,0.1 -0.3,0.16 -0.46,0.16 h -0.12 c -1.56,-0.26 -2.9,-0.98 -3.98,-2.1 -1.38,-1.42 -2.08,-3.22 -2.08,-5.34 0,-2.12 0.7,-3.92 2.08,-5.36 1.08,-1.12 2.42,-1.82 3.98,-2.08 0.2,-0.04 0.42,0.02 0.58,0.14 m 6.28,1.94 c 1.38,1.44 2.08,3.22 2.08,5.36 0,2.12 -0.7,3.92 -2.08,5.34 -1.08,1.12 -2.42,1.84 -3.98,2.1 h -0.12 c -0.16,0 -0.32,-0.06 -0.46,-0.16 C 97.42,19.6 97.34,19.4 97.34,19.2 v -1.5 c 0,-0.34 0.22,-0.62 0.56,-0.7 0.86,-0.18 1.58,-0.58 2.18,-1.2 0.82,-0.88 1.22,-1.98 1.22,-3.34 0,-1.38 -0.4,-2.48 -1.22,-3.34 C 99.48,8.48 98.76,8.08 97.9,7.9 97.56,7.82 97.34,7.54 97.34,7.2 V 5.7 c 0,-0.2 0.08,-0.4 0.24,-0.54 0.16,-0.12 0.38,-0.18 0.58,-0.14 1.56,0.26 2.9,0.96 3.98,2.08 m 6.7,3.84 c 0.4,0 0.7,0.32 0.7,0.72 v 7.48 c 0,0.38 -0.3,0.7 -0.7,0.7 h -1.52 c -0.38,0 -0.7,-0.32 -0.7,-0.7 v -7.48 c 0,-0.4 0.32,-0.72 0.7,-0.72 h 1.52 m 0,-5.94 c 0.4,0 0.7,0.32 0.7,0.7 v 3.7 c 0,0.4 -0.3,0.72 -0.7,0.72 h -1.52 c -0.38,0 -0.7,-0.32 -0.7,-0.72 V 5.7 c 0,-0.38 0.32,-0.7 0.7,-0.7 h 1.52 m 21.56,0 c 0.4,0 0.72,0.32 0.72,0.72 v 1.46 c 0,0.4 -0.32,0.72 -0.72,0.72 h -2.06 c -0.38,0 -0.7,-0.32 -0.7,-0.72 V 5.72 c 0,-0.4 0.32,-0.72 0.7,-0.72 h 2.06 m 8.94,0 c 0.38,0 0.7,0.32 0.7,0.72 v 1.46 c 0,0.4 -0.32,0.72 -0.7,0.72 h -4.02 v 11.36 c 0,0.38 -0.32,0.7 -0.7,0.7 h -1.54 c -0.4,0 -0.72,-0.32 -0.72,-0.7 V 5.72 c 0,-0.4 0.32,-0.72 0.72,-0.72 h 6.26 m 17.42,0 c 0.38,0 0.7,0.32 0.7,0.7 v 13.4 c 0,0.38 -0.32,0.7 -0.7,0.7 h -1.52 c -0.38,0 -0.7,-0.32 -0.7,-0.7 V 5.7 c 0,-0.38 0.32,-0.7 0.7,-0.7 h 1.52 m 7.3,11.94 c 0.4,0 0.7,0.32 0.7,0.7 v 1.46 c 0,0.38 -0.3,0.7 -0.7,0.7 h -4.66 c -0.4,0 -0.7,-0.32 -0.7,-0.7 v -1.46 c 0,-0.38 0.3,-0.7 0.7,-0.7 h 4.66 m 4.86,-6 c 0.4,0 0.7,0.32 0.7,0.72 v 7.48 c 0,0.38 -0.3,0.7 -0.7,0.7 h -1.52 c -0.38,0 -0.7,-0.32 -0.7,-0.7 v -7.48 c 0,-0.4 0.32,-0.72 0.7,-0.72 h 1.52 m 0,-5.94 c 0.4,0 0.7,0.32 0.7,0.7 v 3.7 c 0,0.4 -0.3,0.72 -0.7,0.72 h -1.52 c -0.38,0 -0.7,-0.32 -0.7,-0.72 V 5.7 c 0,-0.38 0.32,-0.7 0.7,-0.7 h 1.52 m 15.58,0 c 0.22,0 0.44,0.12 0.58,0.3 0.12,0.2 0.16,0.44 0.06,0.66 l -5.38,13.28 c -0.1,0.26 -0.36,0.44 -0.64,0.44 h -1.72 c -0.3,0 -0.54,-0.18 -0.66,-0.44 L 171.36,5.96 C 171.28,5.74 171.3,5.5 171.44,5.3 171.56,5.12 171.78,5 172.02,5 h 1.64 c 0.28,0 0.54,0.18 0.64,0.44 l 3.96,9.94 3.94,-9.94 C 182.32,5.18 182.56,5 182.86,5 h 1.64 m 12.96,11.96 c 0.4,0 0.7,0.32 0.7,0.72 v 1.46 c 0,0.38 -0.3,0.7 -0.7,0.7 h -9.88 c -0.38,0 -0.7,-0.32 -0.7,-0.7 v -1.46 c 0,-0.4 0.32,-0.72 0.7,-0.72 h 9.88 m -9.88,-3.1 c -0.38,0 -0.7,-0.32 -0.7,-0.7 v -1.5 c 0,-0.38 0.32,-0.7 0.7,-0.7 h 8.98 c 0.4,0 0.72,0.32 0.72,0.7 v 1.5 c 0,0.38 -0.32,0.7 -0.72,0.7 h -8.98 M 197.46,5 c 0.4,0 0.7,0.32 0.7,0.7 v 1.46 c 0,0.4 -0.3,0.72 -0.7,0.72 h -9.88 c -0.38,0 -0.7,-0.32 -0.7,-0.72 V 5.7 c 0,-0.38 0.32,-0.7 0.7,-0.7 h 9.88"
           style="fill-rule:nonzero;stroke-width:0.66849834"
           id="path843" />
      </g>
    </g>
    <text
       xml:space="preserve"
       style="font-style:normal;font-weight:normal;font-size:10.58333302px;line-height:1.25;font-family:sans-serif;letter-spacing:0px;word-spacing:0px;fill:#000000;fill-opacity:1;stroke:none;stroke-width:0.26458332"
       x="79.167183"
       y="69.647301"
       id="text958"><tspan
         sodipodi:role="line"
         x="79.167183"
         y="69.647301"
         style="text-align:center;text-anchor:middle;stroke-width:0.26458332;-inkscape-font-specification:'AR DARLING';font-family:'AR DARLING';font-weight:normal;font-style:normal;font-stretch:normal;font-variant:normal"
         id="tspan960">Do you run events with</tspan><tspan
         sodipodi:role="line"
         x="79.167183"
         y="82.876465"
         style="text-align:center;text-anchor:middle;stroke-width:0.26458332;-inkscape-font-specification:'AR DARLING';font-family:'AR DARLING';font-weight:normal;font-style:normal;font-stretch:normal;font-variant:normal"
         id="tspan976">participants all over the</tspan><tspan
         sodipodi:role="line"
         x="79.167183"
         y="96.105637"
         style="text-align:center;text-anchor:middle;stroke-width:0.26458332;-inkscape-font-specification:'AR DARLING';font-family:'AR DARLING';font-weight:normal;font-style:normal;font-stretch:normal;font-variant:normal"
         id="tspan982"> countryside?</tspan></text>
    <flowRoot
       xml:space="preserve"
       id="flowRoot964"
       style="fill:black;fill-opacity:1;stroke:none;font-family:sans-serif;font-style:normal;font-weight:normal;font-size:40px;line-height:1.25;letter-spacing:0px;word-spacing:0px"><flowRegion
         id="flowRegion966"><rect
           id="rect968"
           width="90"
           height="58.57143"
           x="-29.285715"
           y="9.2857132" /></flowRegion><flowPara
         id="flowPara970"></flowPara></flowRoot>  </g>
</svg>
