<svg width="25" height="40" version="1.1" viewBox="0 0 6.6146 10.583" xmlns="http://www.w3.org/2000/svg">
  <g>
    <path transform="scale(.26458)" d="m11.78 39.299c-0.95563-1.212-2.0998-2.7734-3.1242-4.2634-4.4913-6.5327-7.3023-12.487-8.3005-17.582-0.21246-1.0845-0.23785-1.4202-0.24028-3.1769-0.0030856-2.2278 0.1079-3.0524 0.6147-4.5671 0.62961-1.8818 1.6417-3.5079 3.0785-4.9464 1.8136-1.8158 4.0577-2.9965 6.5608-3.4521 1.1252-0.20478 3.2228-0.19768 4.3356 0.01467 5.2274 0.99758 9.0965 4.9467 10.064 10.272 0.20772 1.1433 0.20432 3.8704-0.0065 5.1786-1.0139 6.2928-4.7879 13.515-11.419 21.853-0.53703 0.67522-1.0094 1.2277-1.0498 1.2277-0.04037 0-0.2714-0.25112-0.51339-0.55804zm2.6121-19.173c2.9163-0.91871 4.777-3.4195 4.789-6.4363 0.0062-1.5696-0.48791-3.0175-1.4283-4.1847-1.3326-1.6541-3.135-2.5252-5.2357-2.5303-1.233-0.0030357-1.9676 0.16772-3.0804 0.71597-0.71483 0.3522-0.97458 0.5449-1.6518 1.2254-0.91623 0.92068-1.2889 1.5014-1.6778 2.6145-0.37868 1.0839-0.44396 2.5732-0.16177 3.6909 0.65609 2.5987 2.5356 4.4423 5.1432 5.0451 0.79607 0.18402 2.504 0.11136 3.3036-0.14053z" style="fill:#fff"/>
    <rect transform="translate(0 -286.42)" x="1.2048" y="288.19" width="4.2759" height="3.8979" style="fill:#fff"/>
  </g>
  <g transform="translate(0 -286.42)">
    <path transform="translate(0 -4.1667e-6)" d="m0 290.18c0.0123 2.9415 3.2535 6.8227 3.2535 6.8227 2.9406-3.5854 3.4754-5.8742 3.3428-7.2239-0.11816-1.7158-1.5436-3.0716-3.29-3.0716-1.7374 0-3.1536 1.3674-3.2849 3.0717m3.281-1.5144c0.9788 0 1.7723 0.79392 1.7723 1.7723 0 0.97881-0.79351 1.7723-1.7723 1.7723-0.97879 0-1.7723-0.79349-1.7723-1.7723 0-0.9788 0.79351-1.7723 1.7723-1.7723" style="fill:#ff9100;stroke-width:.99999"/>
  </g>
</svg>
