<svg width="64" height="64" viewBox="0 0 16.933 16.933" xmlns="http://www.w3.org/2000/svg"><g transform="translate(-24.848 -35.85)"><path d="M34.151 45.163c.01 2.507 2.773 5.815 2.773 5.815 2.506-3.056 2.962-5.007 2.849-6.157a2.811 2.811 0 0 0-2.804-2.618c-1.481 0-2.688 1.166-2.8 2.618m2.796-1.29a1.51 1.51 0 1 1 0 3.02 1.51 1.51 0 0 1 0-3.02" fill="#ff9100"/><path d="M39.79 52.187c0 .285-1.263.515-2.82.515s-2.819-.23-2.819-.515 1.262-.515 2.82-.515 2.818.23 2.818.515" fill-rule="nonzero" fill="#ccc" stroke-linecap="square" stroke-linejoin="bevel"/><ellipse transform="scale(-1 1)" cx="-35.815" cy="37.683" rx="1.37" ry="1.37" fill="none" stroke-linecap="square" stroke-linejoin="bevel" stroke-width=".794" stroke="#ff9100"/><ellipse cx="28.607" cy="37.683" rx="1.37" ry="1.37" fill="none" stroke-linecap="square" stroke-linejoin="bevel" stroke-width=".794" stroke="#ff9100"/><ellipse cx="28.607" cy="44.992" rx="1.37" ry="1.37" fill="none" stroke-linecap="square" stroke-linejoin="bevel" stroke-width=".794" stroke="#ff9100"/><path d="M34.112 37.695l-3.797-.024M28.619 43.236l-.024-3.797M30.354 45.003l3.821-.024" fill="none" stroke-width=".397" stroke="#000"/></g></svg>