<svg width="375" height="150" viewBox="0 0 99.219 39.688" xmlns="http://www.w3.org/2000/svg"><g transform="translate(26.175 -289.816)"><path d="M10.747 323.65c.022 0 .039.014.039.038v.185a.038.038 0 0 1-.039.038h-.579v1.62c0 .026-.014.04-.038.04h-.14c-.062 0-.093-.04-.093-.096v-1.564h-.579c-.021 0-.04-.014-.04-.038v-.183a.04.04 0 0 1 .04-.04h1.43m1.962 1.875c.017.024.005.046-.027.046h-.177c-.053 0-.096-.048-.116-.077l-.374-.552h-.476v.588c0 .027-.014.041-.038.041h-.195c-.024 0-.038-.014-.038-.04v-1.843c0-.022.014-.038.038-.038h.74c.42 0 .646.357.646.646a.65.65 0 0 1-.416.607l.433.622m-1.17-1.614v.769h.476c.271 0 .406-.195.406-.39 0-.191-.137-.379-.406-.379h-.476m3.514 1.617c.012.024.005.043-.021.043h-.219c-.022 0-.034-.01-.04-.026l-.15-.313H13.59l-.146.313c-.01.016-.022.026-.041.026h-.221c-.024 0-.036-.02-.027-.043l.906-1.869c.007-.017.02-.021.031-.021h.031c.012 0 .022.004.032.021l.9 1.869m-1.347-.543h.8l-.4-.85-.4.85m3.476.243c.019.016.019.038-.003.06a.955.955 0 0 1-.708.3c-.534 0-.976-.428-.976-.973a.98.98 0 0 1 1.689-.68c.022.022.022.044.002.058l-.153.125c-.02.017-.036.017-.056-.002a.705.705 0 0 0-.497-.221.716.716 0 0 0-.713.72c0 .363.28.711.713.711a.698.698 0 0 0 .49-.214c.02-.021.039-.024.058-.01l.154.126m1.967.254c.036.039.017.09-.036.09h-.202c-.022 0-.034-.006-.05-.022l-.899-.947v.93a.038.038 0 0 1-.038.038h-.195a.038.038 0 0 1-.038-.038v-1.706a.886.886 0 0 0-.014-.13c-.005-.026.002-.047.026-.047h.166c.057 0 .093.033.093.086v.802l.793-.867a.057.057 0 0 1 .048-.021h.207c.048 0 .064.05.036.081l-.771.84.874.911m3.695-1.832c.021 0 .038.014.038.038v.185a.038.038 0 0 1-.038.038h-.58v1.62c0 .026-.014.04-.038.04h-.139c-.062 0-.094-.04-.094-.096v-1.564h-.579c-.021 0-.04-.014-.04-.038v-.182a.04.04 0 0 1 .04-.041h1.43m1.506 1.938c.54 0 .98-.43.98-.98a.975.975 0 0 0-.98-.975.976.976 0 1 0 0 1.955m0-.262a.72.72 0 0 1-.714-.718.72.72 0 0 1 .714-.713.72.72 0 0 1 .71.713.72.72 0 0 1-.71.718m3.122-.61c.03 0 .041.015.041.041v.497c0 .012-.007.024-.017.034a.955.955 0 0 1-.708.3c-.533 0-.975-.428-.975-.973a.98.98 0 0 1 1.688-.68c.022.022.022.044.003.058l-.154.125c-.02.017-.036.017-.055-.002a.705.705 0 0 0-.497-.221.716.716 0 0 0-.714.72c0 .363.281.711.714.711a.686.686 0 0 0 .446-.173v-.177h-.44c-.026 0-.04-.012-.04-.039v-.178c0-.028.012-.043.038-.043h.67m1.793-.805h-.954v.586h.552c.024 0 .041.017.041.041v.18c0 .027-.017.041-.04.041h-.553l.002.55h.952a.04.04 0 0 1 .04.041v.18a.04.04 0 0 1-.04.041H28.08a.04.04 0 0 1-.04-.04v-1.843c0-.022.014-.038.038-.038h1.187c.024 0 .04.016.04.038v.185c0 .024-.016.038-.04.038m1.998-.261c.022 0 .038.014.038.038v.185a.038.038 0 0 1-.038.038h-.579v1.62c0 .026-.014.04-.038.04h-.14c-.062 0-.093-.04-.093-.096v-1.563h-.579c-.022 0-.04-.015-.04-.039v-.182c0-.024.016-.041.04-.041h1.43-.001m2.116 0c.024 0 .041.017.041.038v1.842c0 .027-.014.041-.036.041h-.141c-.06 0-.094-.04-.094-.096v-.71h-1.057v.765c0 .022-.017.041-.038.041h-.193a.04.04 0 0 1-.04-.04v-1.843c0-.021.014-.038.038-.038h.192c.024 0 .041.017.041.038v.805h1.057v-.805c0-.021.014-.038.038-.038h.192m1.857.261h-.953v.586h.552a.04.04 0 0 1 .041.041v.18c0 .027-.017.041-.04.041h-.553l.002.55h.951c.024 0 .041.017.041.041v.18c0 .024-.017.041-.04.041h-1.185a.04.04 0 0 1-.04-.04v-1.843c0-.022.014-.038.038-.038h1.186c.024 0 .041.016.041.038v.185c0 .024-.017.038-.04.038m2.005 1.614c.017.025.005.046-.026.046h-.178c-.053 0-.096-.048-.115-.077l-.375-.552h-.476v.588c0 .027-.014.041-.038.041h-.195c-.024 0-.038-.014-.038-.04v-1.843c0-.022.014-.038.038-.038h.74c.42 0 .646.358.646.646a.65.65 0 0 1-.415.607l.432.622m-1.17-1.614v.769h.476c.271 0 .406-.195.406-.39 0-.191-.137-.379-.406-.379h-.476" fill-rule="nonzero" fill="#969696" stroke-linecap="square" stroke-linejoin="bevel"/><ellipse cx="11.319" cy="296.52" rx="1.37" ry="1.37" fill="none" stroke-linecap="square" stroke-linejoin="bevel" stroke-width=".794" stroke="#ff9100"/><path d="M31.331 296.7c.01 2.507 2.773 5.814 2.773 5.814 2.506-3.055 2.961-5.006 2.848-6.156a2.811 2.811 0 0 0-2.803-2.618c-1.481 0-2.688 1.166-2.8 2.618m2.796-1.29a1.51 1.51 0 1 1 0 3.02 1.51 1.51 0 0 1 0-3.02" fill="#ff9100"/><ellipse cx="18.553" cy="296.52" rx="1.37" ry="1.37" fill="none" stroke-linecap="square" stroke-linejoin="bevel" stroke-width=".794" stroke="#ff9100"/><ellipse cx="25.786" cy="296.52" rx="1.37" ry="1.37" fill="none" stroke-linecap="square" stroke-linejoin="bevel" stroke-width=".794" stroke="#ff9100"/><path d="M13.022 296.54l3.797-.024M20.264 296.54l3.797-.024M27.533 296.54l3.821-.024" fill="none" stroke-width=".397" stroke="#000"/><path d="M36.969 303.715c0 .285-1.262.515-2.82.515s-2.818-.23-2.818-.515 1.262-.515 2.819-.515 2.819.23 2.819.515" fill-rule="nonzero" fill="#ccc" stroke-linecap="square" stroke-linejoin="bevel"/><path d="M36.024 310.935c.187 0 .345.157.345.345v6.597a.349.349 0 0 1-.345.345h-.867a.364.364 0 0 1-.285-.138l-4.816-6.598c-.078-.108-.088-.246-.03-.364s.178-.187.306-.187h.867c.108 0 .216.05.275.138l3.457 4.697v-4.49c0-.188.148-.345.345-.345h.748m-4.599 5.12v1.822a.349.349 0 0 1-.344.345h-.749a.349.349 0 0 1-.345-.345v-1.822-3.635l1.438 1.853M-21.11 312.34a.341.341 0 0 1-.295-.345v-.718c0-.099.04-.197.118-.257a.36.36 0 0 1 .276-.088 3.498 3.498 0 0 1 1.506.6c.562.404.975.956 1.212 1.645.04.108.02.227-.04.315a.346.346 0 0 1-.285.148h-.788a.357.357 0 0 1-.325-.207 1.863 1.863 0 0 0-.66-.817 1.824 1.824 0 0 0-.719-.276m2.492 3.27c.108 0 .216.049.285.147.06.089.08.207.04.315-.237.69-.65 1.241-1.212 1.645a3.498 3.498 0 0 1-1.506.6h-.05a.312.312 0 0 1-.226-.088.318.318 0 0 1-.118-.256v-.72c0-.176.118-.314.285-.344.276-.04.513-.128.73-.276.295-.206.511-.472.659-.817a.357.357 0 0 1 .325-.207h.788m-3.526-4.559c.08.06.128.158.128.266v.768a.367.367 0 0 1-.256.335c-.078.02-.147.04-.216.069a1.947 1.947 0 0 0-.67.482c-.374.424-.561.965-.561 1.655s.187 1.23.561 1.654c.236.266.522.443.886.551.148.04.256.178.256.325v.778c0 .109-.049.207-.128.266a.335.335 0 0 1-.226.079h-.07c-.698-.148-1.299-.492-1.781-1.024-.62-.7-.936-1.576-.936-2.63 0-1.043.315-1.93.936-2.629a3.203 3.203 0 0 1 1.782-1.014c.108-.03.207 0 .295.069m5.328 2.403a.349.349 0 0 1-.345-.345v-1.831c0-.188.158-.345.345-.345h.748c.197 0 .345.157.345.345v1.831a.343.343 0 0 1-.345.345h-.748m5.347-2.521c.187 0 .345.157.345.345v6.617a.349.349 0 0 1-.345.345h-.748a.343.343 0 0 1-.345-.345v-2.6h-3.161v2.6a.343.343 0 0 1-.345.345h-.748a.349.349 0 0 1-.345-.345v-3.683c0-.187.158-.345.345-.345h4.254v-2.59c0-.187.148-.344.345-.344h.748m7.15 5.889c.196 0 .344.157.344.354v.719a.343.343 0 0 1-.345.345h-4.864a.349.349 0 0 1-.345-.345v-.719c0-.197.157-.354.345-.354h4.864m-4.864-1.527a.349.349 0 0 1-.345-.344v-.739c0-.187.157-.345.345-.345h4.421c.197 0 .355.158.355.345v.739a.351.351 0 0 1-.355.344h-4.421m4.864-4.362c.197 0 .345.157.345.345v.718a.345.345 0 0 1-.345.355h-4.864a.351.351 0 0 1-.345-.355v-.718c0-.188.157-.345.345-.345h4.864m5.17 1.408a.341.341 0 0 1-.295-.345v-.718c0-.099.039-.197.118-.257a.36.36 0 0 1 .276-.088 3.498 3.498 0 0 1 1.506.6c.561.404.975.956 1.211 1.645.04.108.02.227-.039.315a.346.346 0 0 1-.286.148h-.787a.357.357 0 0 1-.325-.207 1.863 1.863 0 0 0-.66-.817 1.824 1.824 0 0 0-.719-.276m2.491 3.27c.109 0 .217.049.286.147.06.089.079.207.04.315-.237.69-.65 1.241-1.212 1.645a3.498 3.498 0 0 1-1.506.6h-.05a.312.312 0 0 1-.226-.088.318.318 0 0 1-.118-.256v-.72c0-.176.118-.314.285-.344.276-.04.512-.128.729-.276.295-.206.512-.472.66-.817a.357.357 0 0 1 .325-.207h.787m-3.525-4.559c.079.06.128.158.128.266v.768a.367.367 0 0 1-.256.335c-.079.02-.148.04-.217.069a1.947 1.947 0 0 0-.67.482c-.373.424-.56.965-.56 1.655s.187 1.23.56 1.654c.237.266.523.443.887.551.148.04.256.178.256.325v.778c0 .109-.05.207-.128.266a.335.335 0 0 1-.226.079h-.07c-.699-.148-1.3-.492-1.782-1.024-.62-.7-.935-1.576-.935-2.63 0-1.043.315-1.93.935-2.629a3.203 3.203 0 0 1 1.783-1.014c.108-.03.206 0 .295.069m11.236 6.627c.079.099.089.237.03.355s-.178.187-.306.187h-.935a.345.345 0 0 1-.286-.148l-2.353-3.387-.965.906v2.284a.349.349 0 0 1-.345.345h-.749a.349.349 0 0 1-.344-.345v-2.737a.32.32 0 0 1 .108-.246l4.116-3.86a.32.32 0 0 1 .237-.1h1.063c.138 0 .266.09.315.217.06.138.02.286-.078.385l-2.305 2.166 2.797 3.978m-5.909-4.234a.343.343 0 0 1-.344-.345v-1.821c0-.188.157-.345.344-.345h.749c.187 0 .345.157.345.345v1.821a.343.343 0 0 1-.345.345h-.749m10.045-2.511c.778 0 1.418.226 1.89.67.483.452.72 1.063.72 1.802 0 .748-.237 1.349-.72 1.802-.472.443-1.112.66-1.89.66h-1.881v2.008a.349.349 0 0 1-.345.345h-.748a.349.349 0 0 1-.345-.345v-3.052c0-.188.158-.345.345-.345h2.915c.433 0 .748-.089.945-.286.197-.177.286-.443.286-.787s-.089-.601-.286-.788-.512-.286-.945-.286h-2.915a.349.349 0 0 1-.345-.344v-.71c0-.187.158-.344.345-.344h2.974m6.47.079a.352.352 0 0 1 .118.266v.738a.348.348 0 0 1-.276.345 1.987 1.987 0 0 0-1.073.6c-.404.424-.601.965-.601 1.645 0 .67.197 1.211.6 1.644.296.306.65.503 1.074.591.167.04.276.178.276.345v.739c0 .098-.04.196-.118.265a.395.395 0 0 1-.227.08h-.059a3.466 3.466 0 0 1-1.96-1.035c-.68-.699-1.024-1.585-1.024-2.63s.345-1.93 1.024-2.638a3.453 3.453 0 0 1 1.96-1.024.37.37 0 0 1 .286.069m3.092.955c.68.709 1.024 1.585 1.024 2.639 0 1.044-.345 1.93-1.024 2.63a3.466 3.466 0 0 1-1.96 1.033h-.059a.395.395 0 0 1-.227-.079.352.352 0 0 1-.118-.265v-.74c0-.166.109-.304.276-.344a2.037 2.037 0 0 0 1.073-.59c.404-.434.601-.975.601-1.645 0-.68-.197-1.221-.6-1.645a1.987 1.987 0 0 0-1.074-.6.348.348 0 0 1-.276-.345v-.738c0-.099.04-.197.118-.266a.37.37 0 0 1 .286-.07 3.453 3.453 0 0 1 1.96 1.025m3.299 1.89c.196 0 .344.158.344.355v3.683a.343.343 0 0 1-.344.345H27.3a.349.349 0 0 1-.345-.345v-3.683c0-.197.158-.354.345-.354h.749m0-2.925c.196 0 .344.157.344.345v1.821a.345.345 0 0 1-.344.355H27.3a.351.351 0 0 1-.345-.355v-1.821c0-.188.158-.345.345-.345h.749m10.615 0c.197 0 .355.157.355.354v.72a.353.353 0 0 1-.355.354H37.65a.351.351 0 0 1-.345-.355v-.719c0-.197.158-.354.345-.354h1.014m4.402 0c.187 0 .344.157.344.354v.72a.351.351 0 0 1-.344.354h-1.98v5.593a.349.349 0 0 1-.344.345h-.758a.351.351 0 0 1-.355-.345v-6.667c0-.197.158-.354.355-.354h3.082m8.577 0c.187 0 .345.157.345.345v6.597a.349.349 0 0 1-.345.345h-.748a.349.349 0 0 1-.345-.345v-6.597c0-.188.157-.345.345-.345h.748m3.594 5.879c.197 0 .345.157.345.344v.72a.343.343 0 0 1-.345.344h-2.294a.343.343 0 0 1-.345-.345v-.719c0-.187.148-.344.345-.344h2.294m2.393-2.954c.197 0 .345.157.345.354v3.683a.343.343 0 0 1-.345.345h-.748a.349.349 0 0 1-.345-.345v-3.683c0-.197.158-.354.345-.354h.748m0-2.925c.197 0 .345.157.345.345v1.821a.345.345 0 0 1-.345.355h-.748a.351.351 0 0 1-.345-.355v-1.821c0-.188.158-.345.345-.345h.748m7.671 0c.109 0 .217.059.286.148.059.098.079.216.03.325l-2.65 6.538a.342.342 0 0 1-.315.217h-.847a.356.356 0 0 1-.325-.217l-2.648-6.538a.349.349 0 0 1 .324-.473h.808c.138 0 .266.088.315.216l1.95 4.895 1.94-4.895a.356.356 0 0 1 .325-.216h.807m6.381 5.889c.197 0 .345.157.345.354v.719a.343.343 0 0 1-.345.345h-4.864a.349.349 0 0 1-.345-.345v-.719c0-.197.158-.354.345-.354h4.864m-4.864-1.527a.349.349 0 0 1-.345-.344v-.739c0-.187.158-.345.345-.345h4.421c.197 0 .355.158.355.345v.739a.351.351 0 0 1-.355.344h-4.421m4.864-4.362c.197 0 .345.157.345.345v.718a.345.345 0 0 1-.345.355h-4.864a.351.351 0 0 1-.345-.355v-.718c0-.188.158-.345.345-.345h4.864" fill-rule="nonzero" stroke-linecap="square" stroke-linejoin="bevel"/></g></svg>