<svg width="100" height="38.292" viewBox="0 0 26.458 10.131" xmlns="http://www.w3.org/2000/svg"><g transform="translate(0 -286.87)"><ellipse cx="1.718" cy="289.56" rx="1.321" ry="1.322" fill="none" stroke-linecap="square" stroke-linejoin="bevel" stroke-width=".794" stroke="#ff9100"/><path d="M21.02 289.72c.01 2.42 2.674 5.611 2.674 5.611 2.418-2.948 2.857-4.83 2.748-5.941a2.712 2.712 0 0 0-2.704-2.526c-1.429 0-2.593 1.124-2.7 2.526m2.697-1.245a1.457 1.457 0 1 1-.002 2.914 1.457 1.457 0 0 1 .002-2.914" fill="#ff9100"/><ellipse cx="8.695" cy="289.56" rx="1.321" ry="1.322" fill="none" stroke-linecap="square" stroke-linejoin="bevel" stroke-width=".794" stroke="#ff9100"/><ellipse cx="15.673" cy="289.56" rx="1.321" ry="1.322" fill="none" stroke-linecap="square" stroke-linejoin="bevel" stroke-width=".794" stroke="#ff9100"/><path d="M3.36 289.57l3.664-.023M10.346 289.57l3.663-.023M17.358 289.57l3.686-.023" fill="none" stroke-width=".397" stroke="#000"/><path d="M26.458 296.5c0 .274-1.217.497-2.719.497s-2.72-.223-2.72-.497 1.218-.497 2.72-.497 2.719.222 2.719.497" fill-rule="nonzero" fill="#ccc" stroke-linecap="square" stroke-linejoin="bevel"/></g></svg>