<svg width="25" height="40" viewBox="0 0 6.6146 10.583" xmlns="http://www.w3.org/2000/svg"><g fill="#fff"><path d="M3.117 10.398c-.253-.32-.556-.734-.827-1.128C1.102 7.54.358 5.966.094 4.618.038 4.33.031 4.242.03 3.778c0-.59.029-.808.163-1.209.167-.498.434-.928.815-1.309A3.255 3.255 0 0 1 2.743.347 3.995 3.995 0 0 1 3.891.35C5.274.615 6.297 1.66 6.553 3.069c.055.302.054 1.024-.001 1.37-.269 1.665-1.267 3.575-3.022 5.782a3.19 3.19 0 0 1-.277.324.748.748 0 0 1-.136-.147zm.69-5.073c.772-.243 1.265-.905 1.268-1.703a1.732 1.732 0 0 0-.378-1.107 1.73 1.73 0 0 0-1.385-.67c-.326 0-.52.045-.815.19-.19.093-.258.144-.437.324-.243.244-.341.397-.444.692-.1.287-.118.68-.043.976.174.688.67 1.176 1.36 1.335.211.049.663.03.875-.037z"/><path d="M1.205 1.77h4.276v3.898H1.205z"/></g><path d="M0 3.76c.012 2.941 3.253 6.823 3.253 6.823C6.194 6.997 6.73 4.708 6.596 3.359A3.298 3.298 0 0 0 3.306.287C1.57.287.153 1.655.021 3.36m3.281-1.515a1.773 1.773 0 1 1 0 3.546 1.773 1.773 0 0 1 0-3.546" fill="#ff9100"/></svg>