<svg width="361.41mm" height="307.72mm" viewBox="0 0 361.41 307.72" xmlns="http://www.w3.org/2000/svg"><g transform="translate(124.77 88.936)"><path d="M-54.954 60.024h-13.31a4.984 4.984 0 0 0-4.991 4.991v26.619a4.984 4.984 0 0 0 4.991 4.991h13.31a4.984 4.984 0 0 0 4.991-4.991V65.015a4.984 4.984 0 0 0-4.991-4.991zm-3.327 33.274h-6.655v-1.664h6.655zm5.407-4.991h-17.47V65.015h17.47z"/><g transform="translate(-18.388 -24.547) scale(2.3334)" stroke-width=".429"><path d="M32.337 44.936c.01 2.507 2.773 5.814 2.773 5.814 2.506-3.055 2.962-5.006 2.849-6.156a2.811 2.811 0 0 0-2.804-2.618c-1.481 0-2.688 1.166-2.8 2.618m2.796-1.29a1.51 1.51 0 1 1 0 3.02 1.51 1.51 0 0 1 0-3.02" fill="#ff9100"/><path d="M37.975 51.96c0 .285-1.262.515-2.819.515s-2.819-.23-2.819-.515 1.262-.515 2.82-.515 2.818.23 2.818.515" fill-rule="nonzero" fill="#ccc" stroke-linecap="square" stroke-linejoin="bevel"/><ellipse transform="scale(-1 1)" cx="-34.001" cy="37.456" rx="1.37" ry="1.37" fill="none" stroke-linecap="square" stroke-linejoin="bevel" stroke-width=".794" stroke="#ff9100"/><ellipse cx="26.793" cy="37.456" rx="1.37" ry="1.37" fill="none" stroke-linecap="square" stroke-linejoin="bevel" stroke-width=".794" stroke="#ff9100"/><ellipse cx="26.793" cy="44.765" rx="1.37" ry="1.37" fill="none" stroke-linecap="square" stroke-linejoin="bevel" stroke-width=".794" stroke="#ff9100"/><path d="M32.298 37.468l-3.797-.024M26.805 43.009l-.024-3.797M28.54 44.776l3.821-.024" fill="none" stroke-width=".227" stroke="#000"/></g><path d="M52.89 184.608c1.83 0 3.31-1.497 3.31-3.327l.017-16.637a3.337 3.337 0 0 0-3.327-3.328H26.27a3.337 3.337 0 0 0-3.326 3.328v16.637a3.337 3.337 0 0 0 3.327 3.327h-6.655v3.327h39.928v-3.327zm-26.619-19.964H52.89v16.637H26.271zM86.46 156.328H73.151a4.16 4.16 0 0 0-4.16 4.16v28.282a4.16 4.16 0 0 0 4.16 4.16H86.46a4.16 4.16 0 0 0 4.16-4.16v-28.283a4.16 4.16 0 0 0-4.16-4.159zm-6.655 34.937c-1.38 0-2.495-1.115-2.495-2.495s1.114-2.496 2.495-2.496 2.496 1.115 2.496 2.496-1.115 2.495-2.496 2.495zm7.487-6.655H72.319v-23.292h14.973z"/><ellipse cx="-61.609" cy="19.147" rx="5.914" ry="5.913" fill="none" stroke-linecap="square" stroke-linejoin="bevel" stroke-width="4" stroke="#ff9100"/><g stroke-width=".418"><path d="M165.09 11.35c.025 6 6.635 13.915 6.635 13.915 5.997-7.312 7.088-11.98 6.817-14.733a6.727 6.727 0 0 0-6.71-6.264c-3.543 0-6.431 2.788-6.699 6.264m6.692-3.089a3.615 3.615 0 1 1-.001 7.23 3.615 3.615 0 0 1 0-7.23" fill="#ff9100"/><path d="M178.582 28.16c0 .68-3.02 1.233-6.746 1.233s-6.746-.552-6.746-1.233 3.02-1.232 6.746-1.232 6.746.551 6.746 1.232" fill-rule="nonzero" fill="#ccc" stroke-linecap="square" stroke-linejoin="bevel"/></g><ellipse cx="55.115" cy="-81.023" rx="5.914" ry="5.913" fill="none" stroke-linecap="square" stroke-linejoin="bevel" stroke-width="4" stroke="#ff9100"/><path d="M20.127 216.83c.072.144.029.258-.13.258h-1.305c-.13 0-.2-.057-.244-.158l-.89-1.865h-6.185l-.875 1.865c-.057.101-.13.158-.244.158h-1.32c-.144 0-.215-.114-.158-.258l5.41-11.164c.043-.1.115-.13.187-.13h.186c.072 0 .13.03.187.13l5.381 11.164m-8.05-3.243h4.778l-2.382-5.08-2.397 5.08m14.983-7.979c3.817 0 5.87 2.957 5.87 5.683 0 3-2.067 5.798-5.855 5.798h-3.846a.234.234 0 0 1-.244-.244v-11.007c0-.13.086-.23.23-.23h3.845m.043 9.916c2.655 0 4.176-2.08 4.162-4.247 0-2.124-1.464-4.105-4.162-4.105h-2.511l.014 8.352h2.497m22-9.916c.13 0 .23.1.23.244v10.992c0 .13-.086.244-.23.244H47.97c-.158 0-.244-.1-.244-.244v-7.907l-4.679 7.649c-.072.115-.143.172-.258.172h-.072c-.115 0-.186-.057-.258-.172l-4.664-7.649v7.907c0 .13-.1.244-.244.244h-1.134a.234.234 0 0 1-.244-.244v-11.007c0-.129.086-.23.23-.23h.975c.13 0 .216.044.287.158l5.095 8.324 5.094-8.324c.057-.114.143-.157.287-.157h.961m5.168 0h-1.105c-.143 0-.23.1-.23.23v11.006c0 .144.101.244.245.244h1.105c.129 0 .215-.115.215-.244v-11.007c0-.129-.1-.23-.23-.23m13.506 0c.129 0 .23.101.23.216v11.05a.211.211 0 0 1-.216.215h-.402c-.301 0-.617-.215-1.019-.66l-6.658-7.649v8.065c0 .13-.1.23-.23.23l-1.133.014a.234.234 0 0 1-.244-.244v-11.007c0-.129.1-.23.23-.23h.674c.129 0 .215.058.33.187l7.06 8.237v-8.208c0-.115.086-.215.215-.215h1.163m18.4 0c.143 0 .244.1.244.23v11.006c0 .158-.086.244-.216.244h-.846c-.36 0-.56-.244-.56-.574v-4.248h-6.314v4.578c0 .13-.1.244-.23.244h-1.148a.234.234 0 0 1-.244-.244v-11.007c0-.13.086-.23.23-.23h1.148c.143 0 .244.1.244.23v4.808h6.314v-4.808c0-.13.086-.23.23-.23h1.148m14.51 12.14c.171.144.1.33-.015.402l-.86.531c-.302.187-.618.115-.79-.172l-1.076-1.794a6.012 6.012 0 0 1-2.325.474c-3.257 0-5.883-2.569-5.883-5.855 0-3.243 2.626-5.826 5.883-5.826 3.229 0 5.855 2.583 5.855 5.826 0 1.837-.818 3.458-2.123 4.52l.545.904c.358.56.574.804.789.99m-9.328-6.414a4.296 4.296 0 0 0 3.473 4.205l-.072-.015a1.423 1.423 0 0 1-.603-1.19c0-.962.79-1.751 1.88-1.751.775 0 1.377.3 1.966 1.105.173.243.33.502.502.774a4.323 4.323 0 0 0 1.364-3.128c0-2.325-1.937-4.262-4.248-4.262-2.325 0-4.262 1.937-4.262 4.262m4.262 4.29c.517 0 1.019-.1 1.479-.272l-.287-.488c-.302-.488-.632-.689-1.106-.689-.445 0-.804.374-.804.833 0 .215.115.445.36.602.114.015.243.015.358.015M117.11 45.579c.114.1.114.23-.014.359-1.062 1.12-2.511 1.794-4.233 1.794-3.186 0-5.827-2.555-5.827-5.812 0-3.258 2.64-5.87 5.827-5.87 1.693 0 3.185.675 4.262 1.809.128.129.128.258.014.344l-.919.746c-.115.1-.215.1-.33-.014-.617-.646-1.679-1.32-2.97-1.32-2.583 0-4.262 2.152-4.262 4.305 0 2.166 1.679 4.247 4.262 4.247 1.277 0 2.31-.646 2.927-1.277.115-.13.23-.143.344-.057l.919.746m12.543-9.428c.143 0 .244.1.244.23v11.007c0 .158-.086.243-.215.243h-.847c-.359 0-.56-.243-.56-.573V42.81h-6.314v4.578c0 .129-.1.244-.23.244h-1.147a.234.234 0 0 1-.244-.244V36.38c0-.13.086-.23.23-.23h1.147c.143 0 .244.1.244.23v4.807h6.314v-4.807c0-.13.086-.23.23-.23h1.148m11.094 1.564h-5.696v3.501h3.3c.143 0 .244.1.244.244v1.076c0 .158-.1.245-.244.245h-3.3l.014 3.286h5.683c.143 0 .243.1.243.244v1.076c0 .143-.1.244-.244.244h-7.074a.234.234 0 0 1-.244-.244V36.38c0-.13.086-.23.23-.23h7.089c.143 0 .244.1.244.23v1.105c0 .143-.1.23-.244.23m13.232 7.864c.115.1.115.23-.014.358-1.062 1.12-2.512 1.794-4.234 1.794-3.185 0-5.826-2.554-5.826-5.811s2.641-5.87 5.826-5.87c1.693 0 3.186.675 4.262 1.808.13.13.13.259.014.345l-.918.746c-.115.1-.215.1-.33-.015-.617-.645-1.68-1.32-2.97-1.32-2.584 0-4.263 2.153-4.263 4.305 0 2.167 1.68 4.248 4.262 4.248 1.277 0 2.31-.646 2.928-1.277.114-.13.23-.144.344-.058l.918.747m11.754 1.52c.216.23.101.532-.215.532h-1.205c-.13 0-.2-.029-.302-.129l-5.367-5.654v5.553c0 .13-.1.23-.23.23h-1.162c-.13 0-.229-.1-.229-.23V37.212a5.261 5.261 0 0 0-.086-.774c-.029-.158.014-.287.158-.287h.99c.345 0 .56.2.56.516v4.793l4.736-5.18a.34.34 0 0 1 .287-.13h1.234c.287 0 .387.302.215.488l-4.606 5.023 5.223 5.439m7.478-10.95c2.496 0 3.932 2.11 3.932 3.846 0 1.837-1.435 3.875-3.932 3.875h-2.856v3.516c0 .158-.086.244-.23.244h-1.162c-.143 0-.23-.086-.23-.244V36.38c0-.13.086-.23.23-.23h4.248m-.129 6.156c1.578 0 2.454-1.162 2.454-2.31 0-1.134-.876-2.282-2.454-2.282h-2.726v4.592h2.726m12.615 5.425a5.824 5.824 0 0 0 5.855-5.855c0-3.243-2.627-5.826-5.855-5.826-3.258 0-5.884 2.583-5.884 5.826 0 3.286 2.626 5.855 5.884 5.855m0-1.564c-2.325 0-4.262-1.938-4.262-4.291 0-2.325 1.937-4.262 4.262-4.262 2.31 0 4.248 1.937 4.248 4.262 0 2.353-1.938 4.29-4.248 4.29m10.577-10.015h-1.105c-.144 0-.23.1-.23.23v11.006c0 .144.1.244.244.244h1.105c.13 0 .215-.115.215-.244V36.38c0-.129-.1-.23-.229-.23m13.505 0c.13 0 .23.101.23.216v11.05a.211.211 0 0 1-.216.215h-.4c-.302 0-.618-.215-1.02-.66l-6.659-7.648v8.064c0 .13-.1.23-.229.23l-1.134.014a.234.234 0 0 1-.244-.244V36.38c0-.129.1-.23.23-.23h.674c.13 0 .215.058.33.187l7.06 8.237v-8.208c0-.115.086-.215.216-.215h1.162m12.112 0c.13 0 .23.086.23.229v1.105c0 .13-.101.23-.23.23h-3.459v9.672c0 .158-.086.244-.23.244h-.831c-.374 0-.56-.244-.56-.574v-9.342h-3.459c-.128 0-.244-.086-.244-.23v-1.09c0-.144.101-.244.244-.244h8.539m7.923.43h6.271c.159 0 .23.086.23.23v1.133a.563.563 0 0 1-.158.416l-2.727 2.87c.489 0 .976.144 1.378.36 1.105.444 1.837 1.62 1.837 2.855 0 1.88-1.737 3.329-3.602 3.329-1.622 0-2.798-.689-3.803-1.98-.086-.115-.1-.216.014-.316l.79-.746c.114-.115.2-.1.315.028.56.732 1.55 1.45 2.597 1.45 1.378 0 2.024-1.062 2.024-1.938 0-.89-.646-1.75-1.693-1.75-.446 0-.847.215-1.192.301-.086.014-.157-.029-.229-.1l-.617-.818c-.072-.115-.086-.216.014-.33l3.2-3.43h-4.65c-.128 0-.258-.1-.258-.23v-1.09c0-.144.115-.244.258-.244M-114.69 45.6c.114.1.114.23-.014.359-1.062 1.12-2.511 1.794-4.233 1.794-3.186 0-5.827-2.555-5.827-5.812 0-3.258 2.64-5.87 5.827-5.87 1.693 0 3.185.675 4.262 1.809.128.129.128.258.014.344l-.919.746c-.115.1-.215.1-.33-.014-.617-.646-1.679-1.32-2.97-1.32-2.583 0-4.262 2.152-4.262 4.305 0 2.166 1.679 4.247 4.262 4.247 1.277 0 2.31-.646 2.927-1.277.115-.13.23-.143.344-.057l.919.746m12.543-9.428c.143 0 .244.1.244.23v11.007c0 .158-.086.243-.215.243h-.847c-.359 0-.56-.243-.56-.573V42.83h-6.314v4.578c0 .129-.1.244-.23.244h-1.148a.234.234 0 0 1-.243-.244V36.402c0-.13.086-.23.23-.23h1.147c.143 0 .244.1.244.23v4.807h6.314v-4.807c0-.13.086-.23.23-.23h1.148m11.094 1.564h-5.696v3.501h3.3c.143 0 .244.1.244.244v1.077c0 .157-.101.244-.244.244h-3.3l.014 3.286h5.682c.144 0 .244.1.244.244v1.076c0 .144-.1.244-.244.244h-7.074a.234.234 0 0 1-.244-.244V36.401c0-.13.086-.23.23-.23h7.089c.143 0 .244.1.244.23v1.105c0 .144-.1.23-.244.23M-77.82 45.6c.115.1.115.23-.014.359-1.062 1.119-2.512 1.793-4.234 1.793-3.185 0-5.826-2.554-5.826-5.811 0-3.258 2.641-5.87 5.826-5.87 1.694 0 3.186.675 4.262 1.808.13.13.13.259.014.345l-.918.746c-.115.1-.215.1-.33-.014-.617-.646-1.68-1.32-2.97-1.32-2.584 0-4.263 2.152-4.263 4.304 0 2.167 1.68 4.248 4.262 4.248 1.277 0 2.311-.646 2.928-1.277.115-.13.23-.144.344-.058l.919.747m11.754 1.52c.216.23.1.532-.215.532h-1.206c-.13 0-.2-.028-.301-.129l-5.367-5.654v5.554c0 .129-.101.23-.23.23h-1.162c-.13 0-.23-.101-.23-.23v-10.19a5.261 5.261 0 0 0-.086-.774c-.029-.158.014-.287.158-.287h.99c.345 0 .56.2.56.516v4.793l4.736-5.18a.34.34 0 0 1 .287-.13h1.234c.287 0 .388.302.215.488l-4.606 5.023 5.223 5.439m7.478-10.95c2.497 0 3.932 2.11 3.932 3.847 0 1.836-1.434 3.874-3.932 3.874h-2.856v3.516c0 .158-.085.244-.23.244h-1.162c-.143 0-.23-.086-.23-.244V36.401c0-.129.087-.23.23-.23h4.248m-.129 6.157c1.578 0 2.454-1.163 2.454-2.31 0-1.135-.876-2.283-2.454-2.283h-2.726v4.593h2.726m12.615 5.424a5.824 5.824 0 0 0 5.855-5.855c0-3.243-2.627-5.826-5.855-5.826-3.258 0-5.884 2.583-5.884 5.826 0 3.286 2.626 5.855 5.884 5.855m0-1.564c-2.325 0-4.262-1.937-4.262-4.29 0-2.325 1.937-4.263 4.262-4.263 2.31 0 4.248 1.938 4.248 4.262 0 2.354-1.938 4.29-4.248 4.29m10.577-10.015h-1.105c-.144 0-.23.1-.23.23v11.006c0 .144.1.244.245.244h1.105c.129 0 .215-.114.215-.244V36.401c0-.129-.1-.23-.23-.23m13.505 0c.13 0 .23.101.23.216v11.05a.211.211 0 0 1-.216.216h-.4c-.302 0-.618-.216-1.02-.66l-6.658-7.65v8.066c0 .129-.101.23-.23.23l-1.134.013a.234.234 0 0 1-.244-.244V36.401c0-.129.1-.23.23-.23h.674c.13 0 .215.058.33.187l7.06 8.237v-8.208c0-.115.087-.215.216-.215h1.162m12.112 0c.13 0 .23.086.23.23v1.104c0 .13-.101.23-.23.23h-3.459v9.672c0 .158-.085.244-.229.244h-.832c-.374 0-.56-.244-.56-.574v-9.342h-3.459c-.128 0-.243-.086-.243-.23v-1.09c0-.144.1-.244.243-.244h8.54m11.21.43c.13 0 .244.1.244.23v10.576c0 .144-.1.244-.244.244H.17a.234.234 0 0 1-.243-.244V39.2l-1.364.33c-.143.029-.229-.029-.258-.172l-.13-.818c-.013-.144.015-.215.188-.258.703-.244 1.305-.976 1.693-1.536l.014-.043c.042-.072.114-.1.215-.1h1.019M.196-51.007c.115.1.115.23-.014.359-1.061 1.12-2.51 1.794-4.233 1.794-3.186 0-5.827-2.555-5.827-5.812 0-3.258 2.641-5.87 5.827-5.87 1.693 0 3.185.675 4.262 1.809.129.129.129.258.014.344l-.919.746c-.115.1-.215.1-.33-.014-.617-.646-1.679-1.32-2.97-1.32-2.583 0-4.262 2.152-4.262 4.305 0 2.166 1.679 4.247 4.262 4.247 1.277 0 2.31-.646 2.927-1.277.115-.13.23-.143.345-.057l.918.746m12.543-9.428c.143 0 .244.1.244.23v11.007c0 .158-.086.243-.215.243h-.847c-.359 0-.56-.243-.56-.573v-4.248H5.048v4.578c0 .129-.1.244-.23.244H3.67a.234.234 0 0 1-.244-.244v-11.007c0-.13.086-.23.23-.23h1.147c.144 0 .244.1.244.23v4.807h6.315v-4.807c0-.13.086-.23.23-.23h1.147m11.094 1.564h-5.696v3.501h3.3c.143 0 .244.1.244.244v1.077c0 .157-.1.244-.244.244h-3.3l.014 3.286h5.683c.144 0 .244.1.244.244v1.076c0 .143-.1.244-.244.244h-7.075a.234.234 0 0 1-.244-.244v-11.007c0-.13.086-.23.23-.23h7.089c.144 0 .244.1.244.23v1.105c0 .143-.1.23-.244.23m13.232 7.864c.115.1.115.23-.014.358-1.062 1.12-2.511 1.794-4.234 1.794-3.185 0-5.825-2.554-5.825-5.811 0-3.258 2.64-5.87 5.825-5.87 1.694 0 3.186.675 4.263 1.808.13.13.13.259.014.345l-.919.746c-.114.1-.215.1-.33-.015-.617-.645-1.68-1.32-2.97-1.32-2.584 0-4.263 2.153-4.263 4.305 0 2.167 1.68 4.248 4.263 4.248 1.276 0 2.31-.646 2.927-1.277.115-.13.23-.144.344-.058l.919.747m11.754 1.52c.216.23.1.532-.215.532h-1.206c-.13 0-.2-.029-.301-.129l-5.367-5.654v5.553c0 .13-.101.23-.23.23H40.34c-.13 0-.23-.1-.23-.23v-10.189a5.261 5.261 0 0 0-.086-.774c-.029-.158.014-.287.159-.287h.99c.344 0 .559.2.559.516v4.793l4.736-5.18a.34.34 0 0 1 .287-.13h1.234c.287 0 .388.302.215.488l-4.606 5.023 5.223 5.439m7.478-10.95c2.497 0 3.932 2.11 3.932 3.846 0 1.837-1.434 3.875-3.932 3.875h-2.856v3.516c0 .158-.085.244-.23.244H52.05c-.143 0-.23-.086-.23-.244v-11.007c0-.13.087-.23.23-.23h4.248m-.129 6.156c1.578 0 2.454-1.162 2.454-2.31 0-1.134-.876-2.282-2.454-2.282h-2.726v4.592h2.726m12.615 5.425a5.824 5.824 0 0 0 5.855-5.855c0-3.243-2.626-5.826-5.855-5.826-3.258 0-5.884 2.583-5.884 5.826 0 3.286 2.626 5.855 5.884 5.855m0-1.564c-2.325 0-4.262-1.938-4.262-4.291 0-2.325 1.937-4.262 4.262-4.262 2.31 0 4.248 1.937 4.248 4.262 0 2.353-1.938 4.29-4.248 4.29m10.577-10.015h-1.105c-.144 0-.229.1-.229.23V-49.2c0 .144.1.244.244.244h1.105c.13 0 .215-.115.215-.244v-11.007c0-.129-.1-.23-.23-.23m13.505 0c.13 0 .23.101.23.216v11.05a.211.211 0 0 1-.215.215h-.402c-.301 0-.617-.215-1.019-.66l-6.658-7.648v8.064c0 .13-.101.23-.23.23l-1.133.014a.234.234 0 0 1-.245-.244v-11.007c0-.129.1-.23.23-.23h.674c.13 0 .215.058.33.187l7.06 8.237v-8.208c0-.115.087-.215.216-.215h1.162m12.112 0c.13 0 .23.086.23.229v1.105c0 .13-.101.23-.23.23h-3.458v9.672c0 .158-.085.244-.23.244h-.832c-.373 0-.56-.244-.56-.574v-9.342H96.44c-.129 0-.244-.086-.244-.23v-1.09c0-.144.1-.244.244-.244h8.538m14.912 9.915c.144 0 .216.072.216.23v1.105c0 .13-.287.23-.416.23h-6.43a.25.25 0 0 1-.243-.23v-.387l4.233-4.98c.674-.76 1.234-1.507 1.234-2.397 0-.975-.903-1.736-2.023-1.736-1.133 0-1.866.646-2.469 1.363-.07.115-.23.115-.329 0l-.66-.703c-.086-.1-.101-.244-.014-.344a4.269 4.269 0 0 1 3.558-1.866c1.837 0 3.545 1.35 3.545 3.272 0 .818-.316 1.708-1.034 2.554l-3.358 3.89h4.19M178.49 60.024h-13.31a4.984 4.984 0 0 0-4.991 4.991v26.619a4.984 4.984 0 0 0 4.991 4.991h13.31a4.984 4.984 0 0 0 4.991-4.991V65.015a4.984 4.984 0 0 0-4.991-4.991zm-3.327 33.274h-6.655v-1.664h6.655zm5.407-4.991H163.1V65.015h17.47zM61.77-36.281H48.46a4.16 4.16 0 0 0-4.16 4.16V-3.84a4.16 4.16 0 0 0 4.16 4.16h13.31a4.16 4.16 0 0 0 4.16-4.16v-28.283a4.16 4.16 0 0 0-4.16-4.159zM55.115-1.344A2.492 2.492 0 0 1 52.62-3.84a2.492 2.492 0 0 1 2.495-2.495 2.492 2.492 0 0 1 2.496 2.495 2.492 2.492 0 0 1-2.496 2.496zm7.487-6.655H47.629V-31.29h14.973z"/><path d="M-1301.8 320.38v-4.991h11.662v-3.328h-11.662v-4.99l-6.638 6.654zM-1311.7 322.04h-11.662v3.327h11.662v4.992l6.638-6.655-6.638-6.655z" clip-path="url(#b)" transform="translate(1421.9 -240.39)"/><path d="M-1301.8 320.38v-4.991h11.662v-3.328h-11.662v-4.99l-6.638 6.654zM-1311.7 322.04h-11.662v3.327h11.662v4.992l6.638-6.655-6.638-6.655z" clip-path="url(#b)" transform="translate(1301.8 -240.39)"/><path d="M56.779 122.15h-4.991v-11.662H48.46v11.662H43.47l6.654 6.638zM58.442 132.09v11.662h3.327V132.09h4.991l-6.654-6.638-6.655 6.638z" clip-path="url(#b)"/><g><path d="M-1301.8 320.38v-4.991h11.662v-3.328h-11.662v-4.99l-6.638 6.654zM-1311.7 322.04h-11.662v3.327h11.662v4.992l6.638-6.655-6.638-6.655z" clip-path="url(#b)" transform="rotate(90 -481.22 855.05)"/></g></g></svg>