<svg width="309" height="230"><defs id="SvgjsDefs5866"></defs><g id="main_text" rel="mainfill" name="main_text" feature="main_text" xmlns:name="mainText_mainfill" groupname="main_text" fill="#000000" transform="translate(-1.729878838364647, 152.919344623253) scale(2.2177941417686853)"><path d="M9 7.859999999999999 c-0.36 -0.06 -0.6 -0.34 -0.6 -0.7 l0 -1.46 c0 -0.2 0.08 -0.4 0.24 -0.52 c0.16 -0.14 0.36 -0.2 0.56 -0.18 c1.14 0.18 2.16 0.58 3.06 1.22 c1.14 0.82 1.98 1.94 2.46 3.34 c0.08 0.22 0.04 0.46 -0.08 0.64 c-0.14 0.2 -0.36 0.3 -0.58 0.3 l-1.6 0 c-0.28 0 -0.54 -0.16 -0.66 -0.42 c-0.3 -0.7 -0.74 -1.24 -1.34 -1.66 c-0.44 -0.28 -0.92 -0.48 -1.46 -0.56 z M14.06 14.5 c0.22 0 0.44 0.1 0.58 0.3 c0.12 0.18 0.16 0.42 0.08 0.64 c-0.48 1.4 -1.32 2.52 -2.46 3.34 c-0.9 0.64 -1.92 1.04 -3.06 1.22 l-0.1 0 c-0.18 0 -0.34 -0.06 -0.46 -0.18 c-0.16 -0.12 -0.24 -0.32 -0.24 -0.52 l0 -1.46 c0 -0.36 0.24 -0.64 0.58 -0.7 c0.56 -0.08 1.04 -0.26 1.48 -0.56 c0.6 -0.42 1.04 -0.96 1.34 -1.66 c0.12 -0.26 0.38 -0.42 0.66 -0.42 l1.6 0 z M6.9 5.24 c0.16 0.12 0.26 0.32 0.26 0.54 l0 1.56 c0 0.3 -0.22 0.58 -0.52 0.68 c-0.16 0.04 -0.3 0.08 -0.44 0.14 c-0.54 0.24 -0.98 0.56 -1.36 0.98 c-0.76 0.86 -1.14 1.96 -1.14 3.36 s0.38 2.5 1.14 3.36 c0.48 0.54 1.06 0.9 1.8 1.12 c0.3 0.08 0.52 0.36 0.52 0.66 l0 1.58 c0 0.22 -0.1 0.42 -0.26 0.54 c-0.14 0.12 -0.3 0.16 -0.46 0.16 l-0.14 0 c-1.42 -0.3 -2.64 -1 -3.62 -2.08 c-1.26 -1.42 -1.9 -3.2 -1.9 -5.34 c0 -2.12 0.64 -3.92 1.9 -5.34 c0.98 -1.08 2.2 -1.78 3.62 -2.06 c0.22 -0.06 0.42 0 0.6 0.14 z M17.72 10.12 c-0.38 0 -0.7 -0.32 -0.7 -0.7 l0 -3.72 c0 -0.38 0.32 -0.7 0.7 -0.7 l1.52 0 c0.4 0 0.7 0.32 0.7 0.7 l0 3.72 c0 0.38 -0.3 0.7 -0.7 0.7 l-1.52 0 z M28.58 5 c0.38 0 0.7 0.32 0.7 0.7 l0 13.44 c0 0.38 -0.32 0.7 -0.7 0.7 l-1.52 0 c-0.4 0 -0.7 -0.32 -0.7 -0.7 l0 -5.28 l-6.42 0 l0 5.28 c0 0.38 -0.3 0.7 -0.7 0.7 l-1.52 0 c-0.38 0 -0.7 -0.32 -0.7 -0.7 l0 -7.48 c0 -0.38 0.32 -0.7 0.7 -0.7 l8.64 0 l0 -5.26 c0 -0.38 0.3 -0.7 0.7 -0.7 l1.52 0 z M43.099999999999994 16.96 c0.4 0 0.7 0.32 0.7 0.72 l0 1.46 c0 0.38 -0.3 0.7 -0.7 0.7 l-9.88 0 c-0.38 0 -0.7 -0.32 -0.7 -0.7 l0 -1.46 c0 -0.4 0.32 -0.72 0.7 -0.72 l9.88 0 z M33.22 13.86 c-0.38 0 -0.7 -0.32 -0.7 -0.7 l0 -1.5 c0 -0.38 0.32 -0.7 0.7 -0.7 l8.98 0 c0.4 0 0.72 0.32 0.72 0.7 l0 1.5 c0 0.38 -0.32 0.7 -0.72 0.7 l-8.98 0 z M43.099999999999994 5 c0.4 0 0.7 0.32 0.7 0.7 l0 1.46 c0 0.4 -0.3 0.72 -0.7 0.72 l-9.88 0 c-0.38 0 -0.7 -0.32 -0.7 -0.72 l0 -1.46 c0 -0.38 0.32 -0.7 0.7 -0.7 l9.88 0 z M53.6 7.859999999999999 c-0.36 -0.06 -0.6 -0.34 -0.6 -0.7 l0 -1.46 c0 -0.2 0.08 -0.4 0.24 -0.52 c0.16 -0.14 0.36 -0.2 0.56 -0.18 c1.14 0.18 2.16 0.58 3.06 1.22 c1.14 0.82 1.98 1.94 2.46 3.34 c0.08 0.22 0.04 0.46 -0.08 0.64 c-0.14 0.2 -0.36 0.3 -0.58 0.3 l-1.6 0 c-0.28 0 -0.54 -0.16 -0.66 -0.42 c-0.3 -0.7 -0.74 -1.24 -1.34 -1.66 c-0.44 -0.28 -0.92 -0.48 -1.46 -0.56 z M58.660000000000004 14.5 c0.22 0 0.44 0.1 0.58 0.3 c0.12 0.18 0.16 0.42 0.08 0.64 c-0.48 1.4 -1.32 2.52 -2.46 3.34 c-0.9 0.64 -1.92 1.04 -3.06 1.22 l-0.1 0 c-0.18 0 -0.34 -0.06 -0.46 -0.18 c-0.16 -0.12 -0.24 -0.32 -0.24 -0.52 l0 -1.46 c0 -0.36 0.24 -0.64 0.58 -0.7 c0.56 -0.08 1.04 -0.26 1.48 -0.56 c0.6 -0.42 1.04 -0.96 1.34 -1.66 c0.12 -0.26 0.38 -0.42 0.66 -0.42 l1.6 0 z M51.5 5.24 c0.16 0.12 0.26 0.32 0.26 0.54 l0 1.56 c0 0.3 -0.22 0.58 -0.52 0.68 c-0.16 0.04 -0.3 0.08 -0.44 0.14 c-0.54 0.24 -0.98 0.56 -1.36 0.98 c-0.76 0.86 -1.14 1.96 -1.14 3.36 s0.38 2.5 1.14 3.36 c0.48 0.54 1.06 0.9 1.8 1.12 c0.3 0.08 0.52 0.36 0.52 0.66 l0 1.58 c0 0.22 -0.1 0.42 -0.26 0.54 c-0.14 0.12 -0.3 0.16 -0.46 0.16 l-0.14 0 c-1.42 -0.3 -2.64 -1 -3.62 -2.08 c-1.26 -1.42 -1.9 -3.2 -1.9 -5.34 c0 -2.12 0.64 -3.92 1.9 -5.34 c0.98 -1.08 2.2 -1.78 3.62 -2.06 c0.22 -0.06 0.42 0 0.6 0.14 z M74.32 18.7 c0.16 0.2 0.18 0.48 0.06 0.72 s-0.36 0.38 -0.62 0.38 l-1.9 0 c-0.24 0 -0.46 -0.12 -0.58 -0.3 l-4.78 -6.88 l-1.96 1.84 l0 4.64 c0 0.38 -0.32 0.7 -0.7 0.7 l-1.52 0 c-0.38 0 -0.7 -0.32 -0.7 -0.7 l0 -5.56 c0 -0.2 0.08 -0.38 0.22 -0.5 l8.36 -7.84 c0.14 -0.14 0.3 -0.2 0.48 -0.2 l2.16 0 c0.28 0 0.54 0.18 0.64 0.44 c0.12 0.28 0.04 0.58 -0.16 0.78 l-4.68 4.4 z M62.32 10.1 c-0.38 0 -0.7 -0.3 -0.7 -0.7 l0 -3.7 c0 -0.38 0.32 -0.7 0.7 -0.7 l1.52 0 c0.38 0 0.7 0.32 0.7 0.7 l0 3.7 c0 0.4 -0.32 0.7 -0.7 0.7 l-1.52 0 z M82.72 5 c1.58 0 2.88 0.46 3.84 1.36 c0.98 0.92 1.46 2.16 1.46 3.66 c0 1.52 -0.48 2.74 -1.46 3.66 c-0.96 0.9 -2.26 1.34 -3.84 1.34 l-3.82 0 l0 4.08 c0 0.38 -0.32 0.7 -0.7 0.7 l-1.52 0 c-0.38 0 -0.7 -0.32 -0.7 -0.7 l0 -6.2 c0 -0.38 0.32 -0.7 0.7 -0.7 l5.92 0 c0.88 0 1.52 -0.18 1.92 -0.58 c0.4 -0.36 0.58 -0.9 0.58 -1.6 s-0.18 -1.22 -0.58 -1.6 s-1.04 -0.58 -1.92 -0.58 l-5.92 0 c-0.38 0 -0.7 -0.32 -0.7 -0.7 l0 -1.44 c0 -0.38 0.32 -0.7 0.7 -0.7 l6.04 0 z M95.86 5.16 c0.16 0.14 0.24 0.34 0.24 0.54 l0 1.5 c0 0.34 -0.22 0.62 -0.56 0.7 c-0.86 0.18 -1.58 0.58 -2.18 1.22 c-0.82 0.86 -1.22 1.96 -1.22 3.34 c0 1.36 0.4 2.46 1.22 3.34 c0.6 0.62 1.32 1.02 2.18 1.2 c0.34 0.08 0.56 0.36 0.56 0.7 l0 1.5 c0 0.2 -0.08 0.4 -0.24 0.54 c-0.14 0.1 -0.3 0.16 -0.46 0.16 l-0.12 0 c-1.56 -0.26 -2.9 -0.98 -3.98 -2.1 c-1.38 -1.42 -2.08 -3.22 -2.08 -5.34 s0.7 -3.92 2.08 -5.36 c1.08 -1.12 2.42 -1.82 3.98 -2.08 c0.2 -0.04 0.42 0.02 0.58 0.14 z M102.14 7.1 c1.38 1.44 2.08 3.22 2.08 5.36 c0 2.12 -0.7 3.92 -2.08 5.34 c-1.08 1.12 -2.42 1.84 -3.98 2.1 l-0.12 0 c-0.16 0 -0.32 -0.06 -0.46 -0.16 c-0.16 -0.14 -0.24 -0.34 -0.24 -0.54 l0 -1.5 c0 -0.34 0.22 -0.62 0.56 -0.7 c0.86 -0.18 1.58 -0.58 2.18 -1.2 c0.82 -0.88 1.22 -1.98 1.22 -3.34 c0 -1.38 -0.4 -2.48 -1.22 -3.34 c-0.6 -0.64 -1.32 -1.04 -2.18 -1.22 c-0.34 -0.08 -0.56 -0.36 -0.56 -0.7 l0 -1.5 c0 -0.2 0.08 -0.4 0.24 -0.54 c0.16 -0.12 0.38 -0.18 0.58 -0.14 c1.56 0.26 2.9 0.96 3.98 2.08 z M108.84 10.94 c0.4 0 0.7 0.32 0.7 0.72 l0 7.48 c0 0.38 -0.3 0.7 -0.7 0.7 l-1.52 0 c-0.38 0 -0.7 -0.32 -0.7 -0.7 l0 -7.48 c0 -0.4 0.32 -0.72 0.7 -0.72 l1.52 0 z M108.84 5 c0.4 0 0.7 0.32 0.7 0.7 l0 3.7 c0 0.4 -0.3 0.72 -0.7 0.72 l-1.52 0 c-0.38 0 -0.7 -0.32 -0.7 -0.72 l0 -3.7 c0 -0.38 0.32 -0.7 0.7 -0.7 l1.52 0 z M125.03999999999999 5 c0.38 0 0.7 0.32 0.7 0.7 l0 13.4 c0 0.38 -0.32 0.7 -0.7 0.7 l-1.76 0 c-0.22 0 -0.44 -0.1 -0.58 -0.28 l-9.78 -13.4 c-0.16 -0.22 -0.18 -0.5 -0.06 -0.74 s0.36 -0.38 0.62 -0.38 l1.76 0 c0.22 0 0.44 0.1 0.56 0.28 l7.02 9.54 l0 -9.12 c0 -0.38 0.3 -0.7 0.7 -0.7 l1.52 0 z M115 14.7 c0.38 0 0.7 0.3 0.7 0.7 l0 3.7 c0 0.38 -0.32 0.7 -0.7 0.7 l-1.52 0 c-0.38 0 -0.7 -0.32 -0.7 -0.7 l0 -3.7 c0 -0.4 0.32 -0.7 0.7 -0.7 l1.52 0 z M130.4 5 c0.4 0 0.72 0.32 0.72 0.72 l0 1.46 c0 0.4 -0.32 0.72 -0.72 0.72 l-2.06 0 c-0.38 0 -0.7 -0.32 -0.7 -0.72 l0 -1.46 c0 -0.4 0.32 -0.72 0.7 -0.72 l2.06 0 z M139.34 5 c0.38 0 0.7 0.32 0.7 0.72 l0 1.46 c0 0.4 -0.32 0.72 -0.7 0.72 l-4.02 0 l0 11.36 c0 0.38 -0.32 0.7 -0.7 0.7 l-1.54 0 c-0.4 0 -0.72 -0.32 -0.72 -0.7 l0 -13.54 c0 -0.4 0.32 -0.72 0.72 -0.72 l6.26 0 z"></path></g><g id="slogan_text" rel="mainfill" name="slogan_text" feature="slogan_text" xmlns:name="sloganText_mainfill" groupname="slogan_text" fill="#000000" transform="translate(41.26059973620591, 206.98703015749692) scale(0.9700477972218274)"><path d="M11.135 10.441 c0.15254 0 0.27102 0.10169 0.27102 0.27119 l0 1.3051 c0 0.15254 -0.11864 0.27119 -0.27119 0.27119 l-4.0846 0 l0 11.424 c0 0.18644 -0.10169 0.28797 -0.27119 0.28797 l-0.98305 0 c-0.44068 0 -0.66102 -0.28797 -0.66102 -0.6778 l0 -11.034 l-4.0846 0 c-0.15254 0 -0.28814 -0.10169 -0.28814 -0.27119 l0 -1.288 c0 -0.16966 0.11864 -0.28831 0.28814 -0.28831 l10.085 0 z M27.427525423728813 23.67797 c0.11864 0.16949 0.034064 0.32203 -0.1861 0.32203 l-1.2544 0 c-0.37288 0 -0.67814 -0.33881 -0.81356 -0.5422 l-2.6441 -3.8983 l-3.3559 0 l0 4.1525 c0 0.18644 -0.10169 0.28797 -0.27119 0.28797 l-1.3729 0 c-0.16949 0 -0.27119 -0.10153 -0.27119 -0.28797 l0 -13 c0 -0.15254 0.10169 -0.27119 0.27119 -0.27119 l5.2203 0 c2.9659 0 4.5592 2.5254 4.5592 4.5592 c0 1.6949 -1.0168 3.5934 -2.9322 4.2881 z M19.173925423728814 12.288 l0 5.4237 l3.3559 0 c1.9153 0 2.8644 -1.3729 2.8644 -2.7458 c0 -1.3559 -0.9661 -2.678 -2.8644 -2.678 l-3.3559 0 z M46.41561016949153 23.69492 c0.08458 0.16966 0.033898 0.30508 -0.15254 0.30508 l-1.5424 0 c-0.15254 0 -0.23712 -0.067631 -0.28797 -0.18644 l-1.0508 -2.2034 l-7.3051 0 l-1.0339 2.2034 c-0.067797 0.11881 -0.15254 0.18644 -0.28814 0.18644 l-1.5593 0 c-0.16949 0 -0.25424 -0.13543 -0.18644 -0.30508 l6.3898 -13.186 c0.050847 -0.11864 0.13559 -0.15254 0.22034 -0.15254 l0.22017 0 c0.084746 0 0.15254 0.033898 0.22034 0.15254 z M36.90691016949153 19.8646 l5.6441 0 l-2.8136 -6 z M63.87710169491526 21.5764 c0.13559 0.11864 0.13576 0.27136 -0.016784 0.42373 c-1.2542 1.3222 -2.9661 2.1186 -5 2.1186 c-3.7627 0 -6.8814 -3.0168 -6.8814 -6.8642 s3.1186 -6.9322 6.8814 -6.9322 c2 0 3.7625 0.79661 5.0337 2.1356 c0.15254 0.15238 0.15254 0.30492 0.016949 0.40661 l-1.0847 0.88119 c-0.13559 0.11881 -0.25424 0.11881 -0.38983 -0.016784 c-0.72881 -0.76271 -1.9831 -1.5593 -3.5085 -1.5593 c-3.0508 0 -5.0339 2.5424 -5.0339 5.0847 c0 2.5593 1.9831 5.0169 5.0339 5.0169 c1.5085 0 2.7288 -0.76271 3.4576 -1.5085 c0.13559 -0.15254 0.27119 -0.16933 0.40678 -0.067797 z M80.20340677966102 23.37305 c0.25441 0.27119 0.11831 0.62746 -0.25458 0.62746 l-1.4237 0 c-0.15254 0 -0.23729 -0.033732 -0.35593 -0.15238 l-6.339 -6.678 l0 6.5593 c0 0.15238 -0.11864 0.27102 -0.27119 0.27102 l-1.3729 0 c-0.15254 0 -0.27119 -0.11864 -0.27119 -0.27102 l0 -12.034 c-0.016949 -0.38983 -0.050681 -0.62712 -0.10153 -0.91525 c-0.033898 -0.18644 0.016949 -0.33898 0.18644 -0.33898 l1.1697 0 c0.40678 0 0.66102 0.23729 0.66102 0.61017 l0 5.661 l5.5932 -6.1186 c0.084746 -0.10186 0.18644 -0.15271 0.33898 -0.15271 l1.4576 0 c0.33898 0 0.45763 0.35593 0.25424 0.5761 l-5.4407 5.9322 z   M113.60533898305086 10.441 c0.15254 0 0.27102 0.10169 0.27102 0.27119 l0 1.3051 c0 0.15254 -0.11864 0.27119 -0.27119 0.27119 l-4.0846 0 l0 11.424 c0 0.18644 -0.10169 0.28797 -0.27119 0.28797 l-0.98305 0 c-0.44068 0 -0.66102 -0.28797 -0.66102 -0.6778 l0 -11.034 l-4.0846 0 c-0.15254 0 -0.28814 -0.10169 -0.28814 -0.27119 l0 -1.288 c0 -0.16966 0.11864 -0.28831 0.28814 -0.28831 l10.085 0 z M126.67776440677967 24.11864 c3.8136 0 6.9153 -3.0337 6.9153 -6.9151 c0 -3.8305 -3.1017 -6.8814 -6.9153 -6.8814 c-3.8475 0 -6.9492 3.0508 -6.9492 6.8814 c0 3.8814 3.1017 6.9151 6.9492 6.9151 z M126.67776440677967 22.2714 c-2.7458 0 -5.0339 -2.2881 -5.0339 -5.0678 c0 -2.7456 2.2881 -5.0337 5.0339 -5.0337 c2.7288 0 5.0169 2.2881 5.0169 5.0337 c0 2.7797 -2.2881 5.0678 -5.0169 5.0678 z M151.1562033898305 17.9663 c0.20339 0 0.28847 0.10203 0.28847 0.28847 l0 3.5085 c0 0.084746 -0.050847 0.16949 -0.11864 0.23712 c-1.2542 1.3222 -2.9661 2.1186 -5 2.1186 c-3.7627 0 -6.8814 -3.0168 -6.8814 -6.8642 s3.1186 -6.9322 6.8814 -6.9322 c2 0 3.7625 0.79661 5.0337 2.1356 c0.15254 0.15238 0.15254 0.30492 0.016949 0.40661 l-1.0847 0.88119 c-0.13559 0.11881 -0.25424 0.11881 -0.38983 -0.016784 c-0.72881 -0.76271 -1.9831 -1.5593 -3.5085 -1.5593 c-3.0508 0 -5.0339 2.5424 -5.0339 5.0847 c0 2.5593 1.9831 5.0169 5.0339 5.0169 c1.322 0 2.4068 -0.57627 3.1525 -1.2203 l0 -1.2542 l-3.1017 0 c-0.18644 0 -0.28831 -0.084746 -0.28831 -0.27119 l0 -1.2544 c0 -0.20339 0.084746 -0.30508 0.27119 -0.30508 l4.7288 0 z M166.24580847457628 12.288 l-6.7288 0 l0 4.1356 l3.8983 0 c0.16949 0 0.28814 0.11864 0.28814 0.28814 l0 1.2712 c0 0.18644 -0.11864 0.28814 -0.28814 0.28814 l-3.8983 0 l0.016784 3.8814 l6.712 0 c0.16949 0 0.28814 0.11864 0.28814 0.28814 l0 1.2712 c0 0.16949 -0.11864 0.28814 -0.28814 0.28814 l-8.3559 0 c-0.16949 0 -0.28831 -0.11864 -0.28831 -0.28814 l0 -13 c0 -0.15254 0.10186 -0.27119 0.27119 -0.27119 l8.3731 0 c0.16949 0 0.28814 0.11864 0.28814 0.27119 l0 1.3051 c0 0.16949 -0.11864 0.27119 -0.28814 0.27119 z M182.79177966101696 10.441 c0.15254 0 0.27102 0.10169 0.27102 0.27119 l0 1.3051 c0 0.15254 -0.11864 0.27119 -0.27119 0.27119 l-4.0846 0 l0 11.424 c0 0.18644 -0.10169 0.28797 -0.27119 0.28797 l-0.98305 0 c-0.44068 0 -0.66102 -0.28797 -0.66102 -0.6778 l0 -11.034 l-4.0846 0 c-0.15254 0 -0.28814 -0.10169 -0.28814 -0.27119 l0 -1.288 c0 -0.16966 0.11864 -0.28831 0.28814 -0.28831 l10.085 0 z M200.16930508474576 10.441 c0.16966 0 0.28831 0.11881 0.28831 0.27136 l0 13 c0 0.18644 -0.10169 0.28797 -0.25424 0.28797 l-1 0 c-0.42373 0 -0.66102 -0.28797 -0.66102 -0.6778 l0 -5.0169 l-7.4576 0 l0 5.4068 c0 0.15254 -0.11881 0.28797 -0.27119 0.28797 l-1.3559 0 c-0.16949 0 -0.28831 -0.11864 -0.28831 -0.28814 l0 -13 c0 -0.15254 0.10186 -0.27119 0.27119 -0.27119 l1.3559 0 c0.16949 0 0.28831 0.11864 0.28831 0.27119 l0 5.678 l7.4576 0 l0 -5.678 c0 -0.15254 0.10169 -0.27119 0.27119 -0.27119 l1.3558 0 z M215.71614745762713 12.288 l-6.7288 0 l0 4.1356 l3.8983 0 c0.16949 0 0.28814 0.11864 0.28814 0.28814 l0 1.2712 c0 0.18644 -0.11864 0.28814 -0.28814 0.28814 l-3.8983 0 l0.016784 3.8814 l6.712 0 c0.16949 0 0.28814 0.11864 0.28814 0.28814 l0 1.2712 c0 0.16949 -0.11864 0.28814 -0.28814 0.28814 l-8.3559 0 c-0.16949 0 -0.28831 -0.11864 -0.28831 -0.28814 l0 -13 c0 -0.15254 0.10186 -0.27119 0.27119 -0.27119 l8.3731 0 c0.16949 0 0.28814 0.11864 0.28814 0.27119 l0 1.3051 c0 0.16949 -0.11864 0.27119 -0.28814 0.27119 z M232.31311864406783 23.67797 c0.11864 0.16949 0.034064 0.32203 -0.1861 0.32203 l-1.2544 0 c-0.37288 0 -0.67814 -0.33881 -0.81356 -0.5422 l-2.6441 -3.8983 l-3.3559 0 l0 4.1525 c0 0.18644 -0.10169 0.28797 -0.27119 0.28797 l-1.3729 0 c-0.16949 0 -0.27119 -0.10153 -0.27119 -0.28797 l0 -13 c0 -0.15254 0.10169 -0.27119 0.27119 -0.27119 l5.2203 0 c2.9659 0 4.5592 2.5254 4.5592 4.5592 c0 1.6949 -1.0168 3.5934 -2.9322 4.2881 z M224.05951864406782 12.288 l0 5.4237 l3.3559 0 c1.9153 0 2.8644 -1.3729 2.8644 -2.7458 c0 -1.3559 -0.9661 -2.678 -2.8644 -2.678 l-3.3559 0 z"></path></g><g id="SvgjsG5869" rel="mainfill" name="symbol" feature="symbol" xmlns:name="symbol_mainfill" fill="#ff9100" transform="translate(85.96814733316894, 8.243906003452299) scale(1.3787946663378763)"><g xmlns="http://www.w3.org/2000/svg"><path d="M49.9,4.9C25.3,4.9,5.1,25.1,5.1,49.7c0,24.8,20.2,44.8,44.8,44.8c24.6,0,44.8-20,44.8-44.8C94.7,25.1,74.5,4.9,49.9,4.9z    M49.9,87.5c-20.9,0-37.8-17-37.8-37.8s17-37.8,37.8-37.8s37.8,17,37.8,37.8S70.7,87.5,49.9,87.5z"></path><polygon points="45.4,56 51.7,75.2 65.7,28.8 25.2,55.4  "></polygon></g></g></svg>