<svg width="375" height="150" version="1.1" viewBox="0 0 99.219 39.688" xmlns="http://www.w3.org/2000/svg">
  <g transform="translate(0 -257.31)">
    <g transform="translate(26.175 -32.506)">
      <g transform="matrix(.14171 0 0 .14171 9.1693 322.17)" style="fill-rule:evenodd;fill:#969696;stroke-linecap:square;stroke-linejoin:bevel">
        <path d="m11.135 10.441c0.1525 0 0.271 0.1017 0.271 0.2712v1.3051c0 0.1525-0.1186 0.2712-0.2712 0.2712h-4.0846v11.424c0 0.1864-0.10169 0.2879-0.27119 0.2879h-0.98305c-0.44068 0-0.66102-0.2879-0.66102-0.6778v-11.034h-4.0846c-0.15254 0-0.28814-0.1016-0.28814-0.2711v-1.288c0-0.1697 0.11864-0.2884 0.28814-0.2884h10.085l-4e-4 -1e-4m13.849 13.237c0.1186 0.1695 0.0341 0.322-0.1861 0.322h-1.2544c-0.3729 0-0.6781-0.3388-0.8136-0.5422l-2.6441-3.8983h-3.3559v4.1525c0 0.1864-0.1016 0.288-0.2711 0.288h-1.3729c-0.1695 0-0.2712-0.1016-0.2712-0.288v-13c0-0.1525 0.1017-0.2712 0.2712-0.2712h5.2203c2.9659 0 4.5592 2.5254 4.5592 4.5592 0 1.6949-1.0168 3.5934-2.9322 4.2881l3.0508 4.3899m-8.2536-11.39v5.4237h3.3559c1.9153 0 2.8644-1.3729 2.8644-2.7458 0-1.3559-0.9661-2.678-2.8644-2.678h-3.3559v1e-4m24.798 11.407c0.0846 0.1697 0.0339 0.3051-0.1526 0.3051h-1.5424c-0.1525 0-0.2371-0.0676-0.2879-0.1864l-1.0508-2.2034h-7.3051l-1.0339 2.2034c-0.0678 0.1188-0.1526 0.1864-0.2882 0.1864h-1.5593c-0.1695 0-0.2542-0.1354-0.1864-0.3051l6.3898-13.186c0.0508-0.1186 0.1356-0.1525 0.2203-0.1525h0.2202c0.0847 0 0.1525 0.0339 0.2203 0.1525l6.356 13.186m-9.5087-3.8303h5.6441l-2.8136-6-2.8305 6m24.527 1.7118c0.1356 0.1186 0.1358 0.2714-0.0167 0.4237-1.2542 1.3222-2.9661 2.1186-5 2.1186-3.7627 0-6.8814-3.0168-6.8814-6.8642s3.1186-6.9322 6.8814-6.9322c2 0 3.7625 0.7966 5.0337 2.1356 0.1525 0.1524 0.1525 0.305 0.0169 0.4066l-1.0847 0.8812c-0.1356 0.1188-0.2542 0.1188-0.3898-0.0168-0.7288-0.7627-1.9831-1.5593-3.5085-1.5593-3.0508 0-5.0339 2.5424-5.0339 5.0847 0 2.5593 1.9831 5.0169 5.0339 5.0169 1.5085 0 2.7288-0.7627 3.4576-1.5085 0.1356-0.1525 0.2712-0.1693 0.4068-0.0677l1.0847 0.8814m13.883 1.7967c0.2544 0.2711 0.1183 0.6274-0.2546 0.6274h-1.4236c-0.1526 0-0.2373-0.0337-0.356-0.1524l-6.339-6.678v6.5593c0 0.1524-0.1186 0.2711-0.2712 0.2711h-1.3729c-0.1525 0-0.2712-0.1187-0.2712-0.2711v-12.034c-0.0169-0.3898-0.0506-0.6271-0.1015-0.9152-0.0339-0.1865 0.017-0.339 0.1865-0.339h1.1697c0.4067 0 0.661 0.2373 0.661 0.6102v5.661l5.5932-6.1186c0.0847-0.1019 0.1864-0.1527 0.339-0.1527h1.4576c0.3389 0 0.4576 0.3559 0.2542 0.5761l-5.4407 5.9322 6.1695 6.4237m26.072-12.932c0.1525 0 0.271 0.1017 0.271 0.2712v1.3051c0 0.1525-0.1186 0.2712-0.2712 0.2712h-4.0846v11.424c0 0.1864-0.1017 0.2879-0.2712 0.2879h-0.983c-0.4407 0-0.661-0.2879-0.661-0.6778v-11.034h-4.0846c-0.1526 0-0.2882-0.1016-0.2882-0.2711v-1.288c0-0.1697 0.1187-0.2884 0.2882-0.2884h10.085l-4e-4 -1e-4m10.629 13.678c3.814 0 6.915-3.0337 6.915-6.9151 0-3.8305-3.101-6.8814-6.915-6.8814-3.847 0-6.949 3.0508-6.949 6.8814 0 3.8814 3.102 6.9151 6.949 6.9151m0-1.8472c-2.746 0-5.034-2.2881-5.034-5.0678 0-2.7456 2.288-5.0337 5.034-5.0337 2.729 0 5.017 2.2881 5.017 5.0337 0 2.7797-2.288 5.0678-5.017 5.0678m22.035-4.3051c0.204 0 0.289 0.102 0.289 0.2885v3.5085c0 0.0847-0.051 0.1695-0.119 0.2371-1.254 1.3222-2.966 2.1186-5 2.1186-3.763 0-6.881-3.0168-6.881-6.8642s3.118-6.9322 6.881-6.9322c2 0 3.763 0.7966 5.034 2.1356 0.152 0.1524 0.152 0.3049 0.017 0.4066l-1.085 0.8812c-0.136 0.1188-0.254 0.1188-0.39-0.0168-0.729-0.7627-1.983-1.5593-3.508-1.5593-3.051 0-5.034 2.5424-5.034 5.0847 0 2.5593 1.983 5.0169 5.034 5.0169 1.322 0 2.406-0.5763 3.152-1.2203v-1.2542h-3.102c-0.186 0-0.288-0.0847-0.288-0.2712v-1.2544c0-0.2034 0.085-0.3051 0.271-0.3051h4.729m12.647-5.6783h-6.729v4.1356h3.898c0.17 0 0.288 0.1186 0.288 0.2881v1.2712c0 0.1865-0.118 0.2882-0.288 0.2882h-3.898l0.017 3.8814h6.712c0.169 0 0.288 0.1186 0.288 0.2881v1.2712c0 0.1695-0.119 0.2882-0.288 0.2882h-8.356c-0.17 0-0.289-0.1187-0.289-0.2882v-13c0-0.1525 0.102-0.2712 0.272-0.2712h8.373c0.169 0 0.288 0.1187 0.288 0.2712v1.3051c0 0.1695-0.119 0.2712-0.288 0.2712v-1e-4m14.102-1.847c0.153 0 0.271 0.1017 0.271 0.2712v1.3051c0 0.1525-0.118 0.2712-0.271 0.2712h-4.084v11.424c0 0.1864-0.102 0.2879-0.272 0.2879h-0.983c-0.44 0-0.661-0.2879-0.661-0.6778v-11.034h-4.084c-0.153 0-0.288-0.1016-0.288-0.2711v-1.288c0-0.1697 0.118-0.2884 0.288-0.2884h10.085l-1e-3 -1e-4m14.935 0c0.169 0 0.288 0.1188 0.288 0.2714v13c0 0.1864-0.102 0.2879-0.254 0.2879h-1c-0.424 0-0.661-0.2879-0.661-0.6778v-5.0169h-7.458v5.4068c0 0.1526-0.119 0.288-0.271 0.288h-1.356c-0.169 0-0.288-0.1186-0.288-0.2881v-13c0-0.1526 0.102-0.2712 0.271-0.2712h1.356c0.169 0 0.288 0.1186 0.288 0.2712v5.678h7.458v-5.678c0-0.1526 0.101-0.2712 0.271-0.2712h1.356v-1e-4m13.103 1.847h-6.729v4.1356h3.899c0.169 0 0.288 0.1186 0.288 0.2881v1.2712c0 0.1865-0.119 0.2882-0.288 0.2882h-3.899l0.017 3.8814h6.712c0.17 0 0.288 0.1186 0.288 0.2881v1.2712c0 0.1695-0.118 0.2882-0.288 0.2882h-8.356c-0.169 0-0.288-0.1187-0.288-0.2882v-13c0-0.1525 0.102-0.2712 0.271-0.2712h8.373c0.17 0 0.288 0.1187 0.288 0.2712v1.3051c0 0.1695-0.118 0.2712-0.288 0.2712v-1e-4m14.154 11.39c0.119 0.1695 0.034 0.322-0.186 0.322h-1.254c-0.373 0-0.679-0.3388-0.814-0.5422l-2.644-3.8983h-3.356v4.1525c0 0.1864-0.102 0.288-0.271 0.288h-1.373c-0.17 0-0.271-0.1016-0.271-0.288v-13c0-0.1525 0.101-0.2712 0.271-0.2712h5.22c2.966 0 4.559 2.5254 4.559 4.5592 0 1.6949-1.016 3.5934-2.932 4.2881l3.051 4.3899m-8.254-11.39v5.4237h3.356c1.916 0 2.865-1.3729 2.865-2.7458 0-1.3559-0.966-2.678-2.865-2.678h-3.356v1e-4" style="fill-rule:nonzero;fill:#969696"/>
      </g>
      <ellipse cx="11.319" cy="296.52" rx="1.3698" ry="1.3696" style="fill:none;stroke-linecap:square;stroke-linejoin:bevel;stroke-width:.79375;stroke:#ff9100"/>
      <path d="m31.331 296.7c0.0105 2.5068 2.7727 5.8145 2.7727 5.8145 2.5061-3.0556 2.9618-5.0061 2.8488-6.1564-0.10069-1.4622-1.3155-2.6177-2.8038-2.6177-1.4807 0-2.6876 1.1653-2.7995 2.6178m2.7962-1.2906c0.83416 0 1.5104 0.6766 1.5104 1.5104 0 0.83416-0.67624 1.5104-1.5104 1.5104s-1.5104-0.67624-1.5104-1.5104 0.67624-1.5104 1.5104-1.5104" style="fill:#ff9100"/>
      <ellipse cx="18.553" cy="296.52" rx="1.3698" ry="1.3696" style="fill:none;stroke-linecap:square;stroke-linejoin:bevel;stroke-width:.79375;stroke:#ff9100"/>
      <ellipse cx="25.786" cy="296.52" rx="1.3698" ry="1.3696" style="fill:none;stroke-linecap:square;stroke-linejoin:bevel;stroke-width:.79375;stroke:#ff9100"/>
      <path d="m13.022 296.54 3.7974-0.0236" style="fill:none;stroke-width:.39687;stroke:#000"/>
      <path d="m20.264 296.54 3.7974-0.0236" style="fill:none;stroke-width:.39687;stroke:#000"/>
      <path d="m27.533 296.54 3.8213-0.0236" style="fill:none;stroke-width:.39687;stroke:#000"/>
      <g transform="matrix(.36221 0 0 .36221 6.5117 290.11)" style="fill-rule:evenodd;fill:#ccc;stroke-linecap:square;stroke-linejoin:bevel">
        <path d="m84.087 37.562c0 0.7853-3.4846 1.422-7.783 1.422s-7.783-0.6367-7.783-1.422 3.4846-1.422 7.783-1.422 7.783 0.6367 7.783 1.422" style="fill-rule:nonzero;fill:#ccc"/>
      </g>
      <g transform="translate(-86.88 253.81)" style="stroke-width:.52917;stroke:#000">
        <g transform="matrix(.49237 0 0 .49237 61.338 54.663)" style="fill-rule:evenodd;stroke-linecap:square;stroke-linejoin:bevel;stroke-width:1.0747;stroke:#000">
          <path d="m125.04 5c0.38 0 0.7 0.32 0.7 0.7v13.4c0 0.38-0.32 0.7-0.7 0.7h-1.76c-0.22 0-0.44-0.1-0.58-0.28l-9.78-13.4c-0.16-0.22-0.18-0.5-0.06-0.74s0.36-0.38 0.62-0.38h1.76c0.22 0 0.44 0.1 0.56 0.28l7.02 9.54v-9.12c0-0.38 0.3-0.7 0.7-0.7h1.52m-9.3404 6.7796 3.9e-4 7.3204c2e-5 0.38-0.32 0.7-0.7 0.7h-1.52c-0.38 0-0.7-0.32-0.7-0.7v-3.7c0-7.382 1.9e-4 -6.8266-9.9e-4 -7.3836l2.9206 3.7632" style="fill-rule:nonzero;stroke:none"/>
        </g>
      </g>
      <path d="m-21.11 312.34c-0.17725-0.0295-0.29542-0.1674-0.29542-0.34465v-0.71886c0-0.0985 0.03939-0.19694 0.11817-0.25603 0.07878-0.0689 0.17725-0.0985 0.27572-0.0886 0.5613 0.0886 1.0635 0.28557 1.5066 0.60069 0.5613 0.40374 0.97488 0.95518 1.2112 1.6445 0.03939 0.10832 0.0197 0.22649-0.03939 0.31511-0.06893 0.0985-0.17725 0.14771-0.28557 0.14771h-0.78779c-0.13786 0-0.26588-0.0788-0.32496-0.20679-0.14771-0.34466-0.36435-0.61054-0.65977-0.81733-0.21664-0.13786-0.45298-0.23634-0.71885-0.27573m2.4914 3.2693c0.10832 0 0.21664 0.0492 0.28557 0.14771 0.05908 0.0886 0.07878 0.2068 0.03939 0.31512-0.23634 0.68931-0.64992 1.2408-1.2112 1.6445-0.44313 0.31511-0.94534 0.51206-1.5066 0.60069h-0.04924c-0.08863 0-0.1674-0.0295-0.22649-0.0886-0.07878-0.0591-0.11817-0.15756-0.11817-0.25603v-0.71885c0-0.17726 0.11817-0.31512 0.28557-0.34466 0.27572-0.0394 0.51206-0.12802 0.7287-0.27573 0.29542-0.20679 0.51206-0.47267 0.65977-0.81732 0.05908-0.12802 0.1871-0.2068 0.32496-0.2068h0.78779m-3.5253-4.5593c0.07878 0.0591 0.12802 0.15755 0.12802 0.26587v0.76809c0 0.14771-0.10832 0.28558-0.25603 0.33481-0.07878 0.0197-0.14771 0.0394-0.21664 0.0689-0.26588 0.11817-0.48252 0.27573-0.66962 0.48252-0.3742 0.42344-0.5613 0.96504-0.5613 1.6544s0.1871 1.2309 0.5613 1.6544c0.23634 0.26588 0.52191 0.44313 0.88626 0.55145 0.14771 0.0394 0.25603 0.17725 0.25603 0.32496v0.77794c0 0.10832-0.04924 0.20679-0.12802 0.26588-0.06893 0.0591-0.14771 0.0788-0.22649 0.0788h-0.06893c-0.69916-0.14771-1.2998-0.49237-1.7824-1.0241-0.62038-0.69916-0.9355-1.5756-0.9355-2.6292 0-1.0438 0.31511-1.9301 0.9355-2.6292 0.48252-0.53176 1.0832-0.87641 1.7824-1.0143 0.10832-0.0295 0.20679 0 0.29542 0.0689m5.3274 2.4027c-0.1871 0-0.34466-0.15756-0.34466-0.34465v-1.8316c0-0.18709 0.15756-0.34465 0.34466-0.34465h0.7484c0.19695 0 0.34466 0.15756 0.34466 0.34465v1.8316c0 0.18709-0.14771 0.34465-0.34466 0.34465h-0.7484m5.3471-2.5209c0.1871 0 0.34466 0.15756 0.34466 0.34465v6.6174c0 0.1871-0.15756 0.34466-0.34466 0.34466h-0.7484c-0.19695 0-0.34466-0.15756-0.34466-0.34466v-2.5997h-3.161v2.5997c0 0.1871-0.14771 0.34466-0.34466 0.34466h-0.7484c-0.1871 0-0.34466-0.15756-0.34466-0.34466v-3.6829c0-0.18709 0.15756-0.34465 0.34466-0.34465h4.254v-2.5898c0-0.18709 0.14771-0.34465 0.34466-0.34465h0.7484m7.1492 5.8887c0.19695 0 0.34466 0.15756 0.34466 0.35451v0.71885c0 0.1871-0.14771 0.34466-0.34466 0.34466h-4.8646c-0.1871 0-0.34466-0.15756-0.34466-0.34466v-0.71885c0-0.19695 0.15756-0.35451 0.34466-0.35451h4.8646m-4.8646-1.5263c-0.1871 0-0.34466-0.15756-0.34466-0.34466v-0.73855c0-0.18709 0.15756-0.34465 0.34466-0.34465h4.4214c0.19695 0 0.3545 0.15756 0.3545 0.34465v0.73855c0 0.1871-0.15756 0.34466-0.3545 0.34466h-4.4214m4.8646-4.3624c0.19695 0 0.34466 0.15756 0.34466 0.34465v0.71886c0 0.19695-0.14771 0.3545-0.34466 0.3545h-4.8646c-0.1871 0-0.34466-0.15755-0.34466-0.3545v-0.71886c0-0.18709 0.15756-0.34465 0.34466-0.34465h4.8646m5.1698 1.4082c-0.17725-0.0295-0.29542-0.1674-0.29542-0.34465v-0.71886c0-0.0985 0.039389-0.19694 0.11817-0.25603 0.078778-0.0689 0.17725-0.0985 0.27572-0.0886 0.5613 0.0886 1.0635 0.28557 1.5066 0.60069 0.5613 0.40374 0.97488 0.95518 1.2112 1.6445 0.039389 0.10832 0.019695 0.22649-0.039389 0.31511-0.068931 0.0985-0.17725 0.14771-0.28557 0.14771h-0.78778c-0.13786 0-0.26588-0.0788-0.32496-0.20679-0.14771-0.34466-0.36435-0.61054-0.65977-0.81733-0.21664-0.13786-0.45298-0.23634-0.71885-0.27573m2.4914 3.2693c0.10832 0 0.21664 0.0492 0.28557 0.14771 0.059084 0.0886 0.078778 0.2068 0.039389 0.31512-0.23634 0.68931-0.64992 1.2408-1.2112 1.6445-0.44313 0.31511-0.94534 0.51206-1.5066 0.60069h-0.049237c-0.088626 0-0.1674-0.0295-0.22649-0.0886-0.078778-0.0591-0.11817-0.15756-0.11817-0.25603v-0.71885c0-0.17726 0.11817-0.31512 0.28557-0.34466 0.27572-0.0394 0.51206-0.12802 0.7287-0.27573 0.29542-0.20679 0.51206-0.47267 0.65977-0.81732 0.059084-0.12802 0.1871-0.2068 0.32496-0.2068h0.78779m-3.5253-4.5593c0.078778 0.0591 0.12802 0.15755 0.12802 0.26587v0.76809c0 0.14771-0.10832 0.28558-0.25603 0.33481-0.078778 0.0197-0.14771 0.0394-0.21664 0.0689-0.26588 0.11817-0.48252 0.27573-0.66962 0.48252-0.3742 0.42344-0.5613 0.96504-0.5613 1.6544s0.1871 1.2309 0.5613 1.6544c0.23634 0.26588 0.52191 0.44313 0.88626 0.55145 0.14771 0.0394 0.25603 0.17725 0.25603 0.32496v0.77794c0 0.10832-0.049237 0.20679-0.12802 0.26588-0.068931 0.0591-0.14771 0.0788-0.22649 0.0788h-0.068931c-0.69916-0.14771-1.2998-0.49237-1.7824-1.0241-0.62038-0.69916-0.9355-1.5756-0.9355-2.6292 0-1.0438 0.31511-1.9301 0.9355-2.6292 0.48252-0.53176 1.0832-0.87641 1.7824-1.0143 0.10832-0.0295 0.20679 0 0.29542 0.0689m11.236 6.6272c0.07878 0.0985 0.08863 0.23634 0.02954 0.3545-0.05908 0.11817-0.17725 0.1871-0.30527 0.1871h-0.93549c-0.11817 0-0.22649-0.0591-0.28557-0.14771l-2.3535-3.3875-0.96504 0.90595v2.2846c0 0.1871-0.15756 0.34465-0.34466 0.34465h-0.7484c-0.1871 0-0.34466-0.15755-0.34466-0.34465v-2.7376c0-0.0985 0.039389-0.1871 0.10832-0.24618l4.1162-3.8602c0.068931-0.0689 0.14771-0.0985 0.23634-0.0985h1.0635c0.13786 0 0.26588 0.0886 0.31511 0.21664 0.05908 0.13786 0.01969 0.28557-0.07878 0.38405l-2.3043 2.1664 2.7966 3.9783m-5.9084-4.2344c-0.1871 0-0.34466-0.14771-0.34466-0.34465v-1.8218c0-0.18709 0.15756-0.34465 0.34466-0.34465h0.7484c0.1871 0 0.34466 0.15756 0.34466 0.34465v1.8218c0 0.19694-0.15756 0.34465-0.34466 0.34465h-0.7484m10.044-2.5111c0.77794 0 1.418 0.22649 1.8907 0.66962 0.48252 0.45297 0.71885 1.0635 0.71885 1.8021 0 0.74839-0.23634 1.3491-0.71885 1.802-0.47267 0.44313-1.1127 0.65977-1.8907 0.65977h-1.8808v2.0089c0 0.1871-0.15756 0.34465-0.34466 0.34465h-0.7484c-0.1871 0-0.34466-0.15755-0.34466-0.34465v-3.0527c0-0.1871 0.15756-0.34466 0.34466-0.34466h2.9148c0.43328 0 0.7484-0.0886 0.94534-0.28557 0.19695-0.17725 0.28557-0.44313 0.28557-0.78778 0-0.34466-0.08863-0.60069-0.28557-0.78779-0.19695-0.1871-0.51206-0.28557-0.94534-0.28557h-2.9148c-0.1871 0-0.34466-0.15756-0.34466-0.34466v-0.70901c0-0.18709 0.15756-0.34465 0.34466-0.34465h2.9739m6.4697 0.0788c0.07878 0.0689 0.11817 0.1674 0.11817 0.26587v0.73855c0 0.16741-0.10832 0.30527-0.27572 0.34466-0.42344 0.0886-0.77794 0.28557-1.0734 0.60069-0.40374 0.42343-0.60069 0.96503-0.60069 1.6445 0 0.66961 0.19695 1.2112 0.60069 1.6445 0.29542 0.30527 0.64992 0.50221 1.0734 0.59084 0.1674 0.0394 0.27572 0.17725 0.27572 0.34465v0.73855c0 0.0985-0.03939 0.19695-0.11817 0.26588-0.06893 0.0492-0.14771 0.0788-0.22649 0.0788h-0.05908c-0.76809-0.12802-1.4279-0.48252-1.9596-1.034-0.67946-0.69916-1.0241-1.5854-1.0241-2.6292s0.34466-1.9301 1.0241-2.6391c0.53176-0.55145 1.1915-0.89611 1.9596-1.0241 0.09847-0.0197 0.20679 0.01 0.28557 0.0689m3.0921 0.95519c0.67946 0.709 1.0241 1.5854 1.0241 2.6391 0 1.0438-0.34466 1.9301-1.0241 2.6292-0.53176 0.55145-1.1915 0.90595-1.9596 1.034h-0.05908c-0.07878 0-0.15756-0.0295-0.22649-0.0788-0.07878-0.0689-0.11817-0.1674-0.11817-0.26588v-0.73855c0-0.1674 0.10832-0.30526 0.27572-0.34465 0.42343-0.0886 0.77794-0.28557 1.0734-0.59084 0.40374-0.43328 0.60069-0.97489 0.60069-1.6445 0-0.67947-0.19695-1.2211-0.60069-1.6445-0.29542-0.31512-0.64992-0.51206-1.0734-0.60069-0.1674-0.0394-0.27572-0.17725-0.27572-0.34466v-0.73855c0-0.0985 0.03939-0.19694 0.11817-0.26587 0.07878-0.0591 0.1871-0.0886 0.28557-0.0689 0.76809 0.12801 1.4279 0.47267 1.9596 1.0241m3.2988 1.8907c0.19695 0 0.34466 0.15756 0.34466 0.3545v3.6829c0 0.1871-0.14771 0.34466-0.34466 0.34466h-0.7484c-0.1871 0-0.34466-0.15756-0.34466-0.34466v-3.6829c0-0.19694 0.15756-0.3545 0.34466-0.3545h0.7484m0-2.9246c0.19695 0 0.34466 0.15756 0.34466 0.34465v1.8218c0 0.19694-0.14771 0.3545-0.34466 0.3545h-0.7484c-0.1871 0-0.34466-0.15756-0.34466-0.3545v-1.8218c0-0.18709 0.15756-0.34465 0.34466-0.34465h0.7484m10.615 0c0.19695 0 0.3545 0.15756 0.3545 0.3545v0.71886c0 0.19694-0.15756 0.3545-0.3545 0.3545h-1.0143c-0.1871 0-0.34466-0.15756-0.34466-0.3545v-0.71886c0-0.19694 0.15756-0.3545 0.34466-0.3545h1.0143m4.4018 0c0.1871 0 0.34466 0.15756 0.34466 0.3545v0.71886c0 0.19694-0.15756 0.3545-0.34466 0.3545h-1.9793v5.5933c0 0.1871-0.15756 0.34466-0.34466 0.34466h-0.75824c-0.19695 0-0.3545-0.15756-0.3545-0.34466v-6.6666c0-0.19694 0.15756-0.3545 0.3545-0.3545h3.0822m8.577 0c0.1871 0 0.34466 0.15756 0.34466 0.34465v6.5977c0 0.1871-0.15756 0.34465-0.34466 0.34465h-0.7484c-0.1871 0-0.34466-0.15755-0.34466-0.34465v-6.5977c0-0.18709 0.15756-0.34465 0.34466-0.34465h0.7484m3.5943 5.8788c0.19695 0 0.34466 0.15755 0.34466 0.34465v0.71886c0 0.1871-0.14771 0.34465-0.34466 0.34465h-2.2944c-0.19695 0-0.34466-0.15755-0.34466-0.34465v-0.71886c0-0.1871 0.14771-0.34465 0.34466-0.34465h2.2944m2.3929-2.9542c0.19695 0 0.34466 0.15756 0.34466 0.3545v3.6829c0 0.1871-0.14771 0.34466-0.34466 0.34466h-0.7484c-0.1871 0-0.34466-0.15756-0.34466-0.34466v-3.6829c0-0.19694 0.15756-0.3545 0.34466-0.3545h0.7484m0-2.9246c0.19695 0 0.34466 0.15756 0.34466 0.34465v1.8218c0 0.19694-0.14771 0.3545-0.34466 0.3545h-0.7484c-0.1871 0-0.34466-0.15756-0.34466-0.3545v-1.8218c0-0.18709 0.15756-0.34465 0.34466-0.34465h0.7484m7.6711 0c0.10832 0 0.21664 0.0591 0.28557 0.14771 0.05908 0.0985 0.07878 0.21664 0.02954 0.32496l-2.6489 6.5386c-0.04924 0.12801-0.17725 0.21664-0.31511 0.21664h-0.84687c-0.14771 0-0.26588-0.0886-0.32496-0.21664l-2.6489-6.5386c-0.03939-0.10832-0.02954-0.22649 0.03939-0.32496 0.05908-0.0886 0.1674-0.14771 0.28557-0.14771h0.80748c0.13786 0 0.26588 0.0886 0.31511 0.21664l1.9498 4.8941 1.9399-4.8941c0.05908-0.12802 0.17725-0.21664 0.32496-0.21664h0.80748m6.3811 5.8887c0.19695 0 0.34466 0.15756 0.34466 0.35451v0.71885c0 0.1871-0.14771 0.34466-0.34466 0.34466h-4.8646c-0.1871 0-0.34466-0.15756-0.34466-0.34466v-0.71885c0-0.19695 0.15756-0.35451 0.34466-0.35451h4.8646m-4.8646-1.5263c-0.1871 0-0.34466-0.15756-0.34466-0.34466v-0.73855c0-0.18709 0.15756-0.34465 0.34466-0.34465h4.4214c0.19695 0 0.3545 0.15756 0.3545 0.34465v0.73855c0 0.1871-0.15756 0.34466-0.3545 0.34466h-4.4214m4.8646-4.3624c0.19695 0 0.34466 0.15756 0.34466 0.34465v0.71886c0 0.19695-0.14771 0.3545-0.34466 0.3545h-4.8646c-0.1871 0-0.34466-0.15755-0.34466-0.3545v-0.71886c0-0.18709 0.15756-0.34465 0.34466-0.34465h4.8646"/>
    </g>
  </g>
</svg>
