<?xml version="1.0" encoding="UTF-8" standalone="no"?>
<!-- Created with Inkscape (http://www.inkscape.org/) -->

<svg
   xmlns:dc="http://purl.org/dc/elements/1.1/"
   xmlns:cc="http://creativecommons.org/ns#"
   xmlns:rdf="http://www.w3.org/1999/02/22-rdf-syntax-ns#"
   xmlns:svg="http://www.w3.org/2000/svg"
   xmlns="http://www.w3.org/2000/svg"
   xmlns:sodipodi="http://sodipodi.sourceforge.net/DTD/sodipodi-0.dtd"
   xmlns:inkscape="http://www.inkscape.org/namespaces/inkscape"
   width="210mm"
   height="297mm"
   viewBox="0 0 210 297"
   version="1.1"
   id="svg4907"
   inkscape:version="0.92.2 (5c3e80d, 2017-08-06)"
   sodipodi:docname="text.svg">
  <defs
     id="defs4901" />
  <sodipodi:namedview
     id="base"
     pagecolor="#ffffff"
     bordercolor="#666666"
     borderopacity="1.0"
     inkscape:pageopacity="0.0"
     inkscape:pageshadow="2"
     inkscape:zoom="0.98994949"
     inkscape:cx="428.22851"
     inkscape:cy="725.70074"
     inkscape:document-units="mm"
     inkscape:current-layer="layer1"
     showgrid="false"
     inkscape:window-width="1920"
     inkscape:window-height="1001"
     inkscape:window-x="-9"
     inkscape:window-y="1341"
     inkscape:window-maximized="1" />
  <metadata
     id="metadata4904">
    <rdf:RDF>
      <cc:Work
         rdf:about="">
        <dc:format>image/svg+xml</dc:format>
        <dc:type
           rdf:resource="http://purl.org/dc/dcmitype/StillImage" />
        <dc:title></dc:title>
      </cc:Work>
    </rdf:RDF>
  </metadata>
  <g
     inkscape:label="Layer 1"
     inkscape:groupmode="layer"
     id="layer1">
    <g
       id="g5468"
       transform="scale(0.26458333)"
       style="fill:none;fill-rule:evenodd;stroke:#000000;stroke-width:1;stroke-linecap:square;stroke-linejoin:bevel">
      <g
         id="g5456"
         stroke-miterlimit="2"
         style="fill:#000000;fill-opacity:1;stroke:#000000;stroke-width:1;stroke-linecap:square;stroke-linejoin:miter;stroke-miterlimit:2;stroke-opacity:1" />
      <g
         id="g5458"
         stroke-miterlimit="2"
         style="fill:#000000;fill-opacity:1;stroke:#000000;stroke-width:1;stroke-linecap:square;stroke-linejoin:miter;stroke-miterlimit:2;stroke-opacity:1" />
      <g
         id="g5460"
         stroke-miterlimit="2"
         style="fill:#000000;fill-opacity:1;stroke:#000000;stroke-width:1;stroke-linecap:square;stroke-linejoin:miter;stroke-miterlimit:2;stroke-opacity:1" />
      <g
         id="g5462"
         stroke-miterlimit="2"
         style="fill:#000000;fill-opacity:1;stroke:#000000;stroke-width:1;stroke-linecap:square;stroke-linejoin:miter;stroke-miterlimit:2;stroke-opacity:1" />
      <g
         id="g5464"
         stroke-miterlimit="2"
         style="fill:#000000;fill-opacity:1;stroke:#000000;stroke-width:1;stroke-linecap:square;stroke-linejoin:miter;stroke-miterlimit:2;stroke-opacity:1" />
      <g
         id="g5466"
         stroke-miterlimit="2"
         style="fill:#000000;fill-opacity:1;stroke:#000000;stroke-width:1;stroke-linecap:square;stroke-linejoin:miter;stroke-miterlimit:2;stroke-opacity:1" />
    </g>
    <g
       style="fill:#000000;fill-opacity:1;fill-rule:evenodd;stroke:#000000;stroke-width:1;stroke-linecap:square;stroke-linejoin:miter;stroke-miterlimit:2;stroke-opacity:1"
       stroke-miterlimit="2"
       id="g5487"
       transform="matrix(0.26458333,0,0,0.26458333,-29.935278,42.438219)" />
    <g
       style="fill:#000000;fill-opacity:1;fill-rule:evenodd;stroke:#000000;stroke-width:1;stroke-linecap:square;stroke-linejoin:miter;stroke-miterlimit:2;stroke-opacity:1"
       stroke-miterlimit="2"
       id="g5489"
       transform="matrix(0.26458333,0,0,0.26458333,-29.935278,42.438219)" />
    <g
       style="fill:#000000;fill-opacity:1;fill-rule:evenodd;stroke:#000000;stroke-width:1;stroke-linecap:square;stroke-linejoin:miter;stroke-miterlimit:2;stroke-opacity:1"
       stroke-miterlimit="2"
       id="g5491"
       transform="matrix(0.26458333,0,0,0.26458333,-29.935278,42.438219)" />
    <g
       style="fill:#000000;fill-opacity:1;fill-rule:evenodd;stroke:#000000;stroke-width:1;stroke-linecap:square;stroke-linejoin:miter;stroke-miterlimit:2;stroke-opacity:1"
       stroke-miterlimit="2"
       id="g5493"
       transform="matrix(0.26458333,0,0,0.26458333,-29.935278,42.438219)" />
    <g
       style="fill:#000000;fill-opacity:1;fill-rule:evenodd;stroke:#000000;stroke-width:1;stroke-linecap:square;stroke-linejoin:miter;stroke-miterlimit:2;stroke-opacity:1"
       stroke-miterlimit="2"
       transform="matrix(0.26458333,0,0,0.26458333,-27.818611,44.554886)"
       id="g5495" />
    <g
       style="fill:#000000;fill-opacity:1;fill-rule:evenodd;stroke:#000000;stroke-width:1;stroke-linecap:square;stroke-linejoin:miter;stroke-miterlimit:2;stroke-opacity:1"
       stroke-miterlimit="2"
       transform="matrix(0.74083332,0,0,0.74083332,-27.905659,62.020164)"
       id="g5497" />
    <g
       style="fill:#000000;fill-opacity:1;fill-rule:evenodd;stroke:none;stroke-width:1;stroke-linecap:square;stroke-linejoin:bevel"
       transform="matrix(0.74083332,0,0,0.74083332,-27.905659,62.020164)"
       id="g5501">
      <path
         style="vector-effect:none;fill-rule:nonzero"
         inkscape:connector-curvature="0"
         d="m 14.78,18.86 c 0.1,0.22 0.06,0.46 -0.06,0.66 -0.14,0.2 -0.36,0.32 -0.58,0.32 H 0.82 C 0.58,19.84 0.36,19.72 0.24,19.52 0.0999997,19.32 0.0799997,19.08 0.18,18.86 L 0.8,17.4 c 0.1,-0.26 0.36,-0.44 0.64,-0.44 h 9.32 L 10.16,15.52 7.48,9.12 4.8,15.52 C 4.7,15.78 4.44,15.94 4.16,15.94 H 2.48 C 2.24,15.94 2.02,15.82 1.88,15.62 1.76,15.44 1.74,15.18 1.82,14.96 L 5.88,5.44 C 5.98,5.16 6.24,5 6.52,5 h 1.92 c 0.28,0 0.52,0.16 0.64,0.44 l 5.7,13.42 m 12.34,-6.68 c 0.7,0.44 1.2,1.06 1.52,1.84 0.2,0.46 0.28,1 0.28,1.58 0,1.94 -1.06,3.28 -3.06,3.92 -0.64,0.22 -1.38,0.32 -2.22,0.32 h -6.38 c -0.38,0 -0.7,-0.32 -0.7,-0.7 V 17.7 c 0,-0.4 0.32,-0.72 0.7,-0.72 h 6.54 c 0.76,0 1.34,-0.14 1.72,-0.42 C 25.84,16.3 26,15.96 26,15.48 26,15 25.84,14.64 25.5,14.34 25.08,13.98 24.46,13.8 23.64,13.8 h -6.38 c -0.38,0 -0.7,-0.32 -0.7,-0.72 V 11.7 c 0,-0.38 0.32,-0.7 0.7,-0.7 h 6.02 c 1.28,0 1.68,-0.5 1.88,-0.88 C 25.26,9.92 25.3,9.7 25.3,9.46 25.3,9.2 25.26,8.98 25.2,8.8 25.14,8.62 25.04,8.48 24.92,8.36 24.6,8 24.12,7.86 23.46,7.86 h -6.2 c -0.38,0 -0.7,-0.32 -0.7,-0.72 V 5.7 c 0,-0.38 0.32,-0.7 0.7,-0.7 h 6.02 c 1.64,0 2.92,0.46 3.82,1.4 0.74,0.74 1.14,1.7 1.14,2.86 0,1.22 -0.38,2.2 -1.12,2.92 v 0 M 38.74,7.86 C 38.38,7.8 38.14,7.52 38.14,7.16 V 5.7 c 0,-0.2 0.08,-0.4 0.24,-0.52 0.16,-0.14 0.36,-0.2 0.56,-0.18 1.14,0.18 2.16,0.58 3.06,1.22 1.14,0.82 1.98,1.94 2.46,3.34 0.08,0.22 0.04,0.46 -0.08,0.64 -0.14,0.2 -0.36,0.3 -0.58,0.3 h -1.6 c -0.28,0 -0.54,-0.16 -0.66,-0.42 C 41.24,9.38 40.8,8.84 40.2,8.42 39.76,8.14 39.28,7.94 38.74,7.86 v 0 m 5.06,6.64 c 0.22,0 0.44,0.1 0.58,0.3 0.12,0.18 0.16,0.42 0.08,0.64 -0.48,1.4 -1.32,2.52 -2.46,3.34 -0.9,0.64 -1.92,1.04 -3.06,1.22 h -0.1 C 38.66,20 38.5,19.94 38.38,19.82 38.22,19.7 38.14,19.5 38.14,19.3 v -1.46 c 0,-0.36 0.24,-0.64 0.58,-0.7 0.56,-0.08 1.04,-0.26 1.48,-0.56 0.6,-0.42 1.04,-0.96 1.34,-1.66 0.12,-0.26 0.38,-0.42 0.66,-0.42 h 1.6 v 0 M 36.64,5.24 c 0.16,0.12 0.26,0.32 0.26,0.54 v 1.56 c 0,0.3 -0.22,0.58 -0.52,0.68 -0.16,0.04 -0.3,0.08 -0.44,0.14 -0.54,0.24 -0.98,0.56 -1.36,0.98 -0.76,0.86 -1.14,1.96 -1.14,3.36 0,1.4 0.38,2.5 1.14,3.36 0.48,0.54 1.06,0.9 1.8,1.12 0.3,0.08 0.52,0.36 0.52,0.66 v 1.58 c 0,0.22 -0.1,0.42 -0.26,0.54 -0.14,0.12 -0.3,0.16 -0.46,0.16 h -0.14 c -1.42,-0.3 -2.64,-1 -3.62,-2.08 -1.26,-1.42 -1.9,-3.2 -1.9,-5.34 0,-2.12 0.64,-3.92 1.9,-5.34 0.98,-1.08 2.2,-1.78 3.62,-2.06 0.22,-0.06 0.42,0 0.6,0.14 v 0 M 55.7,5.52 c 0.84,0.32 1.58,0.84 2.2,1.48 1.4,1.42 2.1,3.24 2.1,5.42 0,2.18 -0.7,4 -2.1,5.42 -0.62,0.64 -1.36,1.16 -2.2,1.48 -0.82,0.34 -1.7,0.52 -2.58,0.52 h -5.66 c -0.38,0 -0.7,-0.32 -0.7,-0.7 V 17.7 c 0,-0.4 0.32,-0.72 0.7,-0.72 h 5.6 c 1.2,0 2.14,-0.42 2.9,-1.3 0.74,-0.88 1.1,-1.94 1.1,-3.26 0,-1.32 -0.36,-2.38 -1.1,-3.26 -0.76,-0.88 -1.7,-1.3 -2.9,-1.3 h -5.6 c -0.38,0 -0.7,-0.32 -0.7,-0.72 V 5.7 c 0,-0.38 0.32,-0.7 0.7,-0.7 h 5.66 C 54,5 54.88,5.18 55.7,5.52 v 0 M 73,16.96 c 0.4,0 0.7,0.32 0.7,0.72 v 1.46 c 0,0.38 -0.3,0.7 -0.7,0.7 h -9.88 c -0.38,0 -0.7,-0.32 -0.7,-0.7 v -1.46 c 0,-0.4 0.32,-0.72 0.7,-0.72 H 73 v 0 m -9.88,-3.1 c -0.38,0 -0.7,-0.32 -0.7,-0.7 v -1.5 c 0,-0.38 0.32,-0.7 0.7,-0.7 h 8.98 c 0.4,0 0.72,0.32 0.72,0.7 v 1.5 c 0,0.38 -0.32,0.7 -0.72,0.7 H 63.12 M 73,5 c 0.4,0 0.7,0.32 0.7,0.7 v 1.46 c 0,0.4 -0.3,0.72 -0.7,0.72 h -9.88 c -0.38,0 -0.7,-0.32 -0.7,-0.72 V 5.7 C 62.42,5.32 62.74,5 63.12,5 H 73 m 12.62,6.12 c 0.4,0 0.72,0.32 0.72,0.72 v 1.48 c 0,0.38 -0.32,0.7 -0.72,0.7 h -6.58 v 5.12 c 0,0.38 -0.3,0.7 -0.7,0.7 h -1.52 c -0.38,0 -0.7,-0.32 -0.7,-0.7 v -7.3 c 0,-0.4 0.32,-0.72 0.7,-0.72 h 8.8 v 0 M 86.52,5 c 0.38,0 0.7,0.32 0.7,0.7 v 1.46 c 0,0.4 -0.32,0.72 -0.7,0.72 h -9.7 c -0.38,0 -0.7,-0.32 -0.7,-0.72 V 5.7 c 0,-0.38 0.32,-0.7 0.7,-0.7 h 9.7 M 97.18,7.9 C 96.86,7.84 96.62,7.54 96.62,7.22 V 5.7 c 0,-0.2 0.1,-0.4 0.24,-0.54 0.16,-0.12 0.38,-0.18 0.58,-0.14 1.56,0.26 2.9,0.96 4,2.1 0.56,0.58 1.02,1.26 1.36,2 0.12,0.2 0.1,0.46 -0.04,0.66 -0.12,0.2 -0.34,0.34 -0.58,0.34 h -1.7 C 100.24,10.12 100,9.98 99.88,9.78 99.72,9.54 99.56,9.32 99.36,9.12 98.76,8.5 98.04,8.1 97.18,7.9 v 0 M 95.14,5.16 c 0.14,0.14 0.24,0.34 0.24,0.54 v 1.52 c 0,0.32 -0.24,0.62 -0.56,0.68 -0.88,0.2 -1.58,0.6 -2.18,1.22 -0.82,0.88 -1.24,1.98 -1.24,3.36 0,1.38 0.42,2.46 1.24,3.34 0.6,0.64 1.3,1.02 2.18,1.22 0.32,0.06 0.56,0.36 0.56,0.68 v 1.52 c 0,0.2 -0.1,0.4 -0.26,0.54 -0.12,0.1 -0.28,0.16 -0.44,0.16 h -0.12 c -1.56,-0.28 -2.92,-0.98 -4,-2.12 -1.38,-1.42 -2.08,-3.22 -2.08,-5.34 0,-2.14 0.7,-3.94 2.08,-5.36 1.08,-1.14 2.44,-1.84 4,-2.1 0.2,-0.04 0.42,0.02 0.58,0.14 v 0 m 8.36,6.9 c 0.02,0.14 0.02,0.26 0.02,0.42 0,0.32 -0.02,0.64 -0.06,1.02 -0.2,1.7 -0.88,3.14 -2.02,4.32 -1.1,1.14 -2.44,1.84 -4,2.12 h -0.12 c -0.16,0 -0.32,-0.06 -0.46,-0.16 -0.14,-0.14 -0.24,-0.34 -0.24,-0.54 v -1.52 c 0,-0.32 0.24,-0.62 0.56,-0.68 0.86,-0.2 1.58,-0.58 2.18,-1.22 0.46,-0.48 0.8,-1.04 1,-1.7 h -4.24 c -0.4,0 -0.7,-0.3 -0.7,-0.7 V 12 c 0,-0.38 0.3,-0.7 0.7,-0.7 h 6.68 c 0.38,0 0.68,0.28 0.7,0.66 v 0.1 0 m 2.92,-1.94 c -0.38,0 -0.7,-0.32 -0.7,-0.7 V 5.7 c 0,-0.38 0.32,-0.7 0.7,-0.7 h 1.52 c 0.4,0 0.7,0.32 0.7,0.7 v 3.72 c 0,0.38 -0.3,0.7 -0.7,0.7 h -1.52 M 117.28,5 c 0.38,0 0.7,0.32 0.7,0.7 v 13.44 c 0,0.38 -0.32,0.7 -0.7,0.7 h -1.52 c -0.4,0 -0.7,-0.32 -0.7,-0.7 v -5.28 h -6.42 v 5.28 c 0,0.38 -0.3,0.7 -0.7,0.7 h -1.52 c -0.38,0 -0.7,-0.32 -0.7,-0.7 v -7.48 c 0,-0.38 0.32,-0.7 0.7,-0.7 h 8.64 V 5.7 c 0,-0.38 0.3,-0.7 0.7,-0.7 h 1.52 v 0 m 6.16,5.94 c 0.4,0 0.7,0.32 0.7,0.72 v 7.48 c 0,0.38 -0.3,0.7 -0.7,0.7 h -1.52 c -0.38,0 -0.7,-0.32 -0.7,-0.7 v -7.48 c 0,-0.4 0.32,-0.72 0.7,-0.72 h 1.52 v 0 m 0,-5.94 c 0.4,0 0.7,0.32 0.7,0.7 v 3.7 c 0,0.4 -0.3,0.72 -0.7,0.72 h -1.52 c -0.38,0 -0.7,-0.32 -0.7,-0.72 V 5.7 c 0,-0.38 0.32,-0.7 0.7,-0.7 h 1.52 m 6.74,11.88 c 0.26,0.12 0.42,0.38 0.42,0.64 v 1.62 c 0,0.22 -0.1,0.42 -0.28,0.56 -0.12,0.1 -0.28,0.14 -0.42,0.14 -0.06,0 -0.12,0 -0.18,-0.02 -0.86,-0.2 -1.6,-0.6 -2.2,-1.2 -0.86,-0.84 -1.32,-1.84 -1.44,-3.02 -0.02,-0.18 0.04,-0.38 0.18,-0.54 0.14,-0.14 0.32,-0.22 0.52,-0.22 h 1.58 c 0.36,0 0.64,0.26 0.7,0.6 0.08,0.42 0.28,0.8 0.62,1.1 0.14,0.14 0.32,0.26 0.5,0.34 v 0 M 135.64,5 c 0.4,0 0.72,0.32 0.72,0.7 v 9 c 0,1.44 -0.38,2.66 -1.14,3.62 -0.62,0.78 -1.46,1.28 -2.52,1.52 -0.06,0.02 -0.1,0.02 -0.16,0.02 -0.16,0 -0.32,-0.04 -0.44,-0.16 -0.16,-0.12 -0.26,-0.32 -0.26,-0.54 v -1.54 c 0,-0.3 0.18,-0.56 0.46,-0.66 0.34,-0.12 0.58,-0.32 0.76,-0.6 0.24,-0.38 0.36,-0.96 0.36,-1.72 V 5.7 c 0,-0.38 0.32,-0.7 0.7,-0.7 h 1.52 v 0 m 16.54,13.7 c 0.16,0.2 0.18,0.48 0.06,0.72 -0.12,0.24 -0.36,0.38 -0.62,0.38 h -1.9 c -0.24,0 -0.46,-0.12 -0.58,-0.3 l -4.78,-6.88 -1.96,1.84 v 4.64 c 0,0.38 -0.32,0.7 -0.7,0.7 h -1.52 c -0.38,0 -0.7,-0.32 -0.7,-0.7 v -5.56 c 0,-0.2 0.08,-0.38 0.22,-0.5 L 148.06,5.2 C 148.2,5.06 148.36,5 148.54,5 h 2.16 c 0.28,0 0.54,0.18 0.64,0.44 0.12,0.28 0.04,0.58 -0.16,0.78 l -4.68,4.4 5.68,8.08 m -12,-8.6 c -0.38,0 -0.7,-0.3 -0.7,-0.7 V 5.7 c 0,-0.38 0.32,-0.7 0.7,-0.7 h 1.52 c 0.38,0 0.7,0.32 0.7,0.7 v 3.7 c 0,0.4 -0.32,0.7 -0.7,0.7 h -1.52 M 156.06,5 c 0.38,0 0.7,0.32 0.7,0.7 v 13.4 c 0,0.38 -0.32,0.7 -0.7,0.7 h -1.52 c -0.38,0 -0.7,-0.32 -0.7,-0.7 V 5.7 c 0,-0.38 0.32,-0.7 0.7,-0.7 h 1.52 v 0 m 7.3,11.94 c 0.4,0 0.7,0.32 0.7,0.7 v 1.46 c 0,0.38 -0.3,0.7 -0.7,0.7 h -4.66 c -0.4,0 -0.7,-0.32 -0.7,-0.7 v -1.46 c 0,-0.38 0.3,-0.7 0.7,-0.7 h 4.66 v 0 M 179.74,5 c 0.38,0 0.7,0.32 0.7,0.7 v 13.4 c 0,0.38 -0.32,0.7 -0.7,0.7 h -1.52 c -0.4,0 -0.7,-0.32 -0.7,-0.7 v -9.04 l -3.7,4.76 c -0.14,0.16 -0.34,0.26 -0.56,0.26 -0.22,0 -0.44,-0.1 -0.56,-0.28 L 166.14,6.12 C 165.98,5.92 165.96,5.62 166.08,5.4 166.2,5.16 166.44,5 166.7,5 h 1.76 c 0.22,0 0.42,0.1 0.56,0.28 l 4.24,5.6 4.14,-5.6 C 177.54,5.1 177.74,5 177.98,5 h 1.76 v 0 m -11.52,9.7 c 0.38,0 0.7,0.3 0.7,0.7 v 3.7 c 0,0.38 -0.32,0.7 -0.7,0.7 h -1.52 c -0.38,0 -0.7,-0.32 -0.7,-0.7 v -3.7 c 0,-0.4 0.32,-0.7 0.7,-0.7 h 1.52 v 0 M 195.94,5 c 0.38,0 0.7,0.32 0.7,0.7 v 13.4 c 0,0.38 -0.32,0.7 -0.7,0.7 h -1.76 c -0.22,0 -0.44,-0.1 -0.58,-0.28 L 183.82,6.12 C 183.66,5.9 183.64,5.62 183.76,5.38 183.88,5.14 184.12,5 184.38,5 h 1.76 c 0.22,0 0.44,0.1 0.56,0.28 l 7.02,9.54 V 5.7 c 0,-0.38 0.3,-0.7 0.7,-0.7 h 1.52 m -10.04,9.7 c 0.38,0 0.7,0.3 0.7,0.7 v 3.7 c 0,0.38 -0.32,0.7 -0.7,0.7 h -1.52 c -0.38,0 -0.7,-0.32 -0.7,-0.7 v -3.7 c 0,-0.4 0.32,-0.7 0.7,-0.7 h 1.52 v 0 m 19.78,-9.54 c 0.16,0.14 0.24,0.34 0.24,0.54 v 1.5 c 0,0.34 -0.22,0.62 -0.56,0.7 -0.86,0.18 -1.58,0.58 -2.18,1.22 -0.82,0.86 -1.22,1.96 -1.22,3.34 0,1.36 0.4,2.46 1.22,3.34 0.6,0.62 1.32,1.02 2.18,1.2 0.34,0.08 0.56,0.36 0.56,0.7 v 1.5 c 0,0.2 -0.08,0.4 -0.24,0.54 -0.14,0.1 -0.3,0.16 -0.46,0.16 h -0.12 c -1.56,-0.26 -2.9,-0.98 -3.98,-2.1 -1.38,-1.42 -2.08,-3.22 -2.08,-5.34 0,-2.12 0.7,-3.92 2.08,-5.36 1.08,-1.12 2.42,-1.82 3.98,-2.08 0.2,-0.04 0.42,0.02 0.58,0.14 v 0 m 6.28,1.94 c 1.38,1.44 2.08,3.22 2.08,5.36 0,2.12 -0.7,3.92 -2.08,5.34 -1.08,1.12 -2.42,1.84 -3.98,2.1 h -0.12 c -0.16,0 -0.32,-0.06 -0.46,-0.16 -0.16,-0.14 -0.24,-0.34 -0.24,-0.54 v -1.5 c 0,-0.34 0.22,-0.62 0.56,-0.7 0.86,-0.18 1.58,-0.58 2.18,-1.2 0.82,-0.88 1.22,-1.98 1.22,-3.34 0,-1.38 -0.4,-2.48 -1.22,-3.34 -0.6,-0.64 -1.32,-1.04 -2.18,-1.22 -0.34,-0.08 -0.56,-0.36 -0.56,-0.7 V 5.7 c 0,-0.2 0.08,-0.4 0.24,-0.54 0.16,-0.12 0.38,-0.18 0.58,-0.14 1.56,0.26 2.9,0.96 3.98,2.08 v 0 M 223.18,5 c 1.58,0 2.88,0.46 3.84,1.36 0.98,0.92 1.46,2.16 1.46,3.66 0,1.52 -0.48,2.74 -1.46,3.66 -0.96,0.9 -2.26,1.34 -3.84,1.34 h -3.82 v 4.08 c 0,0.38 -0.32,0.7 -0.7,0.7 h -1.52 c -0.38,0 -0.7,-0.32 -0.7,-0.7 v -6.2 c 0,-0.38 0.32,-0.7 0.7,-0.7 h 5.92 c 0.88,0 1.52,-0.18 1.92,-0.58 0.4,-0.36 0.58,-0.9 0.58,-1.6 0,-0.7 -0.18,-1.22 -0.58,-1.6 -0.4,-0.38 -1.04,-0.58 -1.92,-0.58 h -5.92 c -0.38,0 -0.7,-0.32 -0.7,-0.7 V 5.7 c 0,-0.38 0.32,-0.7 0.7,-0.7 h 6.04 v 0 m 18.72,9.36 c -0.16,-0.16 -0.24,-0.4 -0.18,-0.62 0.06,-0.38 0.1,-0.76 0.1,-1.14 0,-1.38 -0.4,-2.48 -1.22,-3.36 -0.86,-0.9 -1.98,-1.34 -3.38,-1.34 -1.42,0 -2.52,0.44 -3.38,1.34 -0.82,0.88 -1.22,1.98 -1.22,3.36 0,1.38 0.4,2.48 1.22,3.36 0.86,0.9 1.96,1.34 3.38,1.34 0.54,0 1.04,-0.06 1.5,-0.2 l -1.14,-1.14 c -0.12,-0.14 -0.2,-0.32 -0.2,-0.5 0,-0.18 0.08,-0.36 0.2,-0.5 l 1.08,-1.08 c 0.28,-0.28 0.72,-0.28 1,0 l 4.34,4.34 c 0.28,0.28 0.28,0.72 0,1 l -1.08,1.08 c -0.12,0.14 -0.3,0.2 -0.5,0.2 -0.18,0 -0.36,-0.06 -0.5,-0.2 l -0.98,-1 c -1.1,0.6 -2.34,0.9 -3.72,0.9 -2.2,0 -4.04,-0.74 -5.46,-2.22 -1.38,-1.44 -2.08,-3.24 -2.08,-5.38 0,-2.14 0.7,-3.94 2.08,-5.38 1.42,-1.46 3.26,-2.22 5.46,-2.22 2.2,0 4.04,0.76 5.46,2.24 1.38,1.42 2.08,3.22 2.08,5.36 0,0.96 -0.16,1.88 -0.46,2.74 -0.08,0.22 -0.26,0.4 -0.5,0.44 -0.24,0.06 -0.48,0 -0.66,-0.18 l -1.24,-1.24 m 14.54,-0.26 3.02,4.62 c 0.14,0.22 0.16,0.48 0.02,0.72 -0.12,0.22 -0.36,0.36 -0.6,0.36 h -1.82 c -0.24,0 -0.46,-0.12 -0.58,-0.32 l -3.04,-4.82 h -3.56 v 4.44 c 0,0.38 -0.32,0.7 -0.7,0.7 h -1.52 c -0.38,0 -0.7,-0.32 -0.7,-0.7 v -6.58 c 0,-0.38 0.32,-0.7 0.7,-0.7 h 6.16 c 1.16,0 1.94,-0.32 2.34,-1 0.14,-0.22 0.2,-0.54 0.2,-0.92 0,-0.66 -0.2,-1.12 -0.62,-1.48 -0.44,-0.4 -1.06,-0.58 -1.84,-0.58 h -6.24 c -0.38,0 -0.7,-0.32 -0.7,-0.7 V 5.7 c 0,-0.38 0.32,-0.7 0.7,-0.7 h 6.42 c 1.54,0 2.8,0.44 3.74,1.32 0.98,0.88 1.46,2.08 1.46,3.58 0,1.94 -0.86,3.34 -2.5,4.06 -0.1,0.04 -0.22,0.1 -0.34,0.14 v 0 m 15.22,-1.68 c 1.14,0.72 1.76,1.78 1.76,3.06 0,1.5 -0.58,2.66 -1.72,3.46 -0.8,0.58 -1.86,0.92 -3.14,1.06 h -0.08 c -0.16,0 -0.34,-0.06 -0.46,-0.18 -0.16,-0.14 -0.24,-0.32 -0.24,-0.52 v -1.44 c 0,-0.36 0.28,-0.66 0.62,-0.7 2.08,-0.24 2.08,-1.2 2.08,-1.62 0,-0.3 -0.1,-0.5 -0.36,-0.68 -0.4,-0.28 -0.9,-0.5 -1.5,-0.68 -0.1,-0.02 -0.18,-0.06 -0.26,-0.08 l -0.06,-0.02 c -0.58,-0.16 -1.2,-0.32 -1.84,-0.46 -0.24,-0.04 -0.5,-0.12 -0.8,-0.2 -0.54,-0.14 -1.06,-0.32 -1.52,-0.5 -0.76,-0.32 -1.42,-0.74 -1.94,-1.26 -0.58,-0.58 -0.88,-1.36 -0.88,-2.32 0,-1.32 0.52,-2.4 1.52,-3.22 0.72,-0.6 1.7,-0.96 2.92,-1.12 0.2,-0.02 0.4,0.04 0.56,0.18 0.14,0.13999 0.22,0.32 0.22,0.52 v 1.44 c 0,0.34 -0.24,0.63999 -0.58,0.69999 -0.2,0.02 -0.36,0.06 -0.5,0.1 -0.38,0.14001 -0.66,0.28 -0.84,0.44 -0.16,0.14 -0.26,0.28 -0.32,0.42 -0.06,0.2 -0.1,0.42 -0.1,0.64 0,0.06001 0,0.16 0.18,0.34 0.2,0.2 0.48,0.36001 0.82,0.50001 0.24,0.1 0.54,0.2 0.84,0.3 0.18,0.04 0.36,0.1 0.54,0.14 0.56,0.14 1.12,0.28 1.7,0.42 0.08,0.02 0.16,0.04 0.26,0.06 l 0.12,0.04 c 0.52,0.14 0.96,0.26 1.36,0.4 0.6,0.2 1.16,0.46 1.64,0.78 v 0 M 268.32,7.9 C 268,7.82 267.78,7.54 267.78,7.2 V 5.74 c 0,-0.2 0.1,-0.4 0.26,-0.54 0.14,-0.12 0.36,-0.18 0.56,-0.14 1.16,0.18 2.12,0.58 2.86,1.2 1,0.82 1.54,1.88 1.6,3.16 0.02,0.2 -0.06,0.38 -0.18,0.52 -0.14,0.14 -0.32,0.22 -0.52,0.22 h -1.56 c -0.34,0 -0.64,-0.26 -0.68,-0.62 -0.08,-0.5 -0.3,-1.24 -1.64,-1.62 -0.04,0 -0.06,0 -0.08,-0.02 h -0.08 v 0 m -2.34,9.18 c 0.34,0.06 0.56,0.36 0.56,0.68 v 1.48 c 0,0.2 -0.08,0.4 -0.24,0.54 -0.12,0.1 -0.28,0.16 -0.46,0.16 h -0.1 c -1.24,-0.18 -2.28,-0.6 -3.06,-1.22 -1.02,-0.82 -1.62,-1.98 -1.76,-3.46 -0.02,-0.2 0.04,-0.4 0.18,-0.54 0.14,-0.16 0.32,-0.24 0.52,-0.24 h 1.58 c 0.38,0 0.68,0.3 0.7,0.66 0.04,0.68 0.36,1.18 0.98,1.54 0.32,0.18 0.68,0.3 1.1,0.4 M 277.16,5 c 0.4,0 0.72,0.32 0.72,0.72 v 1.46 c 0,0.4 -0.32,0.72 -0.72,0.72 h -2.06 c -0.38,0 -0.7,-0.32 -0.7,-0.72 V 5.72 c 0,-0.4 0.32,-0.72 0.7,-0.72 h 2.06 m 8.94,0 c 0.38,0 0.7,0.32 0.7,0.72 v 1.46 c 0,0.4 -0.32,0.72 -0.7,0.72 h -4.02 v 11.36 c 0,0.38 -0.32,0.7 -0.7,0.7 h -1.54 c -0.4,0 -0.72,-0.32 -0.72,-0.7 V 5.72 c 0,-0.4 0.32,-0.72 0.72,-0.72 h 6.26 v 0 m 7.76,12.06 c 0.32,0.1 0.52,0.38 0.52,0.7 v 1.54 c 0,0.2 -0.1,0.4 -0.26,0.54 -0.12,0.1 -0.28,0.16 -0.44,0.16 -0.06,0 -0.1,0 -0.14,-0.02 -1.26,-0.24 -2.32,-0.82 -3.2,-1.72 -1.2,-1.22 -1.8,-2.86 -1.8,-4.84 v -7.7 c 0,-0.4 0.32,-0.72 0.7,-0.72 h 1.54 c 0.4,0 0.72,0.32 0.72,0.72 v 7.74 c 0,1.28 0.34,2.22 1.08,2.9 0.36,0.34 0.78,0.58 1.28,0.7 v 0 M 300.76,5 c 0.4,0 0.72,0.32 0.72,0.72 v 7.7 c 0,1.98 -0.6,3.62 -1.8,4.84 -0.88,0.9 -1.94,1.48 -3.2,1.72 -0.04,0.02 -0.08,0.02 -0.14,0.02 -0.16,0 -0.32,-0.06 -0.44,-0.16 -0.18,-0.14 -0.26,-0.34 -0.26,-0.56 v -1.54 c 0,-0.3 0.2,-0.58 0.52,-0.68 0.5,-0.14 0.92,-0.36 1.28,-0.7 0.74,-0.66 1.08,-1.62 1.08,-2.9 V 5.72 c 0,-0.4 0.32,-0.72 0.72,-0.72 h 1.52 v 0 m 16.28,0.32 c 0.14,0.2 0.16,0.44 0.08,0.66 l -5.48,13.54 c -0.12,0.28 -0.38,0.44 -0.66,0.44 h -1.76 c -0.3,0 -0.56,-0.16 -0.66,-0.44 L 303.08,5.98 C 302.98,5.76 303,5.52 303.14,5.32 303.28,5.12 303.5,5 303.72,5 h 6.68 c 0.38,0 0.7,0.32 0.7,0.72 v 1.46 c 0,0.4 -0.32,0.72 -0.7,0.72 h -3.36 l 3.06,7.7 4.02,-10.16 C 314.22,5.18 314.48,5 314.78,5 h 1.68 c 0.24,0 0.46,0.12 0.58,0.32 v 0 M 337.96,5.3 c 0.12,0.18 0.16,0.4 0.1,0.62 l -4.22,13.54 c -0.08,0.3 -0.36,0.5 -0.68,0.5 h -1.74 c -0.3,0 -0.58,-0.2 -0.66,-0.48 l -3,-9.28 -2.98,9.28 c -0.1,0.28 -0.36,0.48 -0.68,0.48 h -1.74 c -0.22,0 -0.44,-0.1 -0.58,-0.28 -0.12,-0.2 -0.16,-0.44 -0.08,-0.64 L 326.22,5.48 C 326.3,5.2 326.58,5 326.88,5 h 1.76 c 0.32,0 0.58,0.2 0.68,0.5 l 2.96,9.2 2.8,-9.2 c 0.1,-0.3 0.38,-0.5 0.68,-0.5 h 1.62 c 0.22,0 0.44,0.1 0.58,0.3 v 0 m -17.52,0.2 1.14,3.74 c 0.08,0.22 0.04,0.46 -0.1,0.64 -0.14,0.18 -0.34,0.28 -0.58,0.28 h -1.58 c -0.32,0 -0.6,-0.2 -0.68,-0.5 L 317.48,5.92 C 317.4,5.7 317.44,5.48 317.58,5.3 317.72,5.1 317.92,5 318.14,5 h 1.62 c 0.32,0 0.6,0.2 0.68,0.5 v 0 m 31.72,13.32 c 0.16,0.22 0.2,0.5 0.08,0.74 -0.12,0.26 -0.38,0.4 -0.64,0.4 h -1.94 c -0.24,0 -0.44,-0.1 -0.58,-0.28 l -3.82,-5.06 -3.82,5.06 c -0.14,0.18 -0.34,0.28 -0.56,0.28 h -1.96 c -0.26,0 -0.5,-0.14 -0.62,-0.38 -0.12,-0.26 -0.1,-0.54 0.06,-0.76 L 348.72,5.28 C 348.86,5.1 349.06,5 349.28,5 h 1.94 c 0.28,0 0.52,0.16 0.64,0.4 0.12,0.24 0.1,0.52 -0.08,0.74 l -4.7,6.12 5.08,6.56 M 341.62,9.88 338.74,6.14 C 338.56,5.92 338.54,5.64 338.66,5.4 338.78,5.16 339.02,5 339.3,5 h 1.94 c 0.22,0 0.44,0.1 0.56,0.28 l 2.82,3.74 c 0.18,0.22 0.2,0.5 0.08,0.76 -0.12,0.24 -0.36,0.38 -0.64,0.38 h -1.88 c -0.22,0 -0.44,-0.1 -0.56,-0.28 v 0 m 24.86,-4.5 c 0.14,0.24 0.12,0.52 -0.04,0.74 l -5.54,8 v 5.14 c 0,0.38 -0.32,0.7 -0.7,0.7 h -1.54 c -0.4,0 -0.72,-0.32 -0.72,-0.7 V 13.4 c 0,-0.14 0.06,-0.28 0.14,-0.4 l 5.34,-7.7 C 363.54,5.12 363.76,5 364,5 h 1.86 c 0.26,0 0.5,0.14 0.62,0.38 v 0 m -8.42,4.4 c -0.12,0.24 -0.36,0.38 -0.62,0.38 h -1.86 c -0.24,0 -0.46,-0.12 -0.6,-0.3 l -2.6,-3.74 C 352.24,5.9 352.22,5.62 352.34,5.38 352.46,5.14 352.7,5 352.96,5 h 1.88 c 0.22,0 0.44,0.12 0.58,0.3 l 2.6,3.74 c 0.14,0.22 0.16,0.5 0.04,0.74 m 20.54,7.34 c 0.38,0 0.7,0.32 0.7,0.7 v 1.44 c 0,0.38 -0.32,0.7 -0.7,0.7 h -10.74 c -0.38,0 -0.7,-0.32 -0.7,-0.7 V 17.8 c 0,-0.16 0.06,-0.32 0.16,-0.44 l 2.86,-3.46 c 0.14,-0.16 0.34,-0.26 0.54,-0.26 h 1.92 c 0.26,0 0.52,0.16 0.64,0.42 0.12,0.24 0.08,0.54 -0.1,0.74 l -1.92,2.32 h 7.34 v 0 M 378.6,5 c 0.38,0 0.7,0.32 0.7,0.72 v 1.46 c 0,0.18 -0.06,0.34 -0.16,0.46 l -2.86,3.42 c -0.12,0.16 -0.32,0.26 -0.54,0.26 h -1.9 c -0.28,0 -0.54,-0.16 -0.66,-0.4 -0.1,-0.26 -0.08,-0.54 0.1,-0.76 l 1.92,-2.3 H 368 c -0.4,0 -0.72,-0.32 -0.72,-0.72 V 5.72 C 367.28,5.32 367.6,5 368,5 h 10.6 v 0"
         id="path5499" />
    </g>
    <g
       style="fill:#000000;fill-opacity:1;fill-rule:evenodd;stroke:#000000;stroke-width:1;stroke-linecap:square;stroke-linejoin:miter;stroke-miterlimit:2;stroke-opacity:1"
       stroke-miterlimit="2"
       transform="matrix(0.74083332,0,0,0.74083332,-27.905659,62.020164)"
       id="g5503" />
    <g
       style="fill:#000000;fill-opacity:1;fill-rule:evenodd;stroke:#000000;stroke-width:1;stroke-linecap:square;stroke-linejoin:miter;stroke-miterlimit:2;stroke-opacity:1"
       stroke-miterlimit="2"
       transform="matrix(0.26458333,0,0,0.26458333,-27.818611,44.554886)"
       id="g5505" />
    <g
       style="fill:#000000;fill-opacity:1;fill-rule:evenodd;stroke:#000000;stroke-width:1;stroke-linecap:square;stroke-linejoin:miter;stroke-miterlimit:2;stroke-opacity:1"
       stroke-miterlimit="2"
       transform="matrix(0.14171401,0,0,0.14171401,98.54427,80.927421)"
       id="g5507" />
    <g
       style="fill:#000000;fill-opacity:1;fill-rule:evenodd;stroke:#000000;stroke-width:1;stroke-linecap:square;stroke-linejoin:miter;stroke-miterlimit:2;stroke-opacity:1"
       stroke-miterlimit="2"
       transform="matrix(0.14171401,0,0,0.14171401,98.54427,80.927421)"
       id="g5513" />
    <g
       style="fill:#000000;fill-opacity:1;fill-rule:evenodd;stroke:#000000;stroke-width:1;stroke-linecap:square;stroke-linejoin:miter;stroke-miterlimit:2;stroke-opacity:1"
       stroke-miterlimit="2"
       transform="matrix(0.26458333,0,0,0.26458333,-27.818611,44.554886)"
       id="g5515" />
    <g
       style="fill:#000000;fill-opacity:1;fill-rule:evenodd;stroke:#000000;stroke-width:1;stroke-linecap:square;stroke-linejoin:miter;stroke-miterlimit:2;stroke-opacity:1"
       stroke-miterlimit="2"
       transform="matrix(0.36220664,0,0,0.36220664,95.886531,44.901561)"
       id="g5517" />
    <g
       style="fill:#000000;fill-opacity:1;fill-rule:evenodd;stroke:#000000;stroke-width:1;stroke-linecap:square;stroke-linejoin:miter;stroke-miterlimit:2;stroke-opacity:1"
       stroke-miterlimit="2"
       transform="matrix(0.36220664,0,0,0.36220664,95.886531,44.901561)"
       id="g5523" />
    <g
       style="fill:#000000;fill-opacity:1;fill-rule:evenodd;stroke:#000000;stroke-width:1;stroke-linecap:square;stroke-linejoin:miter;stroke-miterlimit:2;stroke-opacity:1"
       stroke-miterlimit="2"
       transform="matrix(0.36220664,0,0,0.36220664,95.886531,44.901561)"
       id="g5529" />
    <g
       style="fill:#000000;fill-opacity:1;fill-rule:evenodd;stroke:#000000;stroke-width:1;stroke-linecap:square;stroke-linejoin:miter;stroke-miterlimit:2;stroke-opacity:1"
       stroke-miterlimit="2"
       transform="matrix(0.36220664,0,0,0.36220664,95.886531,44.901561)"
       id="g5531" />
    <g
       style="fill:#000000;fill-opacity:1;fill-rule:evenodd;stroke:#000000;stroke-width:1;stroke-linecap:square;stroke-linejoin:miter;stroke-miterlimit:2;stroke-opacity:1"
       stroke-miterlimit="2"
       transform="matrix(0.26458333,0,0,0.26458333,-27.818611,44.554886)"
       id="g5533" />
    <g
       style="fill:#000000;fill-opacity:1;fill-rule:evenodd;stroke:#000000;stroke-width:1;stroke-linecap:square;stroke-linejoin:miter;stroke-miterlimit:2;stroke-opacity:1"
       stroke-miterlimit="2"
       transform="matrix(0.26458333,0,0,0.26458333,-27.818611,44.554886)"
       id="g5535" />
    <g
       style="fill:#000000;fill-opacity:1;fill-rule:evenodd;stroke:#000000;stroke-width:1;stroke-linecap:square;stroke-linejoin:miter;stroke-miterlimit:2;stroke-opacity:1"
       stroke-miterlimit="2"
       id="g5537"
       transform="matrix(0.26458333,0,0,0.26458333,-29.935278,42.438219)" />
    <g
       style="fill:#000000;fill-opacity:1;fill-rule:evenodd;stroke:#000000;stroke-width:1;stroke-linecap:square;stroke-linejoin:miter;stroke-miterlimit:2;stroke-opacity:1"
       stroke-miterlimit="2"
       id="g5539"
       transform="matrix(0.26458333,0,0,0.26458333,-29.935278,42.438219)" />
    <g
       style="fill:#000000;fill-opacity:1;fill-rule:evenodd;stroke:#000000;stroke-width:1;stroke-linecap:square;stroke-linejoin:miter;stroke-miterlimit:2;stroke-opacity:1"
       stroke-miterlimit="2"
       id="g5541"
       transform="matrix(0.26458333,0,0,0.26458333,-29.935278,42.438219)" />
    <g
       style="fill:#000000;fill-opacity:1;fill-rule:evenodd;stroke:#000000;stroke-width:1;stroke-linecap:square;stroke-linejoin:miter;stroke-miterlimit:2;stroke-opacity:1"
       stroke-miterlimit="2"
       id="g5543"
       transform="matrix(0.26458333,0,0,0.26458333,-29.935278,42.438219)" />
    <g
       style="fill:#000000;fill-opacity:1;fill-rule:evenodd;stroke:#000000;stroke-width:1;stroke-linecap:square;stroke-linejoin:miter;stroke-miterlimit:2;stroke-opacity:1"
       stroke-miterlimit="2"
       transform="matrix(0.26458333,0,0,0.26458333,-27.818611,44.554886)"
       id="g5545" />
    <g
       style="fill:#000000;fill-opacity:1;fill-rule:evenodd;stroke:#000000;stroke-width:1;stroke-linecap:square;stroke-linejoin:miter;stroke-miterlimit:2;stroke-opacity:1"
       stroke-miterlimit="2"
       transform="matrix(0.26458333,0,0,0.26458333,-27.818611,44.554886)"
       id="g5547" />
    <g
       style="fill:#000000;fill-opacity:1;fill-rule:evenodd;stroke:#000000;stroke-width:1;stroke-linecap:square;stroke-linejoin:miter;stroke-miterlimit:2;stroke-opacity:1"
       stroke-miterlimit="2"
       transform="matrix(0.26458333,0,0,0.26458333,-27.818611,44.554886)"
       id="g5549" />
    <g
       style="fill:#000000;fill-opacity:1;fill-rule:evenodd;stroke:#000000;stroke-width:1;stroke-linecap:square;stroke-linejoin:miter;stroke-miterlimit:2;stroke-opacity:1"
       stroke-miterlimit="2"
       transform="matrix(0.36220664,0,0,0.36220664,95.886531,44.901561)"
       id="g5551" />
    <g
       style="fill:#000000;fill-opacity:1;fill-rule:evenodd;stroke:#000000;stroke-width:1;stroke-linecap:square;stroke-linejoin:miter;stroke-miterlimit:2;stroke-opacity:1"
       stroke-miterlimit="2"
       transform="matrix(0.36220664,0,0,0.36220664,95.886531,44.901561)"
       id="g5553" />
    <g
       style="fill:#000000;fill-opacity:1;fill-rule:evenodd;stroke:#000000;stroke-width:1;stroke-linecap:square;stroke-linejoin:miter;stroke-miterlimit:2;stroke-opacity:1"
       stroke-miterlimit="2"
       transform="matrix(0.26458333,0,0,0.26458333,-27.818611,44.554886)"
       id="g5555" />
    <g
       style="fill:#000000;fill-opacity:1;fill-rule:evenodd;stroke:#000000;stroke-width:1;stroke-linecap:square;stroke-linejoin:miter;stroke-miterlimit:2;stroke-opacity:1"
       stroke-miterlimit="2"
       transform="matrix(0.26458333,0,0,0.26458333,-27.818611,44.554886)"
       id="g5557" />
    <g
       style="fill:#000000;fill-opacity:1;fill-rule:evenodd;stroke:#000000;stroke-width:1;stroke-linecap:square;stroke-linejoin:miter;stroke-miterlimit:2;stroke-opacity:1"
       stroke-miterlimit="2"
       id="g5559"
       transform="matrix(0.26458333,0,0,0.26458333,-29.935278,42.438219)" />
    <g
       style="fill:#000000;fill-opacity:1;fill-rule:evenodd;stroke:#000000;stroke-width:1;stroke-linecap:square;stroke-linejoin:miter;stroke-miterlimit:2;stroke-opacity:1"
       stroke-miterlimit="2"
       id="g5561"
       transform="matrix(0.26458333,0,0,0.26458333,-29.935278,42.438219)" />
    <g
       style="fill:#000000;fill-opacity:1;fill-rule:evenodd;stroke:#000000;stroke-width:1;stroke-linecap:square;stroke-linejoin:miter;stroke-miterlimit:2;stroke-opacity:1"
       stroke-miterlimit="2"
       id="g5563"
       transform="matrix(0.26458333,0,0,0.26458333,-29.935278,42.438219)" />
    <g
       style="fill:#000000;fill-opacity:1;fill-rule:evenodd;stroke:#000000;stroke-width:1;stroke-linecap:square;stroke-linejoin:miter;stroke-miterlimit:2;stroke-opacity:1"
       stroke-miterlimit="2"
       id="g5565"
       transform="matrix(0.26458333,0,0,0.26458333,-29.935278,42.438219)" />
    <g
       style="fill:#000000;fill-opacity:1;fill-rule:evenodd;stroke:#000000;stroke-width:1;stroke-linecap:square;stroke-linejoin:miter;stroke-miterlimit:2;stroke-opacity:1"
       stroke-miterlimit="2"
       id="g5567"
       transform="matrix(0.26458333,0,0,0.26458333,-29.935278,42.438219)" />
    <g
       style="fill:#000000;fill-opacity:1;fill-rule:evenodd;stroke:#000000;stroke-width:1;stroke-linecap:square;stroke-linejoin:miter;stroke-miterlimit:2;stroke-opacity:1"
       stroke-miterlimit="2"
       id="g5569"
       transform="matrix(0.26458333,0,0,0.26458333,-29.935278,42.438219)" />
    <g
       style="fill:#000000;fill-opacity:1;fill-rule:evenodd;stroke:#000000;stroke-width:1;stroke-linecap:square;stroke-linejoin:miter;stroke-miterlimit:2;stroke-opacity:1"
       stroke-miterlimit="2"
       id="g5668"
       transform="matrix(0.26458333,0,0,0.26458333,-67.638343,93.317539)" />
    <g
       style="fill:#000000;fill-opacity:1;fill-rule:evenodd;stroke:#000000;stroke-width:1;stroke-linecap:square;stroke-linejoin:miter;stroke-miterlimit:2;stroke-opacity:1"
       stroke-miterlimit="2"
       id="g5670"
       transform="matrix(0.26458333,0,0,0.26458333,-67.638343,93.317539)" />
    <g
       style="fill:#000000;fill-opacity:1;fill-rule:evenodd;stroke:#000000;stroke-width:1;stroke-linecap:square;stroke-linejoin:miter;stroke-miterlimit:2;stroke-opacity:1"
       stroke-miterlimit="2"
       id="g5672"
       transform="matrix(0.26458333,0,0,0.26458333,-67.638343,93.317539)" />
    <g
       style="fill:#000000;fill-opacity:1;fill-rule:evenodd;stroke:#000000;stroke-width:1;stroke-linecap:square;stroke-linejoin:miter;stroke-miterlimit:2;stroke-opacity:1"
       stroke-miterlimit="2"
       id="g5674"
       transform="matrix(0.26458333,0,0,0.26458333,-67.638343,93.317539)" />
    <g
       style="fill:#000000;fill-opacity:1;fill-rule:evenodd;stroke:#000000;stroke-width:1;stroke-linecap:square;stroke-linejoin:miter;stroke-miterlimit:2;stroke-opacity:1"
       stroke-miterlimit="2"
       transform="matrix(0.26458333,0,0,0.26458333,-65.521676,95.434206)"
       id="g5676" />
    <g
       style="fill:#000000;fill-opacity:1;fill-rule:evenodd;stroke:#000000;stroke-width:1;stroke-linecap:square;stroke-linejoin:miter;stroke-miterlimit:2;stroke-opacity:1"
       stroke-miterlimit="2"
       transform="matrix(0.74083332,0,0,0.74083332,-48.939974,112.89671)"
       id="g5678" />
    <g
       style="fill:#000000;fill-opacity:1;fill-rule:evenodd;stroke:none;stroke-width:1;stroke-linecap:square;stroke-linejoin:bevel"
       transform="matrix(0.74083332,0,0,0.74083332,-27.825681,82.427984)"
       id="g5682">
      <path
         style="vector-effect:none;fill-rule:nonzero"
         inkscape:connector-curvature="0"
         d="m 8.98,5.42 5.6,13.22 c 0.06,0.1 0.1,0.22 0.1,0.34 0,0.38 -0.3,0.7 -0.7,0.7 h -1.66 c -0.28,0 -0.54,-0.16 -0.64,-0.42 L 10.22,15.82 H 4.56 l -1.44,3.44 c -0.1,0.26 -0.36,0.42 -0.64,0.42 H 0.82 C 0.58,19.68 0.36,19.56 0.24,19.36 0.1,19.18 0.0800002,18.92 0.18,18.72 L 5.82,5.42 C 5.92,5.16 6.18,5 6.46,5 h 1.88 c 0.28,0 0.54,0.16 0.64,0.42 v 0 M 7.4,9.06 5.74,13.04 H 9.06 L 7.4,9.06 m 19.46,3.04 c 0.68,0.44 1.18,1.06 1.5,1.82 0.18,0.46 0.26,1 0.26,1.58 0,1.9 -1.04,3.24 -3.02,3.86 -0.62,0.22 -1.36,0.32 -2.2,0.32 h -6.3 c -0.38,0 -0.7,-0.32 -0.7,-0.7 V 5.7 C 16.4,5.32 16.72,5 17.1,5 h 5.96 c 1.62,0 2.88,0.46 3.76,1.38 0.74,0.74 1.12,1.7 1.12,2.82 0,1.22 -0.36,2.2 -1.08,2.9 v 0 m -3.46,1.6 h -4.1 v 3.16 h 4.26 c 0.76,0 1.34,-0.14 1.7,-0.42 0.32,-0.26 0.48,-0.6 0.48,-1.06 0,-0.48 -0.16,-0.84 -0.5,-1.14 -0.4,-0.36 -1.02,-0.54 -1.84,-0.54 v 0 m 1.5,-3.64 C 25,9.86 25.04,9.66 25.04,9.42 25.04,9.16 25.02,8.94 24.94,8.76 24.88,8.58 24.8,8.44 24.68,8.32 24.34,7.98 23.88,7.82 23.22,7.82 H 19.3 v 3.12 h 3.76 c 1.26,0 1.66,-0.5 1.84,-0.88 v 0 M 35.58,8.22 c -0.52,0.22 -0.98,0.54 -1.34,0.96 -0.76,0.84 -1.12,1.94 -1.12,3.32 0,1.38 0.36,2.48 1.12,3.34 0.78,0.88 1.9,1.3 3.44,1.3 0.82,0 1.5,-0.2 2.1,-0.6 0.62,-0.42 1.06,-0.94 1.36,-1.64 0.1,-0.26 0.36,-0.42 0.64,-0.42 h 1.58 c 0.22,0 0.44,0.1 0.56,0.28 0.14,0.2 0.18,0.42 0.1,0.64 -0.5,1.4 -1.32,2.5 -2.44,3.3 -1.2,0.86 -2.62,1.3 -4.24,1.3 -2.14,0 -3.9,-0.74 -5.24,-2.22 -1.24,-1.4 -1.88,-3.18 -1.88,-5.28 0,-2.1 0.64,-3.88 1.88,-5.28 C 33.44,5.74 35.2,5 37.34,5 c 1.62,0 3.04,0.44 4.24,1.3 1.12,0.8 1.94,1.92 2.44,3.3 0.08,0.22 0.04,0.46 -0.1,0.64 -0.12,0.18 -0.34,0.28 -0.56,0.28 h -1.58 c -0.28,0 -0.54,-0.16 -0.64,-0.42 -0.3,-0.7 -0.74,-1.22 -1.36,-1.64 -0.6,-0.4 -1.28,-0.6 -2.1,-0.6 -0.86,0 -1.56,0.12 -2.1,0.36 v 0 M 55.16,5.5 c 0.82,0.34 1.56,0.84 2.18,1.48 1.38,1.4 2.08,3.2 2.08,5.36 0,2.16 -0.7,3.96 -2.08,5.36 -0.62,0.64 -1.36,1.14 -2.18,1.48 -0.82,0.34 -1.66,0.5 -2.54,0.5 h -5.6 c -0.38,0 -0.7,-0.32 -0.7,-0.7 V 5.7 c 0,-0.38 0.32,-0.7 0.7,-0.7 h 5.6 c 0.88,0 1.74,0.18 2.54,0.5 v 0 m -5.94,2.32 v 9.04 h 3.34 c 1.18,0 2.12,-0.42 2.86,-1.3 0.74,-0.86 1.1,-1.92 1.1,-3.22 0,-1.3 -0.36,-2.36 -1.1,-3.22 -0.74,-0.88 -1.68,-1.3 -2.86,-1.3 h -3.34 v 0 M 72.3,5 C 72.7,5 73,5.32 73,5.7 v 1.44 c 0,0.38 -0.3,0.7 -0.7,0.7 h -7.56 v 3.06 h 6.68 c 0.4,0 0.7,0.32 0.7,0.7 v 1.46 c 0,0.38 -0.3,0.7 -0.7,0.7 h -6.68 v 3.08 h 7.56 c 0.4,0 0.7,0.32 0.7,0.7 v 1.44 c 0,0.38 -0.3,0.7 -0.7,0.7 h -9.76 c -0.38,0 -0.7,-0.32 -0.7,-0.7 V 5.7 c 0,-0.38 0.32,-0.7 0.7,-0.7 h 9.76 v 0 m 13.4,0 c 0.4,0 0.7,0.32 0.7,0.7 v 1.44 c 0,0.38 -0.3,0.7 -0.7,0.7 h -7.38 v 3.22 h 6.5 c 0.4,0 0.7,0.32 0.7,0.7 v 1.46 c 0,0.38 -0.3,0.7 -0.7,0.7 h -6.5 v 5.06 c 0,0.38 -0.32,0.7 -0.7,0.7 h -1.5 c -0.38,0 -0.7,-0.32 -0.7,-0.7 V 5.7 c 0,-0.38 0.32,-0.7 0.7,-0.7 h 9.58 v 0 m 16.82,7 v 0.08 c 0.02,0.14 0.02,0.28 0.02,0.42 0,0.32 -0.02,0.64 -0.06,1.02 -0.2,1.68 -0.88,3.12 -2,4.28 -1.4,1.46 -3.22,2.2 -5.38,2.2 -2.16,0 -3.98,-0.74 -5.38,-2.2 -1.36,-1.42 -2.06,-3.2 -2.06,-5.3 0,-2.1 0.7,-3.88 2.06,-5.3 1.4,-1.46 3.22,-2.2 5.38,-2.2 2.16,0 3.98,0.74 5.38,2.2 0.54,0.56 0.98,1.2 1.32,1.9 0.06,0.1 0.1,0.24 0.1,0.38 0,0.38 -0.3,0.68 -0.7,0.68 h -1.68 c -0.24,0 -0.46,-0.12 -0.58,-0.32 C 98.78,9.6 98.62,9.38 98.42,9.18 97.58,8.3 96.5,7.86 95.1,7.86 c -1.4,0 -2.48,0.44 -3.32,1.32 -0.82,0.88 -1.22,1.96 -1.22,3.32 0,1.36 0.4,2.46 1.22,3.32 0.84,0.88 1.92,1.32 3.32,1.32 1.4,0 2.48,-0.44 3.32,-1.32 0.46,-0.48 0.78,-1.04 0.98,-1.68 h -4.18 c -0.38,0 -0.7,-0.32 -0.7,-0.7 v -1.4 c 0,-0.38 0.32,-0.7 0.7,-0.7 h 6.6 c 0.38,0 0.68,0.28 0.7,0.66 v 0 m 13.66,-7 c 0.38,0 0.68,0.32 0.68,0.7 v 13.28 c 0,0.38 -0.3,0.7 -0.68,0.7 h -1.52 c -0.38,0 -0.68,-0.32 -0.68,-0.7 v -5.22 h -6.34 v 5.22 c 0,0.38 -0.32,0.7 -0.7,0.7 h -1.5 c -0.38,0 -0.7,-0.32 -0.7,-0.7 V 5.7 c 0,-0.38 0.32,-0.7 0.7,-0.7 h 1.5 c 0.38,0 0.7,0.32 0.7,0.7 v 5.2 h 6.34 V 5.7 c 0,-0.38 0.3,-0.7 0.68,-0.7 h 1.52 v 0 m 6.12,0 c 0.38,0 0.7,0.32 0.7,0.7 v 13.28 c 0,0.38 -0.32,0.7 -0.7,0.7 h -1.5 c -0.38,0 -0.7,-0.32 -0.7,-0.7 V 5.7 c 0,-0.38 0.32,-0.7 0.7,-0.7 h 1.5 m 12.1,0 c 0.4,0 0.7,0.32 0.7,0.7 v 8.88 c 0,1.44 -0.38,2.66 -1.12,3.58 -0.88,1.12 -2.2,1.68 -3.9,1.68 -1.54,0 -2.8,-0.46 -3.72,-1.36 -0.84,-0.84 -1.3,-1.84 -1.42,-2.98 -0.02,-0.2 0.04,-0.4 0.18,-0.54 0.14,-0.14 0.32,-0.22 0.52,-0.22 h 1.56 c 0.34,0 0.64,0.24 0.68,0.58 0.08,0.44 0.28,0.8 0.62,1.1 0.4,0.38 0.94,0.56 1.66,0.56 0.82,0 1.38,-0.24 1.7,-0.74 0.22,-0.38 0.34,-0.96 0.34,-1.72 V 5.7 c 0,-0.38 0.32,-0.7 0.7,-0.7 h 1.5 m 10.8,5.58 5.62,8 c 0.16,0.22 0.18,0.5 0.06,0.72 -0.12,0.24 -0.36,0.38 -0.62,0.38 h -1.9 c -0.22,0 -0.44,-0.12 -0.56,-0.3 l -4.74,-6.82 -1.94,1.82 v 4.6 c 0,0.38 -0.32,0.7 -0.7,0.7 h -1.5 c -0.38,0 -0.7,-0.32 -0.7,-0.7 V 5.7 c 0,-0.38 0.32,-0.7 0.7,-0.7 h 1.5 c 0.38,0 0.7,0.32 0.7,0.7 v 4.76 l 5.62,-5.28 C 146.86,5.06 147.04,5 147.22,5 h 2.12 c 0.28,0 0.54,0.18 0.64,0.44 0.12,0.26 0.04,0.56 -0.16,0.76 l -4.62,4.38 m 16.72,6.26 c 0.4,0 0.7,0.32 0.7,0.7 v 1.44 c 0,0.38 -0.3,0.7 -0.7,0.7 h -8.74 c -0.38,0 -0.7,-0.32 -0.7,-0.7 V 5.7 c 0,-0.38 0.32,-0.7 0.7,-0.7 h 1.5 c 0.38,0 0.7,0.32 0.7,0.7 v 11.14 h 6.54 v 0 M 178.18,5 c 0.38,0 0.7,0.32 0.7,0.7 v 13.28 c 0,0.38 -0.32,0.7 -0.7,0.7 h -1.5 c -0.38,0 -0.7,-0.32 -0.7,-0.7 v -8.96 l -3.68,4.72 c -0.12,0.16 -0.32,0.26 -0.54,0.26 -0.22,0 -0.42,-0.1 -0.54,-0.26 L 167.46,10 v 8.98 c 0,0.38 -0.32,0.7 -0.7,0.7 h -1.5 c -0.38,0 -0.7,-0.32 -0.7,-0.7 V 5.7 c 0,-0.38 0.32,-0.7 0.7,-0.7 H 167 c 0.22,0 0.42,0.1 0.56,0.28 l 4.2,5.56 4.12,-5.56 C 176,5.1 176.22,5 176.44,5 h 1.74 v 0 m 16.1,0 c 0.38,0 0.7,0.32 0.7,0.7 v 13.28 c 0,0.38 -0.32,0.7 -0.7,0.7 h -1.76 c -0.22,0 -0.42,-0.1 -0.56,-0.28 l -6.94,-9.5 v 9.08 c 0,0.38 -0.32,0.7 -0.7,0.7 h -1.5 c -0.38,0 -0.7,-0.32 -0.7,-0.7 V 5.7 c 0,-0.38 0.32,-0.7 0.7,-0.7 h 1.74 c 0.22,0 0.44,0.1 0.56,0.28 l 6.96,9.46 V 5.7 c 0,-0.38 0.3,-0.7 0.68,-0.7 h 1.52 v 0 m 10.54,0 c 2.16,0 3.98,0.74 5.38,2.2 1.36,1.42 2.06,3.2 2.06,5.3 0,2.1 -0.7,3.88 -2.06,5.3 -1.4,1.46 -3.22,2.2 -5.38,2.2 -2.16,0 -3.98,-0.74 -5.38,-2.2 -1.36,-1.42 -2.06,-3.2 -2.06,-5.3 0,-2.1 0.7,-3.88 2.06,-5.3 1.4,-1.46 3.22,-2.2 5.38,-2.2 v 0 m 0,12.14 c 1.4,0 2.48,-0.44 3.32,-1.32 0.82,-0.86 1.22,-1.96 1.22,-3.32 0,-1.36 -0.4,-2.44 -1.22,-3.32 -0.84,-0.88 -1.92,-1.32 -3.32,-1.32 -1.4,0 -2.48,0.44 -3.32,1.32 -0.82,0.88 -1.22,1.96 -1.22,3.32 0,1.36 0.4,2.46 1.22,3.32 0.84,0.88 1.92,1.32 3.32,1.32 M 221.34,5 c 1.58,0 2.86,0.46 3.82,1.36 0.96,0.9 1.44,2.12 1.44,3.62 0,1.5 -0.48,2.72 -1.44,3.62 -0.96,0.9 -2.24,1.34 -3.82,1.34 h -3.78 v 4.04 c 0,0.38 -0.32,0.7 -0.7,0.7 h -1.5 c -0.38,0 -0.7,-0.32 -0.7,-0.7 V 5.7 c 0,-0.38 0.32,-0.7 0.7,-0.7 h 5.98 m -3.78,2.82 v 4.32 h 3.68 c 0.86,0 1.48,-0.18 1.88,-0.56 0.4,-0.38 0.58,-0.9 0.58,-1.6 0,-0.7 -0.18,-1.22 -0.58,-1.58 -0.4,-0.38 -1.04,-0.58 -1.88,-0.58 h -3.68 v 0 M 240.58,7.2 c 1.36,1.4 2.06,3.18 2.06,5.28 0,1.82 -0.52,3.4 -1.56,4.72 l 0.82,0.8 c 0.26,0.28 0.26,0.72 0,1 l -1.06,1.06 c -0.14,0.12 -0.32,0.2 -0.5,0.2 -0.18,0 -0.36,-0.08 -0.5,-0.2 l -0.96,-0.98 c -1.08,0.58 -2.3,0.88 -3.66,0.88 -2.16,0 -3.96,-0.74 -5.36,-2.2 -1.36,-1.4 -2.06,-3.18 -2.06,-5.28 0,-2.1 0.7,-3.88 2.06,-5.28 1.4,-1.46 3.2,-2.2 5.36,-2.2 2.16,0 3.96,0.74 5.36,2.2 v 0 m -5,7.6 1.06,-1.06 c 0.28,-0.28 0.72,-0.28 0.98,0 l 1.42,1.4 c 0.48,-0.74 0.7,-1.62 0.7,-2.66 0,-1.36 -0.4,-2.44 -1.2,-3.3 -0.84,-0.9 -1.94,-1.32 -3.32,-1.32 -1.4,0 -2.48,0.42 -3.32,1.32 -0.82,0.86 -1.22,1.94 -1.22,3.3 0,1.36 0.4,2.44 1.22,3.3 0.84,0.9 1.92,1.32 3.32,1.32 0.52,0 1.02,-0.06 1.48,-0.2 l -1.12,-1.12 c -0.14,-0.12 -0.2,-0.3 -0.2,-0.48 0,-0.2 0.06,-0.36 0.2,-0.5 v 0 m 18.68,-0.78 2.98,4.58 c 0.14,0.22 0.14,0.5 0.02,0.72 -0.12,0.22 -0.36,0.36 -0.6,0.36 h -1.8 c -0.24,0 -0.46,-0.12 -0.58,-0.32 l -3,-4.78 h -3.54 v 4.4 c 0,0.38 -0.32,0.7 -0.7,0.7 h -1.5 c -0.38,0 -0.7,-0.32 -0.7,-0.7 V 5.7 c 0,-0.38 0.32,-0.7 0.7,-0.7 h 6.36 c 1.52,0 2.78,0.44 3.72,1.3 0.96,0.88 1.44,2.06 1.44,3.56 0,1.92 -0.86,3.32 -2.48,4.02 -0.1,0.06 -0.22,0.1 -0.32,0.14 v 0 m -6.52,-6.2 v 3.94 h 3.9 c 1.16,0 1.92,-0.32 2.34,-0.98 0.12,-0.22 0.2,-0.54 0.2,-0.92 0,-0.66 -0.2,-1.12 -0.62,-1.48 C 253.1,8 252.5,7.82 251.72,7.82 h -3.98 v 0 m 21.62,4.6 c 1.12,0.72 1.74,1.78 1.74,3.06 0,1.48 -0.58,2.62 -1.7,3.42 -1.04,0.72 -2.48,1.1 -4.26,1.1 -2.02,0 -3.6,-0.44 -4.7,-1.32 -1.02,-0.82 -1.6,-1.98 -1.74,-3.44 -0.02,-0.2 0.04,-0.4 0.18,-0.54 0.14,-0.14 0.32,-0.22 0.52,-0.22 h 1.56 c 0.38,0 0.68,0.28 0.7,0.64 0.04,0.68 0.34,1.16 0.98,1.54 0.6,0.34 1.46,0.52 2.52,0.52 3.04,0 3.04,-1.2 3.04,-1.64 0,-0.32 -0.12,-0.52 -0.38,-0.7 -0.38,-0.26 -0.88,-0.48 -1.48,-0.66 -0.66,-0.2 -1.38,-0.38 -2.14,-0.56 -0.82,-0.18 -1.6,-0.42 -2.3,-0.7 -0.76,-0.32 -1.42,-0.72 -1.92,-1.24 -0.58,-0.58 -0.88,-1.36 -0.88,-2.3 0,-1.3 0.5,-2.38 1.5,-3.2 0.96,-0.78 2.36,-1.18 4.2,-1.18 1.84,0 3.3,0.44 4.36,1.32 0.98,0.8 1.52,1.86 1.58,3.14 0.02,0.18 -0.06,0.38 -0.18,0.52 -0.14,0.12 -0.32,0.2 -0.5,0.2 h -1.56 c -0.34,0 -0.64,-0.26 -0.68,-0.6 -0.06,-0.52 -0.3,-1.24 -1.62,-1.6 -0.4,-0.12 -0.92,-0.18 -1.52,-0.18 -0.6,0 -1.1,0.06 -1.48,0.2 -0.38,0.12 -0.66,0.26 -0.84,0.42 -0.16,0.14 -0.26,0.28 -0.3,0.42 -0.06,0.2 -0.1,0.42 -0.1,0.64 0,0.04 0,0.16 0.18,0.34 0.2,0.18 0.46,0.36 0.8,0.48 0.4,0.18 0.86,0.32 1.38,0.44 0.54,0.14 1.1,0.28 1.68,0.42 0.58,0.14 1.16,0.3 1.72,0.48 0.6,0.2 1.16,0.46 1.64,0.78 v 0 M 283.56,5 c 0.38,0 0.68,0.32 0.68,0.7 v 1.44 c 0,0.38 -0.3,0.7 -0.68,0.7 h -3.94 v 11.14 c 0,0.38 -0.32,0.7 -0.7,0.7 h -1.5 c -0.4,0 -0.7,-0.32 -0.7,-0.7 V 7.84 h -3.94 c -0.38,0 -0.7,-0.32 -0.7,-0.7 V 5.7 c 0,-0.38 0.32,-0.7 0.7,-0.7 h 10.78 v 0 m 14.42,0 c 0.38,0 0.7,0.32 0.7,0.7 v 7.56 c 0,1.94 -0.6,3.54 -1.78,4.76 -1.18,1.2 -2.72,1.82 -4.58,1.82 -1.86,0 -3.38,-0.62 -4.56,-1.82 -1.18,-1.22 -1.78,-2.82 -1.78,-4.76 V 5.7 c 0,-0.38 0.32,-0.7 0.7,-0.7 h 1.5 c 0.38,0 0.7,0.32 0.7,0.7 v 7.6 c 0,1.24 0.34,2.18 1.06,2.84 0.6,0.56 1.38,0.84 2.38,0.84 0.98,0 1.78,-0.28 2.4,-0.84 0.7,-0.66 1.06,-1.58 1.06,-2.84 V 5.7 c 0,-0.38 0.3,-0.7 0.68,-0.7 h 1.52 v 0 m 15.42,0 c 0.22,0 0.44,0.12 0.58,0.3 0.12,0.2 0.16,0.44 0.06,0.66 l -5.38,13.28 c -0.1,0.26 -0.36,0.44 -0.64,0.44 h -1.72 c -0.3,0 -0.54,-0.18 -0.66,-0.44 L 300.26,5.96 C 300.18,5.74 300.2,5.5 300.34,5.3 300.46,5.12 300.68,5 300.92,5 h 1.64 c 0.28,0 0.54,0.18 0.64,0.44 l 3.96,9.94 3.94,-9.94 C 311.22,5.18 311.46,5 311.76,5 h 1.64 v 0 m 20.52,0 c 0.22,0 0.42,0.1 0.56,0.28 0.14,0.18 0.18,0.42 0.1,0.62 l -4.12,13.3 c -0.1,0.28 -0.36,0.48 -0.68,0.48 h -1.7 c -0.3,0 -0.58,-0.2 -0.66,-0.48 l -2.94,-9.1 -2.92,9.1 c -0.1,0.28 -0.36,0.48 -0.66,0.48 h -1.72 c -0.3,0 -0.56,-0.2 -0.66,-0.48 L 314.4,5.9 C 314.32,5.7 314.36,5.46 314.5,5.28 314.62,5.1 314.84,5 315.06,5 h 1.58 c 0.3,0 0.58,0.2 0.66,0.5 l 2.76,9.02 2.9,-9.04 C 323.06,5.2 323.32,5 323.62,5 h 1.74 c 0.3,0 0.56,0.2 0.66,0.48 l 2.88,9.04 2.76,-9.02 c 0.1,-0.3 0.36,-0.5 0.68,-0.5 h 1.58 v 0 m 9.54,7.12 4.92,6.38 c 0.12,0.12 0.2,0.3 0.2,0.48 0,0.38 -0.32,0.7 -0.7,0.7 h -1.9 c -0.22,0 -0.44,-0.1 -0.56,-0.28 l -3.76,-4.96 -3.74,4.96 c -0.14,0.18 -0.34,0.28 -0.56,0.28 h -1.9 c -0.26,0 -0.52,-0.16 -0.62,-0.38 -0.12,-0.24 -0.1,-0.54 0.06,-0.74 l 4.98,-6.44 -4.62,-6 C 335.1,5.92 335.08,5.62 335.2,5.38 335.3,5.16 335.56,5 335.82,5 h 1.9 c 0.22,0 0.42,0.1 0.56,0.28 l 3.38,4.48 3.4,-4.48 C 345.18,5.1 345.4,5 345.62,5 h 1.9 c 0.26,0 0.5,0.16 0.62,0.38 0.12,0.24 0.1,0.54 -0.08,0.74 l -4.6,6 M 361.86,5 c 0.26,0 0.5,0.14 0.62,0.38 0.12,0.22 0.1,0.5 -0.04,0.72 L 357,13.94 v 5.04 c 0,0.38 -0.32,0.7 -0.7,0.7 h -1.5 c -0.38,0 -0.7,-0.32 -0.7,-0.7 V 13.94 L 348.64,6.1 C 348.5,5.88 348.48,5.6 348.6,5.38 348.72,5.14 348.96,5 349.22,5 h 1.82 c 0.24,0 0.44,0.12 0.58,0.3 l 3.92,5.64 3.92,-5.64 C 359.6,5.12 359.8,5 360.04,5 h 1.82 v 0 m 13.18,2.14 c 0,0.16 -0.04,0.32 -0.16,0.44 l -7.72,9.3 h 7.2 c 0.38,0 0.68,0.32 0.68,0.7 v 1.4 c 0,0.38 -0.3,0.7 -0.68,0.7 h -10.52 c -0.38,0 -0.7,-0.32 -0.7,-0.7 v -1.42 c 0,-0.16 0.06,-0.32 0.16,-0.44 l 7.72,-9.32 h -7.06 c -0.38,0 -0.7,-0.32 -0.7,-0.7 V 5.7 c 0,-0.38 0.32,-0.7 0.7,-0.7 h 10.4 c 0.38,0 0.68,0.32 0.68,0.7 v 1.44 0"
         id="path5680" />
    </g>
    <g
       style="fill:#000000;fill-opacity:1;fill-rule:evenodd;stroke:#000000;stroke-width:1;stroke-linecap:square;stroke-linejoin:miter;stroke-miterlimit:2;stroke-opacity:1"
       stroke-miterlimit="2"
       transform="matrix(0.74083332,0,0,0.74083332,-48.939974,112.89671)"
       id="g5684" />
    <g
       style="fill:#000000;fill-opacity:1;fill-rule:evenodd;stroke:#000000;stroke-width:1;stroke-linecap:square;stroke-linejoin:miter;stroke-miterlimit:2;stroke-opacity:1"
       stroke-miterlimit="2"
       transform="matrix(0.26458333,0,0,0.26458333,-65.521676,95.434206)"
       id="g5686" />
    <g
       style="fill:#000000;fill-opacity:1;fill-rule:evenodd;stroke:#000000;stroke-width:1;stroke-linecap:square;stroke-linejoin:miter;stroke-miterlimit:2;stroke-opacity:1"
       stroke-miterlimit="2"
       transform="matrix(0.84666666,0,0,0.84666666,-66.105032,124.53043)"
       id="g5688" />
    <path
       id="path5690"
       d="m -30.096688,117.86516 c 0.07163,0.14368 0.0287,0.25832 -0.129117,0.25832 h -1.305899 c -0.129201,0 -0.200829,-0.0572 -0.24384,-0.15782 l -0.889677,-1.86555 h -6.184993 l -0.875369,1.86555 c -0.0574,0.10058 -0.12915,0.15782 -0.243958,0.15782 h -1.320208 c -0.143501,0 -0.215256,-0.11464 -0.157852,-0.25832 l 5.41003,-11.16415 c 0.04305,-0.10041 0.1148,-0.12911 0.186555,-0.12911 h 0.186411 c 0.07176,0 0.12915,0.0287 0.186554,0.12911 l 5.381363,11.16415 m -8.0507,-3.24299 h 4.778672 l -2.382182,-5.08 -2.39649,5.08 m 17.207315,-2.6118 c 1.19109,0.54534 1.937258,1.6361 1.937258,2.91321 0,1.89425 -1.664632,3.19998 -3.429677,3.19998 h -4.635162 c -0.14351,0 -0.244009,-0.10041 -0.244009,-0.24392 v -11.00667 c 0,-0.1292 0.08611,-0.22962 0.229616,-0.22962 h 4.276513 c 1.822366,0 3.185583,1.59292 3.185583,3.02794 0,1.04758 -0.559646,1.86554 -1.320207,2.33908 h 8.5e-5 m -2.181183,-0.47337 c 2.382181,0 2.425192,-3.32926 0.0287,-3.32926 h -2.597404 v 3.32926 h 2.568702 v 0 m 0.315638,5.0226 c 2.812626,0 2.827019,-3.50148 -0.0287,-3.50148 h -2.855722 l 0.01431,3.50148 h 2.870031 8.5e-5 m 16.6621454,-0.4881 c 0.1147233,0.10041 0.1148926,0.22978 -0.014224,0.35873 -1.0618893,1.11946 -2.511298,1.79375 -4.2333334,1.79375 -3.185753,0 -5.826252,-2.55423 -5.826252,-5.81169 0,-3.25747 2.640415,-5.86927 5.826252,-5.86927 1.6933334,0 3.1855834,0.67446 4.2618661,1.80815 0.1291166,0.12903 0.1291166,0.25823 0.014309,0.34425 l -0.9183793,0.74608 c -0.114808,0.10059 -0.2152227,0.10059 -0.3300307,-0.0142 -0.6170506,-0.64575 -1.6790246,-1.32021 -2.9705301,-1.32021 -2.583011,0 -4.262036,2.15257 -4.262036,4.30505 0,2.16687 1.679025,4.24764 4.262036,4.24764 1.2771968,0 2.3103841,-0.64575 2.9274348,-1.2772 0.114808,-0.12911 0.229616,-0.14334 0.344424,-0.0573 l 0.918464,0.74626 m 7.09024059,-9.42798 c 3.81719661,0 5.86943191,2.95631 5.86943191,5.68275 0,2.99923 -2.0664593,5.79755 -5.85495391,5.79755 H -2.8846526 c -0.1435947,0 -0.244094,-0.10042 -0.244094,-0.24393 v -11.00667 c 0,-0.1292 0.086106,-0.22961 0.229616,-0.22961 h 3.84589859 v -9e-5 m 0.0432647,9.91608 c 2.65480791,0 4.17609861,-2.08077 4.16170531,-4.24764 0,-2.12387 -1.4638867,-4.10422 -4.16170531,-4.10422 H -1.5212653 l 0.014393,8.35186 h 2.49698933 -8.467e-5 M 17.379552,108.20732 h -5.697051 v 3.50147 h 3.300561 c 0.14351,0 0.243925,0.10042 0.243925,0.24393 v 1.07628 c 0,0.1579 -0.100415,0.24401 -0.243925,0.24401 h -3.300561 l 0.01422,3.28625 h 5.682827 c 0.143425,0 0.243925,0.10041 0.243925,0.24392 v 1.07629 c 0,0.14351 -0.100415,0.24401 -0.243925,0.24401 H 10.30489 c -0.14351,0 -0.244179,-0.1005 -0.244179,-0.24401 V 106.8728 c 0,-0.12912 0.08628,-0.22962 0.229616,-0.22962 h 7.089225 c 0.14351,0 0.244009,0.1005 0.244009,0.22962 v 1.10499 c 0,0.14351 -0.100499,0.22961 -0.244009,0.22961 v -8e-5 m 10.419503,-1.5638 c 0.143679,0 0.244263,0.10042 0.244263,0.22962 v 1.10498 c 0,0.14351 -0.08611,0.22962 -0.244094,0.22962 H 22.23129 v 3.50147 h 3.171444 c 0.14351,0 0.243925,0.10042 0.243925,0.24393 v 1.07628 c 0,0.15791 -0.100415,0.24401 -0.243925,0.24401 H 22.23129 v 4.60646 c 0,0.15782 -0.08611,0.24376 -0.215307,0.24376 h -0.860975 c -0.344339,0 -0.545253,-0.24376 -0.545253,-0.57387 v -10.67647 c 0,-0.12912 0.08611,-0.22962 0.229531,-0.22962 h 6.959769 v -1.7e-4 m 12.614995,6.37142 c 0.172212,0 0.244263,0.0864 0.244263,0.24427 v 2.97053 c 0,0.0717 -0.0431,0.14351 -0.100415,0.20074 -1.061974,1.11946 -2.511382,1.79375 -4.233333,1.79375 -3.185837,0 -5.826252,-2.55422 -5.826252,-5.81169 0,-3.25746 2.64033,-5.86926 5.826252,-5.86926 1.693333,0 3.185499,0.67445 4.261866,1.80814 0.129117,0.12903 0.129117,0.25815 0.01431,0.34425 l -0.91838,0.74609 c -0.114808,0.10058 -0.215222,0.10058 -0.33003,-0.0142 -0.617051,-0.64575 -1.679025,-1.3202 -2.97053,-1.3202 -2.583011,0 -4.262036,2.15256 -4.262036,4.30504 0,2.16688 1.679025,4.24764 4.262036,4.24764 1.119293,0 2.037757,-0.48793 2.669116,-1.03318 v -1.06189 H 36.42481 c -0.157903,0 -0.244094,-0.0717 -0.244094,-0.22962 v -1.06206 c 0,-0.17221 0.07171,-0.25832 0.229532,-0.25832 h 4.003717 8.5e-5 m 12.702201,-6.37142 c 0.143087,0 0.24384,0.10059 0.24384,0.22979 v 11.00667 c 0,0.15781 -0.08636,0.24375 -0.215053,0.24375 h -0.846667 c -0.358987,0 -0.559647,-0.24375 -0.559647,-0.57387 v -4.24764 h -6.31444 v 4.57776 c 0,0.1292 -0.100753,0.24384 -0.229446,0.24384 h -1.14808 c -0.143934,0 -0.24384,-0.10042 -0.24384,-0.24393 v -11.00667 c 0,-0.1292 0.08551,-0.22961 0.229446,-0.22961 h 1.14808 c 0.143087,0 0.24384,0.10041 0.24384,0.22961 v 4.80738 h 6.31444 v -4.80738 c 0,-0.1292 0.08551,-0.22961 0.229447,-0.22961 h 1.14808 v -9e-5 m 5.1816,0 -1.1049,-1.7e-4 c -0.143933,0 -0.229447,0.1005 -0.229447,0.22962 v 11.00667 c 0,0.14351 0.09991,0.24401 0.24384,0.24401 h 1.1049 c 0.128694,0 0.215054,-0.11473 0.215054,-0.24384 v -11.00667 c 0,-0.12912 -0.09991,-0.22962 -0.229447,-0.22962 v 0 m 5.35432,0 c 0.35814,0 0.5588,0.24367 0.5588,0.5737 v 12.18354 c -0.01439,1.40631 -0.7747,2.52577 -1.8796,3.11412 -0.15748,0.0718 -0.258233,0.0574 -0.3302,-0.0717 l -0.545253,-1.04758 c -0.07112,-0.14334 -0.04233,-0.24401 0.115146,-0.30133 0.602827,-0.34442 1.01854,-0.9326 1.01854,-1.73626 v -11.7094 c -0.01439,-0.31572 -0.05673,-0.50233 -0.08551,-0.71755 -0.02879,-0.15782 0.01439,-0.28702 0.15748,-0.28702 h 0.9906 v -5.1e-4 m 12.6873,10.94918 c 0.215053,0.22953 0.09991,0.5312 -0.2159,0.5312 H 74.91792 c -0.128693,0 -0.20066,-0.0285 -0.301413,-0.12903 l -5.36702,-5.65404 v 5.55354 c 0,0.12903 -0.09991,0.22953 -0.229447,0.22953 h -1.162473 c -0.128693,0 -0.229447,-0.1005 -0.229447,-0.22953 v -10.18879 c -0.01439,-0.33003 -0.04318,-0.53094 -0.08636,-0.77487 -0.02794,-0.1579 0.01439,-0.28702 0.158327,-0.28702 h 0.9906 c 0.343747,0 0.559647,0.20092 0.559647,0.51664 v 4.79298 l 4.735406,-5.18042 c 0.07197,-0.0863 0.15748,-0.12928 0.28702,-0.12928 h 1.233594 c 0.28702,0 0.387773,0.30133 0.2159,0.48776 l -4.606714,5.0226 5.223934,5.43873 m 9.88822,-1.03344 c 0.12954,0 0.229446,0.0861 0.229446,0.24392 v 1.0906 c 0,0.12903 -0.100753,0.22953 -0.229446,0.22953 H 79.45436 c -0.12954,0 -0.186266,-0.1005 -0.186266,-0.22953 v -11.02106 c 0,-0.12912 0.08551,-0.22962 0.229446,-0.22962 h 1.162474 c 0.128693,0 0.229446,0.1005 0.229446,0.22962 v 9.68671 h 5.338234 v -1.7e-4 m 16.403316,-9.91574 c 0.12954,0 0.23029,0.10059 0.23029,0.24427 v 10.99227 c 0,0.12912 -0.0864,0.24376 -0.22944,0.24376 h -1.13369 c -0.15833,0 -0.24384,-0.10042 -0.24384,-0.24393 v -7.90702 l -4.678676,7.6487 c -0.07197,0.11481 -0.143087,0.17221 -0.258234,0.17221 h -0.07197 c -0.1143,0 -0.186267,-0.0574 -0.258234,-0.17221 l -4.66344,-7.6487 v 7.90702 c 0,0.12912 -0.100753,0.24384 -0.24384,0.24384 H 89.94625 c -0.143934,0 -0.244687,-0.1005 -0.244687,-0.24401 v -11.00667 c 0,-0.12911 0.08636,-0.22961 0.229447,-0.22961 h 0.976206 c 0.128694,0 0.215054,0.0431 0.28702,0.1579 l 5.094394,8.32333 5.09439,-8.32333 c 0.0567,-0.11481 0.14309,-0.1579 0.28702,-0.1579 h 0.96097 v 8e-5 m 13.43406,0 c 0.12869,0 0.22945,0.10059 0.22945,0.2154 v 11.04984 c 0,0.11481 -0.0855,0.21531 -0.21506,0.21531 h -0.40132 c -0.30141,0 -0.61722,-0.21531 -1.01938,-0.66015 l -6.65819,-7.6487 v 8.06484 c 0,0.12912 -0.10075,0.22962 -0.22945,0.22962 l -1.13368,0.0142 c -0.14394,0 -0.24469,-0.1005 -0.24469,-0.24401 v -11.00667 c 0,-0.12911 0.10075,-0.22961 0.23029,-0.22961 h 0.67395 c 0.12954,0 0.21505,0.0574 0.3302,0.1866 l 7.06035,8.23705 v -8.20834 c 0,-0.11481 0.0855,-0.21531 0.21506,-0.21531 h 1.16247 v -9e-5 m 9.42933,11.58037 c 3.22918,0 5.8547,-2.56853 5.8547,-5.85478 0,-3.24316 -2.62552,-5.82626 -5.8547,-5.82626 -3.25798,0 -5.88349,2.58302 -5.88349,5.82626 0,3.28625 2.62551,5.85478 5.88349,5.85478 m 0,-1.56396 c -2.32495,0 -4.26212,-1.93726 -4.26212,-4.29074 0,-2.32461 1.93717,-4.26186 4.26212,-4.26186 2.31055,0 4.24772,1.93725 4.24772,4.26186 0,2.35348 -1.93717,4.29074 -4.24772,4.29074 m 13.57714,-10.01641 c 2.49682,0 3.93192,2.10947 3.93192,3.8459 0,1.83685 -1.4351,3.8746 -3.93192,3.8746 h -2.8558 v 3.51579 c 0,0.15781 -0.0864,0.24384 -0.22945,0.24384 h -1.16247 c -0.14394,0 -0.2303,-0.086 -0.2303,-0.24384 v -11.00667 c 0,-0.12912 0.0864,-0.22962 0.2303,-0.22962 h 4.24688 8.4e-4 m -0.12954,6.15612 c 1.57904,0 2.45449,-1.16239 2.45449,-2.31039 0,-1.13368 -0.87545,-2.28168 -2.45449,-2.28168 h -2.72626 v 4.59207 h 2.72626 m 17.68094,5.98398 c 0.17188,0.14351 0.10076,0.33003 -0.0144,0.40175 l -0.86106,0.53103 c -0.30141,0.18635 -0.61722,0.1148 -0.78909,-0.17222 l -1.07612,-1.79374 c -0.71797,0.30132 -1.50706,0.47337 -2.32494,0.47337 -3.25713,0 -5.88349,-2.56854 -5.88349,-5.85479 0,-3.24315 2.62636,-5.82625 5.88349,-5.82625 3.22918,0 5.8547,2.58301 5.8547,5.82625 0,1.83685 -0.81788,3.45838 -2.12344,4.52036 l 0.54525,0.90407 c 0.35899,0.55964 0.57404,0.80365 0.78909,0.99017 v 0 m -9.32772,-6.41434 c 0,2.08076 1.50706,3.8315 3.47302,4.20463 l -0.072,-0.0143 c -0.41656,-0.30125 -0.60283,-0.73194 -0.60283,-1.19109 0,-0.96148 0.78909,-1.75074 1.8796,-1.75074 0.77555,0 1.37753,0.30133 1.96596,1.10499 0.17272,0.24392 0.3302,0.50224 0.50292,0.77486 0.83227,-0.78926 1.36313,-1.90855 1.36313,-3.12834 0,-2.32461 -1.93717,-4.26187 -4.24772,-4.26187 -2.32495,0 -4.26212,1.93726 -4.26212,4.26187 v 0 m 4.26212,4.29073 c 0.51646,0 1.01854,-0.10033 1.47828,-0.27254 l -0.28702,-0.48785 c -0.30142,-0.48793 -0.63162,-0.68902 -1.1049,-0.68902 -0.44535,0 -0.80349,0.37313 -0.80349,0.83236 0,0.21539 0.1143,0.44484 0.35814,0.60274 0.11515,0.0143 0.24384,0.0143 0.35899,0.0143 v 0 m 17.35074,1.19084 c 0.10075,0.14351 0.0288,0.27263 -0.15748,0.27263 h -1.06257 c -0.31496,0 -0.57404,-0.28685 -0.68834,-0.45907 l -2.23859,-3.30056 h -2.84141 v 3.51579 c 0,0.15782 -0.0864,0.24384 -0.22945,0.24384 h -1.16247 c -0.14393,0 -0.22945,-0.086 -0.22945,-0.24384 v -11.00667 c 0,-0.12912 0.0855,-0.22962 0.22945,-0.22962 h 4.4196 c 2.51121,0 3.85995,2.13818 3.85995,3.86013 0,1.43501 -0.86021,3.04241 -2.48242,3.63059 l 2.58318,3.71678 m -6.98839,-9.64353 v 4.59206 h 2.84141 c 1.62222,0 2.4257,-1.16239 2.4257,-2.32477 0,-1.148 -0.81788,-2.26738 -2.4257,-2.26738 h -2.84141 v 9e-5 m 9.75953,7.9502 0.63161,-0.71764 c 0.15748,-0.17221 0.3302,-0.17221 0.45889,-0.0718 0.38778,0.33012 1.36398,1.3059 2.66954,1.3059 1.4351,0 2.29616,-0.68876 2.29616,-1.63593 0,-1.17669 -1.29201,-1.50681 -2.52645,-1.98035 -1.8796,-0.74617 -3.37227,-1.57852 -3.37227,-3.37236 0,-1.46371 1.07696,-3.12835 3.65929,-3.12835 1.7653,0 3.04292,1.01888 3.40106,1.36331 0.12954,0.1292 0.20151,0.30141 0.0864,0.44484 l -0.55965,0.73194 c -0.11514,0.15799 -0.27262,0.21539 -0.45889,0.0862 -0.37338,-0.28702 -1.26323,-1.09059 -2.45449,-1.09059 -1.29116,0 -2.05147,0.71755 -2.05147,1.59292 0,0.99017 0.94657,1.392 2.29616,1.90855 1.72212,0.68885 3.58733,1.49242 3.58733,3.45838 0,1.67903 -1.60698,3.17128 -3.88874,3.17128 -2.06672,0 -3.34349,-1.33443 -3.70248,-1.67886 -0.11514,-0.10041 -0.21505,-0.22945 -0.072,-0.38743 v 0 m 19.11604,-9.514 c 0.12869,0 0.22944,0.0861 0.22944,0.22962 v 1.10498 c 0,0.12912 -0.10075,0.22962 -0.23029,0.22962 h -3.45779 v 9.67232 c 0,0.15782 -0.0864,0.24376 -0.22944,0.24376 h -0.83228 c -0.37338,0 -0.55964,-0.24376 -0.55964,-0.57388 v -9.34212 h -3.45864 c -0.12869,0 -0.24384,-0.086 -0.24384,-0.22953 v -1.0905 c 0,-0.14368 0.10076,-0.24418 0.24384,-0.24418 h 8.53864 v -9e-5 m 12.08447,-0.0144 h -1.16247 c -0.14309,0 -0.22945,0.0863 -0.22945,0.24409 v 6.93116 c 0,1.90855 -1.34874,2.85572 -2.94217,2.85572 -1.56379,0 -2.8702,-0.94708 -2.8702,-2.85572 v -6.93116 c 0,-0.15781 -0.0855,-0.24409 -0.22944,-0.24409 h -1.13369 c -0.15748,0 -0.25823,0.0863 -0.25823,0.24409 v 7.04596 c 0,2.38219 1.66454,4.30497 4.49156,4.30497 2.84142,0 4.54914,-1.92278 4.56354,-4.30497 v -7.04596 c 0,-0.15781 -0.0864,-0.24409 -0.22945,-0.24409 v 0 m 14.0081,0.0144 c 0.12869,0 0.27178,0.11481 0.18627,0.30133 l -5.28151,11.06424 c -0.0423,0.1005 -0.14309,0.18644 -0.25823,0.18644 h -0.1143 c -0.11515,0 -0.21506,-0.0859 -0.25824,-0.18644 l -5.2815,-11.07863 c -0.0855,-0.17221 0.0576,-0.28702 0.18711,-0.28702 h 1.44949 c 0.14309,0 0.20066,0.11481 0.25824,0.25832 l 3.70247,8.06484 3.70247,-8.06484 c 0.0711,-0.14351 0.1143,-0.25824 0.25824,-0.25824 h 1.44949 v 0 m 17.70888,-0.0144 c 0.12954,0 0.27263,0.11498 0.18627,0.3015 l -5.38142,11.06424 c -0.0423,0.10041 -0.14308,0.18643 -0.25823,0.18643 h -0.1143 c -0.12954,0 -0.21505,-0.086 -0.27263,-0.18643 l -1.7509,-3.67369 -1.75091,3.688 c -0.0576,0.10041 -0.14393,0.18643 -0.27263,0.18643 h -0.1143 c -0.11514,0 -0.2159,-0.086 -0.25908,-0.18643 l -5.38056,-11.07864 c -0.0864,-0.17221 0.0567,-0.28702 0.18626,-0.28702 h 1.46389 c 0.12869,0 0.18627,0.11481 0.25823,0.25832 l 3.78799,8.10794 1.17687,-2.58302 -2.61197,-5.51053 c -0.0855,-0.17221 0.0576,-0.28702 0.18711,-0.28702 h 1.4495 c 0.14308,0 0.20066,0.11481 0.25823,0.25849 l 1.62137,3.55888 1.62136,-3.54448 c 0.0576,-0.14351 0.11515,-0.25832 0.25908,-0.25832 h 1.44865 c 0.14393,0 0.27263,0.11481 0.18711,0.30133 l -2.61196,5.48165 1.17686,2.58302 3.78799,-8.12225 c 0.072,-0.14359 0.12954,-0.2584 0.25908,-0.2584 h 1.46304 v 0 m 8.23891,5.7542 3.85996,5.49614 c 0.0864,0.11481 0.0288,0.24384 -0.10076,0.24384 h -1.56379 c -0.14393,0 -0.18627,-0.11473 -0.28702,-0.24384 l -2.88459,-4.11853 -2.88375,4.11853 c -0.0864,0.12911 -0.14393,0.24384 -0.27347,0.24384 h -1.57819 c -0.12869,0 -0.17187,-0.12903 -0.10075,-0.24384 l 3.8608,-5.49614 -3.8752,-5.52484 c -0.0711,-0.11481 -0.0135,-0.21522 0.10076,-0.21522 h 1.59258 c 0.11514,0 0.17272,0.086 0.24384,0.21522 l 2.91338,4.1474 2.91338,-4.1474 c 0.0864,-0.12911 0.12869,-0.21522 0.24384,-0.21522 h 1.59258 c 0.12954,0 0.17272,0.10041 0.10075,0.21522 l -3.87435,5.52484 m 16.27463,-5.73981 c 0.11515,0 0.20066,0.12912 0.1143,0.25815 l -4.39081,6.54372 v 4.43425 c 0,0.1579 -0.0864,0.24384 -0.22945,0.24384 h -0.83227 c -0.35899,0 -0.55965,-0.24384 -0.55965,-0.57387 v -4.10422 l -4.39166,-6.54372 c -0.0711,-0.12903 0,-0.25815 0.12954,-0.25815 h 1.44949 c 0.1143,0 0.17188,0.10042 0.24384,0.21523 l 3.37228,4.96519 3.37227,-4.96519 c 0.0864,-0.11481 0.12954,-0.21523 0.25823,-0.21523 h 1.46389 v 0 m 10.36151,9.85834 c 0.15832,0 0.24384,0.0863 0.24384,0.22978 v 0.83227 c 0,0.35874 -0.24384,0.55957 -0.58844,0.55957 h -7.53364 c -0.12954,0 -0.22944,-0.086 -0.22944,-0.22953 v -0.28694 l 0.0576,-0.0861 5.72516,-9.27015 h -5.48132 c -0.14393,0 -0.25823,-0.0861 -0.25823,-0.22962 v -1.13351 c 0,-0.14368 0.0999,-0.2441 0.25823,-0.2441 h 7.77748 c 0.14393,0 0.24384,0.0861 0.24384,0.22962 v 0.24375 l -0.0288,0.0431 -5.73955,9.34212 h 5.55329 v -2.5e-4"
       inkscape:connector-curvature="0"
       style="vector-effect:none;fill:#000000;fill-opacity:1;fill-rule:nonzero;stroke:none;stroke-width:0.84666663;stroke-linecap:square;stroke-linejoin:bevel" />
    <g
       style="fill:#000000;fill-opacity:1;fill-rule:evenodd;stroke:#000000;stroke-width:1;stroke-linecap:square;stroke-linejoin:miter;stroke-miterlimit:2;stroke-opacity:1"
       stroke-miterlimit="2"
       transform="matrix(0.84666666,0,0,0.84666666,-66.105032,124.53043)"
       id="g5694" />
    <g
       style="fill:#000000;fill-opacity:1;fill-rule:evenodd;stroke:#000000;stroke-width:1;stroke-linecap:square;stroke-linejoin:miter;stroke-miterlimit:2;stroke-opacity:1"
       stroke-miterlimit="2"
       transform="matrix(0.26458333,0,0,0.26458333,-65.521676,95.434206)"
       id="g5696" />
    <g
       style="fill:#000000;fill-opacity:1;fill-rule:evenodd;stroke:#000000;stroke-width:1;stroke-linecap:square;stroke-linejoin:miter;stroke-miterlimit:2;stroke-opacity:1"
       stroke-miterlimit="2"
       transform="matrix(0.36220664,0,0,0.36220664,73.264716,95.780881)"
       id="g5698" />
    <g
       style="fill:#000000;fill-opacity:1;fill-rule:evenodd;stroke:#000000;stroke-width:1;stroke-linecap:square;stroke-linejoin:miter;stroke-miterlimit:2;stroke-opacity:1"
       stroke-miterlimit="2"
       transform="matrix(0.36220664,0,0,0.36220664,73.264716,95.780881)"
       id="g5704" />
    <g
       style="fill:#000000;fill-opacity:1;fill-rule:evenodd;stroke:#000000;stroke-width:1;stroke-linecap:square;stroke-linejoin:miter;stroke-miterlimit:2;stroke-opacity:1"
       stroke-miterlimit="2"
       transform="matrix(0.36220664,0,0,0.36220664,73.264716,95.780881)"
       id="g5710" />
    <g
       style="fill:#000000;fill-opacity:1;fill-rule:evenodd;stroke:#000000;stroke-width:1;stroke-linecap:square;stroke-linejoin:miter;stroke-miterlimit:2;stroke-opacity:1"
       stroke-miterlimit="2"
       transform="matrix(0.36220664,0,0,0.36220664,73.264716,95.780881)"
       id="g5712" />
    <g
       style="fill:#000000;fill-opacity:1;fill-rule:evenodd;stroke:#000000;stroke-width:1;stroke-linecap:square;stroke-linejoin:miter;stroke-miterlimit:2;stroke-opacity:1"
       stroke-miterlimit="2"
       transform="matrix(0.26458333,0,0,0.26458333,-65.521676,95.434206)"
       id="g5714" />
    <g
       style="fill:#000000;fill-opacity:1;fill-rule:evenodd;stroke:#000000;stroke-width:1;stroke-linecap:square;stroke-linejoin:miter;stroke-miterlimit:2;stroke-opacity:1"
       stroke-miterlimit="2"
       transform="matrix(0.26458333,0,0,0.26458333,-65.521676,95.434206)"
       id="g5716" />
    <g
       style="fill:#000000;fill-opacity:1;fill-rule:evenodd;stroke:#000000;stroke-width:1;stroke-linecap:square;stroke-linejoin:miter;stroke-miterlimit:2;stroke-opacity:1"
       stroke-miterlimit="2"
       id="g5718"
       transform="matrix(0.26458333,0,0,0.26458333,-67.638343,93.317539)" />
    <g
       style="fill:#000000;fill-opacity:1;fill-rule:evenodd;stroke:#000000;stroke-width:1;stroke-linecap:square;stroke-linejoin:miter;stroke-miterlimit:2;stroke-opacity:1"
       stroke-miterlimit="2"
       id="g5720"
       transform="matrix(0.26458333,0,0,0.26458333,-67.638343,93.317539)" />
    <g
       style="fill:#000000;fill-opacity:1;fill-rule:evenodd;stroke:#000000;stroke-width:1;stroke-linecap:square;stroke-linejoin:miter;stroke-miterlimit:2;stroke-opacity:1"
       stroke-miterlimit="2"
       id="g5722"
       transform="matrix(0.26458333,0,0,0.26458333,-67.638343,93.317539)" />
    <g
       style="fill:#000000;fill-opacity:1;fill-rule:evenodd;stroke:#000000;stroke-width:1;stroke-linecap:square;stroke-linejoin:miter;stroke-miterlimit:2;stroke-opacity:1"
       stroke-miterlimit="2"
       id="g5724"
       transform="matrix(0.26458333,0,0,0.26458333,-67.638343,93.317539)" />
    <g
       style="fill:#000000;fill-opacity:1;fill-rule:evenodd;stroke:#000000;stroke-width:1;stroke-linecap:square;stroke-linejoin:miter;stroke-miterlimit:2;stroke-opacity:1"
       stroke-miterlimit="2"
       transform="matrix(0.26458333,0,0,0.26458333,-65.521676,95.434206)"
       id="g5726" />
    <g
       style="fill:#000000;fill-opacity:1;fill-rule:evenodd;stroke:#000000;stroke-width:1;stroke-linecap:square;stroke-linejoin:miter;stroke-miterlimit:2;stroke-opacity:1"
       stroke-miterlimit="2"
       transform="matrix(0.26458333,0,0,0.26458333,-65.521676,95.434206)"
       id="g5728" />
    <g
       style="fill:#000000;fill-opacity:1;fill-rule:evenodd;stroke:#000000;stroke-width:1;stroke-linecap:square;stroke-linejoin:miter;stroke-miterlimit:2;stroke-opacity:1"
       stroke-miterlimit="2"
       transform="matrix(0.26458333,0,0,0.26458333,-65.521676,95.434206)"
       id="g5730" />
    <g
       style="fill:#000000;fill-opacity:1;fill-rule:evenodd;stroke:#000000;stroke-width:1;stroke-linecap:square;stroke-linejoin:miter;stroke-miterlimit:2;stroke-opacity:1"
       stroke-miterlimit="2"
       transform="matrix(0.36220664,0,0,0.36220664,73.264716,95.780881)"
       id="g5732" />
    <g
       style="fill:#000000;fill-opacity:1;fill-rule:evenodd;stroke:#000000;stroke-width:1;stroke-linecap:square;stroke-linejoin:miter;stroke-miterlimit:2;stroke-opacity:1"
       stroke-miterlimit="2"
       transform="matrix(0.36220664,0,0,0.36220664,73.264716,95.780881)"
       id="g5734" />
    <g
       style="fill:#000000;fill-opacity:1;fill-rule:evenodd;stroke:#000000;stroke-width:1;stroke-linecap:square;stroke-linejoin:miter;stroke-miterlimit:2;stroke-opacity:1"
       stroke-miterlimit="2"
       transform="matrix(0.26458333,0,0,0.26458333,-65.521676,95.434206)"
       id="g5736" />
    <g
       style="fill:#000000;fill-opacity:1;fill-rule:evenodd;stroke:#000000;stroke-width:1;stroke-linecap:square;stroke-linejoin:miter;stroke-miterlimit:2;stroke-opacity:1"
       stroke-miterlimit="2"
       transform="matrix(0.26458333,0,0,0.26458333,-65.521676,95.434206)"
       id="g5738" />
    <g
       style="fill:#000000;fill-opacity:1;fill-rule:evenodd;stroke:#000000;stroke-width:1;stroke-linecap:square;stroke-linejoin:miter;stroke-miterlimit:2;stroke-opacity:1"
       stroke-miterlimit="2"
       id="g5740"
       transform="matrix(0.26458333,0,0,0.26458333,-67.638343,93.317539)" />
    <g
       style="fill:#000000;fill-opacity:1;fill-rule:evenodd;stroke:#000000;stroke-width:1;stroke-linecap:square;stroke-linejoin:miter;stroke-miterlimit:2;stroke-opacity:1"
       stroke-miterlimit="2"
       id="g5742"
       transform="matrix(0.26458333,0,0,0.26458333,-67.638343,93.317539)" />
    <g
       style="fill:#000000;fill-opacity:1;fill-rule:evenodd;stroke:#000000;stroke-width:1;stroke-linecap:square;stroke-linejoin:miter;stroke-miterlimit:2;stroke-opacity:1"
       stroke-miterlimit="2"
       id="g5744"
       transform="matrix(0.26458333,0,0,0.26458333,-67.638343,93.317539)" />
    <g
       style="fill:#000000;fill-opacity:1;fill-rule:evenodd;stroke:#000000;stroke-width:1;stroke-linecap:square;stroke-linejoin:miter;stroke-miterlimit:2;stroke-opacity:1"
       stroke-miterlimit="2"
       id="g5746"
       transform="matrix(0.26458333,0,0,0.26458333,-67.638343,93.317539)" />
    <g
       style="fill:#000000;fill-opacity:1;fill-rule:evenodd;stroke:#000000;stroke-width:1;stroke-linecap:square;stroke-linejoin:miter;stroke-miterlimit:2;stroke-opacity:1"
       stroke-miterlimit="2"
       id="g5748"
       transform="matrix(0.26458333,0,0,0.26458333,-67.638343,93.317539)" />
    <g
       style="fill:#000000;fill-opacity:1;fill-rule:evenodd;stroke:#000000;stroke-width:1;stroke-linecap:square;stroke-linejoin:miter;stroke-miterlimit:2;stroke-opacity:1"
       stroke-miterlimit="2"
       id="g5750"
       transform="matrix(0.26458333,0,0,0.26458333,-67.638343,93.317539)" />
    <g
       style="fill:#000000;fill-opacity:1;fill-rule:evenodd;stroke:#000000;stroke-width:1;stroke-linecap:square;stroke-linejoin:miter;stroke-miterlimit:2;stroke-opacity:1"
       stroke-miterlimit="2"
       id="g5849"
       transform="matrix(0.26458333,0,0,0.26458333,-43.173561,128.89723)" />
    <g
       style="fill:#000000;fill-opacity:1;fill-rule:evenodd;stroke:#000000;stroke-width:1;stroke-linecap:square;stroke-linejoin:miter;stroke-miterlimit:2;stroke-opacity:1"
       stroke-miterlimit="2"
       id="g5851"
       transform="matrix(0.26458333,0,0,0.26458333,-43.173561,128.89723)" />
    <g
       style="fill:#000000;fill-opacity:1;fill-rule:evenodd;stroke:#000000;stroke-width:1;stroke-linecap:square;stroke-linejoin:miter;stroke-miterlimit:2;stroke-opacity:1"
       stroke-miterlimit="2"
       id="g5853"
       transform="matrix(0.26458333,0,0,0.26458333,-43.173561,128.89723)" />
    <g
       style="fill:#000000;fill-opacity:1;fill-rule:evenodd;stroke:#000000;stroke-width:1;stroke-linecap:square;stroke-linejoin:miter;stroke-miterlimit:2;stroke-opacity:1"
       stroke-miterlimit="2"
       id="g5855"
       transform="matrix(0.26458333,0,0,0.26458333,-43.173561,128.89723)" />
    <g
       style="fill:#000000;fill-opacity:1;fill-rule:evenodd;stroke:#000000;stroke-width:1;stroke-linecap:square;stroke-linejoin:miter;stroke-miterlimit:2;stroke-opacity:1"
       stroke-miterlimit="2"
       transform="matrix(0.26458333,0,0,0.26458333,-41.056894,131.0139)"
       id="g5857" />
    <g
       style="fill:#000000;fill-opacity:1;fill-rule:evenodd;stroke:#000000;stroke-width:1;stroke-linecap:square;stroke-linejoin:miter;stroke-miterlimit:2;stroke-opacity:1"
       stroke-miterlimit="2"
       transform="matrix(0.74083332,0,0,0.74083332,-41.143942,148.4764)"
       id="g5859" />
    <g
       style="fill:#000000;fill-opacity:1;fill-rule:evenodd;stroke:#000000;stroke-width:1;stroke-linecap:square;stroke-linejoin:miter;stroke-miterlimit:2;stroke-opacity:1"
       stroke-miterlimit="2"
       transform="matrix(0.74083332,0,0,0.74083332,-41.143942,148.4764)"
       id="g5865" />
    <g
       style="fill:#000000;fill-opacity:1;fill-rule:evenodd;stroke:#000000;stroke-width:1;stroke-linecap:square;stroke-linejoin:miter;stroke-miterlimit:2;stroke-opacity:1"
       stroke-miterlimit="2"
       transform="matrix(0.26458333,0,0,0.26458333,-41.056894,131.0139)"
       id="g5867" />
    <g
       style="fill:#000000;fill-opacity:1;fill-rule:evenodd;stroke:#000000;stroke-width:1;stroke-linecap:square;stroke-linejoin:miter;stroke-miterlimit:2;stroke-opacity:1"
       stroke-miterlimit="2"
       transform="matrix(0.84666666,0,0,0.84666666,-31.586081,160.11013)"
       id="g5869" />
    <g
       style="fill:#000000;fill-opacity:1;fill-rule:evenodd;stroke:none;stroke-width:1;stroke-linecap:square;stroke-linejoin:bevel"
       transform="matrix(0.84666666,0,0,0.84666666,-9.1354407,137.92676)"
       id="g5873">
      <path
         style="vector-effect:none;fill-rule:nonzero"
         inkscape:connector-curvature="0"
         d="M 14.119,23.6949 C 14.2036,23.8646 14.1529,24 13.9665,24 h -1.5424 c -0.1526,0 -0.2372,-0.0676 -0.288,-0.1864 L 11.0853,21.6102 H 3.78019 l -1.0339,2.2034 C 2.67849,23.9324 2.59375,24 2.45815,24 H 0.89885 C 0.72936,24 0.64461,23.8646 0.71241,23.6949 l 6.3898,-13.186 C 7.15306,10.3903 7.2378,10.3564 7.32255,10.3564 h 0.22017 c 0.08475,0 0.15254,0.0339 0.22034,0.1525 L 14.119,23.6949 M 4.6103,19.8646 h 5.6441 l -2.8136,-6 -2.8305,6 M 22.3066,10.441 c 4.5085,0 6.9324,3.4917 6.9324,6.7119 0,3.5424 -2.4407,6.8475 -6.9153,6.8475 h -4.5424 c -0.1697,0 -0.2883,-0.1186 -0.2883,-0.2881 v -13 c 0,-0.1526 0.1017,-0.2712 0.2712,-0.2712 h 4.5424 v -10e-5 m 0.0511,11.7119 c 3.1356,0 4.9324,-2.4576 4.9154,-5.0169 0,-2.5085 -1.729,-4.8475 -4.9154,-4.8475 h -2.9661 l 0.0169,9.8644 h 2.9492 v 0 M 48.342,10.441 c 0.1525,0 0.2717,0.1188 0.2717,0.2885 v 12.983 c 0,0.1525 -0.1017,0.2879 -0.2714,0.2879 h -1.339 c -0.1864,0 -0.2881,-0.1186 -0.2881,-0.2881 v -9.339 l -5.5254,9.0339 c -0.0848,0.1356 -0.1695,0.2034 -0.3051,0.2034 h -0.0846 c -0.1356,0 -0.2203,-0.0678 -0.3051,-0.2034 l -5.5085,-9.0339 v 9.339 c 0,0.1525 -0.1188,0.288 -0.2883,0.288 h -1.339 c -0.1695,0 -0.2883,-0.1187 -0.2883,-0.2882 v -13 c 0,-0.1525 0.1019,-0.2712 0.2712,-0.2712 h 1.1525 c 0.1525,0 0.2542,0.0509 0.339,0.1865 l 6.0169,9.8307 6.0168,-9.8307 c 0.0678,-0.1356 0.1695,-0.1865 0.339,-0.1865 h 1.1356 l 10e-5,1e-4 m 6.1038,0 -1.3053,-2e-4 c -0.1695,0 -0.2712,0.1187 -0.2712,0.2712 v 13 c 0,0.1695 0.1186,0.2882 0.2883,0.2882 h 1.3051 c 0.1525,0 0.2542,-0.1355 0.2542,-0.288 v -13 c 0,-0.1525 -0.1186,-0.2712 -0.2712,-0.2712 h 10e-5 m 15.9509,0 c 0.1525,0 0.2715,0.1188 0.2715,0.2544 v 13.051 c 0,0.1356 -0.1017,0.2543 -0.2542,0.2543 h -0.4746 c -0.3559,0 -0.7288,-0.2543 -1.2034,-0.7797 l -7.8644,-9.0339 v 9.5254 c 0,0.1525 -0.1186,0.2712 -0.2712,0.2712 l -1.339,0.0168 c -0.1695,0 -0.2883,-0.1187 -0.2883,-0.2882 v -13 c 0,-0.1525 0.1188,-0.2712 0.2712,-0.2712 h 0.7966 c 0.1525,0 0.2542,0.0678 0.3898,0.2204 l 8.3388,9.7288 v -9.6949 c 0,-0.1356 0.1017,-0.2543 0.2543,-0.2543 h 1.3729 v -10e-5 m 21.7319,0 c 0.1697,0 0.2883,0.1188 0.2883,0.2714 v 13 c 0,0.1864 -0.1017,0.2879 -0.2542,0.2879 h -1 c -0.4237,0 -0.661,-0.2879 -0.661,-0.6778 v -5.0169 h -7.4576 v 5.4068 c 0,0.1526 -0.1188,0.288 -0.2712,0.288 H 81.417 c -0.1695,0 -0.2883,-0.1186 -0.2883,-0.2881 v -13 c 0,-0.1526 0.1018,-0.2712 0.2712,-0.2712 h 1.3559 c 0.1694,0 0.2883,0.1186 0.2883,0.2712 v 5.678 h 7.4576 v -5.678 c 0,-0.1526 0.1017,-0.2712 0.2712,-0.2712 h 1.3558 l -10e-5,-10e-5 m 17.1374,14.3387 c 0.203,0.1695 0.118,0.3898 -0.017,0.4745 l -1.017,0.6272 c -0.356,0.2201 -0.729,0.1356 -0.932,-0.2034 l -1.271,-2.1186 c -0.848,0.3559 -1.78,0.5591 -2.746,0.5591 -3.8476,0 -6.9493,-3.0337 -6.9493,-6.9151 0,-3.8305 3.1017,-6.8814 6.9493,-6.8814 3.813,0 6.915,3.0508 6.915,6.8814 0,2.1695 -0.966,4.0847 -2.508,5.339 l 0.644,1.0678 c 0.423,0.661 0.678,0.9492 0.932,1.1695 v 0 m -11.0172,-7.576 c 0,2.4576 1.7802,4.5254 4.1022,4.9661 l -0.085,-0.0169 c -0.492,-0.3558 -0.712,-0.8645 -0.712,-1.4068 0,-1.1356 0.932,-2.0678 2.22,-2.0678 0.915,0 1.627,0.3559 2.322,1.3051 0.204,0.2881 0.39,0.5932 0.593,0.9152 0.984,-0.9322 1.611,-2.2542 1.611,-3.6949 0,-2.7456 -2.288,-5.0337 -5.017,-5.0337 -2.746,0 -5.0341,2.2881 -5.0341,5.0337 h -1e-4 m 5.0342,5.0678 c 0.61,0 1.203,-0.1185 1.746,-0.3219 l -0.339,-0.5762 c -0.356,-0.5763 -0.746,-0.8138 -1.306,-0.8138 -0.525,0 -0.949,0.4407 -0.949,0.9831 0,0.2544 0.136,0.5254 0.424,0.7119 0.136,0.0169 0.288,0.0169 0.424,0.0169 v 0 m 28.258,-0.6951 c 0.135,0.1186 0.135,0.2714 -0.017,0.4237 -1.254,1.3222 -2.966,2.1186 -5,2.1186 -3.763,0 -6.882,-3.0168 -6.882,-6.8642 0,-3.8474 3.119,-6.9322 6.882,-6.9322 2,0 3.762,0.7966 5.034,2.1356 0.152,0.1524 0.152,0.305 0.017,0.4066 l -1.085,0.8812 c -0.136,0.1188 -0.254,0.1188 -0.39,-0.0168 -0.729,-0.7627 -1.983,-1.5593 -3.508,-1.5593 -3.051,0 -5.034,2.5424 -5.034,5.0847 0,2.5593 1.983,5.0169 5.034,5.0169 1.508,0 2.728,-0.7627 3.457,-1.5085 0.136,-0.1525 0.271,-0.1693 0.407,-0.0677 l 1.085,0.8814 M 146.356,10.441 c 0.169,0 0.288,0.1188 0.288,0.2714 v 13 c 0,0.1864 -0.102,0.2879 -0.254,0.2879 h -1 c -0.424,0 -0.661,-0.2879 -0.661,-0.6778 v -5.0169 h -7.458 v 5.4068 c 0,0.1526 -0.119,0.288 -0.271,0.288 h -1.356 c -0.169,0 -0.288,-0.1186 -0.288,-0.2881 v -13 c 0,-0.1526 0.102,-0.2712 0.271,-0.2712 h 1.356 c 0.169,0 0.288,0.1186 0.288,0.2712 v 5.678 h 7.458 v -5.678 c 0,-0.1526 0.101,-0.2712 0.271,-0.2712 h 1.356 v -10e-5 m 13.103,1.847 h -6.728 v 4.1356 h 3.898 c 0.169,0 0.288,0.1186 0.288,0.2881 v 1.2712 c 0,0.1865 -0.119,0.2882 -0.288,0.2882 h -3.898 l 0.016,3.8814 h 6.712 c 0.17,0 0.288,0.1186 0.288,0.2881 v 1.2712 c 0,0.1695 -0.118,0.2882 -0.288,0.2882 h -8.356 c -0.169,0 -0.288,-0.1187 -0.288,-0.2882 v -13 c 0,-0.1525 0.102,-0.2712 0.271,-0.2712 h 8.373 c 0.17,0 0.289,0.1187 0.289,0.2712 v 1.3051 c 0,0.1695 -0.119,0.2712 -0.289,0.2712 v -10e-5 m 15.629,9.2884 c 0.136,0.1186 0.136,0.2714 -0.017,0.4237 -1.254,1.3222 -2.966,2.1186 -5,2.1186 -3.762,0 -6.881,-3.0168 -6.881,-6.8642 0,-3.8474 3.119,-6.9322 6.881,-6.9322 2,0 3.763,0.7966 5.034,2.1356 0.153,0.1524 0.153,0.305 0.017,0.4066 l -1.085,0.8812 c -0.135,0.1188 -0.254,0.1188 -0.39,-0.0168 -0.728,-0.7627 -1.983,-1.5593 -3.508,-1.5593 -3.051,0 -5.034,2.5424 -5.034,5.0847 0,2.5593 1.983,5.0169 5.034,5.0169 1.508,0 2.729,-0.7627 3.458,-1.5085 0.135,-0.1525 0.271,-0.1693 0.406,-0.0677 l 1.085,0.8814 m 13.883,1.7967 c 0.255,0.2711 0.119,0.6274 -0.254,0.6274 h -1.424 c -0.153,0 -0.237,-0.0337 -0.356,-0.1524 l -6.339,-6.678 v 6.5593 c 0,0.1524 -0.119,0.2711 -0.271,0.2711 h -1.373 c -0.153,0 -0.271,-0.1187 -0.271,-0.2711 v -12.034 c -0.017,-0.3898 -0.051,-0.6271 -0.102,-0.9152 -0.034,-0.1865 0.017,-0.339 0.187,-0.339 h 1.169 c 0.407,0 0.661,0.2373 0.661,0.6102 v 5.661 l 5.594,-6.1186 c 0.084,-0.1019 0.186,-0.1527 0.339,-0.1527 h 1.457 c 0.339,0 0.458,0.3559 0.254,0.5761 l -5.44,5.9322 6.169,6.4237 m 8.832,-12.9321 c 2.949,0 4.644,2.4915 4.644,4.5424 0,2.1695 -1.694,4.5763 -4.644,4.5763 h -3.373 v 4.1525 c 0,0.1864 -0.101,0.288 -0.271,0.288 h -1.373 c -0.169,0 -0.271,-0.1016 -0.271,-0.288 v -13 c 0,-0.1525 0.102,-0.2712 0.271,-0.2712 h 5.017 v 0 m -0.152,7.271 c 1.864,0 2.898,-1.3729 2.898,-2.7288 0,-1.339 -1.034,-2.6949 -2.898,-2.6949 h -3.22 v 5.4237 h 3.22 m 14.9,6.4066 c 3.813,0 6.915,-3.0337 6.915,-6.9151 0,-3.8305 -3.102,-6.8814 -6.915,-6.8814 -3.848,0 -6.95,3.0508 -6.95,6.8814 0,3.8814 3.102,6.9151 6.95,6.9151 m 0,-1.8472 c -2.746,0 -5.034,-2.2881 -5.034,-5.0678 0,-2.7456 2.288,-5.0337 5.034,-5.0337 2.728,0 5.017,2.2881 5.017,5.0337 0,2.7797 -2.289,5.0678 -5.017,5.0678 m 12.493,-11.8304 -1.305,-2e-4 c -0.17,0 -0.271,0.1187 -0.271,0.2712 v 13 c 0,0.1695 0.118,0.2882 0.288,0.2882 h 1.305 c 0.153,0 0.254,-0.1355 0.254,-0.288 v -13 c 0,-0.1525 -0.118,-0.2712 -0.271,-0.2712 v 0 m 15.951,0 c 0.153,0 0.272,0.1188 0.272,0.2544 v 13.051 c 0,0.1356 -0.102,0.2543 -0.255,0.2543 h -0.474 c -0.356,0 -0.729,-0.2543 -1.204,-0.7797 l -7.864,-9.0339 v 9.5254 c 0,0.1525 -0.119,0.2712 -0.271,0.2712 l -1.339,0.0168 c -0.17,0 -0.289,-0.1187 -0.289,-0.2882 v -13 c 0,-0.1525 0.119,-0.2712 0.272,-0.2712 h 0.796 c 0.153,0 0.254,0.0678 0.39,0.2204 l 8.339,9.7288 v -9.6949 c 0,-0.1356 0.102,-0.2543 0.254,-0.2543 h 1.373 v -10e-5 m 14.306,0 c 0.153,0 0.271,0.1017 0.271,0.2712 v 1.3051 c 0,0.1525 -0.119,0.2712 -0.271,0.2712 h -4.085 v 11.424 c 0,0.1864 -0.101,0.2879 -0.271,0.2879 h -0.983 c -0.441,0 -0.661,-0.2879 -0.661,-0.6778 v -11.034 h -4.085 c -0.152,0 -0.288,-0.1016 -0.288,-0.2711 v -1.288 c 0,-0.1697 0.119,-0.2884 0.288,-0.2884 h 10.085 v -10e-5 m 13.241,0.508 c 0.153,0 0.288,0.1186 0.288,0.2712 v 12.492 c 0,0.1695 -0.118,0.2881 -0.288,0.2881 h -1.339 c -0.169,0 -0.288,-0.1186 -0.288,-0.2881 v -9.6949 l -1.61,0.3898 c -0.17,0.0339 -0.271,-0.0339 -0.305,-0.2034 l -0.153,-0.9661 c -0.017,-0.1695 0.017,-0.2542 0.221,-0.3051 0.83,-0.2881 1.542,-1.1525 2,-1.8136 l 0.017,-0.0508 c 0.05,-0.0847 0.135,-0.1186 0.254,-0.1186 h 1.203 v -5e-4 m 18.122,11.2035 c 0.17,0 0.255,0.0849 0.255,0.2714 v 1.3053 c 0,0.1523 -0.339,0.271 -0.492,0.271 h -7.593 c -0.152,0 -0.271,-0.1187 -0.288,-0.271 v -0.4578 l 5,-5.8814 c 0.796,-0.8983 1.457,-1.7797 1.457,-2.8305 0,-1.1525 -1.067,-2.0508 -2.389,-2.0508 -1.339,0 -2.204,0.7627 -2.916,1.6102 -0.084,0.1356 -0.271,0.1356 -0.389,0 l -0.78,-0.8305 c -0.102,-0.1187 -0.119,-0.2884 -0.017,-0.407 1.034,-1.4915 2.61,-2.2034 4.203,-2.2034 2.17,0 4.187,1.5932 4.187,3.8644 0,0.9661 -0.373,2.0169 -1.221,3.0169 l -3.966,4.5932 h 4.949 v 0 m 10.495,-11.2035 7.407,2e-4 c 0.187,0 0.271,0.1017 0.271,0.2712 v 1.339 c 0,0.2033 -0.051,0.3389 -0.186,0.4915 l -3.221,3.3898 c 0.577,0 1.153,0.1695 1.628,0.4239 1.305,0.5254 2.169,1.9153 2.169,3.3729 0,2.2203 -2.051,3.9319 -4.254,3.9319 -1.916,0 -3.305,-0.8134 -4.492,-2.3388 -0.101,-0.1356 -0.118,-0.2543 0.017,-0.3729 l 0.932,-0.8814 c 0.136,-0.1355 0.238,-0.1186 0.373,0.0338 0.661,0.8644 1.831,1.7119 3.068,1.7119 1.627,0 2.39,-1.2542 2.39,-2.2881 0,-1.0508 -0.763,-2.0678 -2,-2.0678 -0.526,0 -1,0.2542 -1.407,0.3559 -0.102,0.017 -0.186,-0.0339 -0.271,-0.1186 l -0.729,-0.9661 c -0.085,-0.1356 -0.101,-0.2543 0.017,-0.3899 l 3.78,-4.0508 h -5.492 c -0.152,0 -0.305,-0.1188 -0.305,-0.2712 v -1.2881 c 0,-0.1694 0.136,-0.2881 0.305,-0.2881 v -2e-4"
         id="path5871" />
    </g>
    <g
       style="fill:#000000;fill-opacity:1;fill-rule:evenodd;stroke:#000000;stroke-width:1;stroke-linecap:square;stroke-linejoin:miter;stroke-miterlimit:2;stroke-opacity:1"
       stroke-miterlimit="2"
       transform="matrix(0.84666666,0,0,0.84666666,-31.586081,160.11013)"
       id="g5875" />
    <g
       style="fill:#000000;fill-opacity:1;fill-rule:evenodd;stroke:#000000;stroke-width:1;stroke-linecap:square;stroke-linejoin:miter;stroke-miterlimit:2;stroke-opacity:1"
       stroke-miterlimit="2"
       transform="matrix(0.26458333,0,0,0.26458333,-41.056894,131.0139)"
       id="g5877" />
    <g
       style="fill:#000000;fill-opacity:1;fill-rule:evenodd;stroke:#000000;stroke-width:1;stroke-linecap:square;stroke-linejoin:miter;stroke-miterlimit:2;stroke-opacity:1"
       stroke-miterlimit="2"
       transform="matrix(0.36220664,0,0,0.36220664,81.060748,131.36057)"
       id="g5879" />
    <g
       style="fill:#000000;fill-opacity:1;fill-rule:evenodd;stroke:#000000;stroke-width:1;stroke-linecap:square;stroke-linejoin:miter;stroke-miterlimit:2;stroke-opacity:1"
       stroke-miterlimit="2"
       transform="matrix(0.36220664,0,0,0.36220664,81.060748,131.36057)"
       id="g5885" />
    <g
       style="fill:#000000;fill-opacity:1;fill-rule:evenodd;stroke:#000000;stroke-width:1;stroke-linecap:square;stroke-linejoin:miter;stroke-miterlimit:2;stroke-opacity:1"
       stroke-miterlimit="2"
       transform="matrix(0.36220664,0,0,0.36220664,81.060748,131.36057)"
       id="g5891" />
    <g
       style="fill:#000000;fill-opacity:1;fill-rule:evenodd;stroke:#000000;stroke-width:1;stroke-linecap:square;stroke-linejoin:miter;stroke-miterlimit:2;stroke-opacity:1"
       stroke-miterlimit="2"
       transform="matrix(0.36220664,0,0,0.36220664,81.060748,131.36057)"
       id="g5893" />
    <g
       style="fill:#000000;fill-opacity:1;fill-rule:evenodd;stroke:#000000;stroke-width:1;stroke-linecap:square;stroke-linejoin:miter;stroke-miterlimit:2;stroke-opacity:1"
       stroke-miterlimit="2"
       transform="matrix(0.26458333,0,0,0.26458333,-41.056894,131.0139)"
       id="g5895" />
    <g
       style="fill:#000000;fill-opacity:1;fill-rule:evenodd;stroke:#000000;stroke-width:1;stroke-linecap:square;stroke-linejoin:miter;stroke-miterlimit:2;stroke-opacity:1"
       stroke-miterlimit="2"
       transform="matrix(0.26458333,0,0,0.26458333,-41.056894,131.0139)"
       id="g5897" />
    <g
       style="fill:#000000;fill-opacity:1;fill-rule:evenodd;stroke:#000000;stroke-width:1;stroke-linecap:square;stroke-linejoin:miter;stroke-miterlimit:2;stroke-opacity:1"
       stroke-miterlimit="2"
       id="g5899"
       transform="matrix(0.26458333,0,0,0.26458333,-43.173561,128.89723)" />
    <g
       style="fill:#000000;fill-opacity:1;fill-rule:evenodd;stroke:#000000;stroke-width:1;stroke-linecap:square;stroke-linejoin:miter;stroke-miterlimit:2;stroke-opacity:1"
       stroke-miterlimit="2"
       id="g5901"
       transform="matrix(0.26458333,0,0,0.26458333,-43.173561,128.89723)" />
    <g
       style="fill:#000000;fill-opacity:1;fill-rule:evenodd;stroke:#000000;stroke-width:1;stroke-linecap:square;stroke-linejoin:miter;stroke-miterlimit:2;stroke-opacity:1"
       stroke-miterlimit="2"
       id="g5903"
       transform="matrix(0.26458333,0,0,0.26458333,-43.173561,128.89723)" />
    <g
       style="fill:#000000;fill-opacity:1;fill-rule:evenodd;stroke:#000000;stroke-width:1;stroke-linecap:square;stroke-linejoin:miter;stroke-miterlimit:2;stroke-opacity:1"
       stroke-miterlimit="2"
       id="g5905"
       transform="matrix(0.26458333,0,0,0.26458333,-43.173561,128.89723)" />
    <g
       style="fill:#000000;fill-opacity:1;fill-rule:evenodd;stroke:#000000;stroke-width:1;stroke-linecap:square;stroke-linejoin:miter;stroke-miterlimit:2;stroke-opacity:1"
       stroke-miterlimit="2"
       transform="matrix(0.26458333,0,0,0.26458333,-41.056894,131.0139)"
       id="g5907" />
    <g
       style="fill:#000000;fill-opacity:1;fill-rule:evenodd;stroke:#000000;stroke-width:1;stroke-linecap:square;stroke-linejoin:miter;stroke-miterlimit:2;stroke-opacity:1"
       stroke-miterlimit="2"
       transform="matrix(0.26458333,0,0,0.26458333,-41.056894,131.0139)"
       id="g5909" />
    <g
       style="fill:#000000;fill-opacity:1;fill-rule:evenodd;stroke:#000000;stroke-width:1;stroke-linecap:square;stroke-linejoin:miter;stroke-miterlimit:2;stroke-opacity:1"
       stroke-miterlimit="2"
       transform="matrix(0.26458333,0,0,0.26458333,-41.056894,131.0139)"
       id="g5911" />
    <g
       style="fill:#000000;fill-opacity:1;fill-rule:evenodd;stroke:#000000;stroke-width:1;stroke-linecap:square;stroke-linejoin:miter;stroke-miterlimit:2;stroke-opacity:1"
       stroke-miterlimit="2"
       transform="matrix(0.36220664,0,0,0.36220664,81.060748,131.36057)"
       id="g5913" />
    <g
       style="fill:#000000;fill-opacity:1;fill-rule:evenodd;stroke:#000000;stroke-width:1;stroke-linecap:square;stroke-linejoin:miter;stroke-miterlimit:2;stroke-opacity:1"
       stroke-miterlimit="2"
       transform="matrix(0.36220664,0,0,0.36220664,81.060748,131.36057)"
       id="g5915" />
    <g
       style="fill:#000000;fill-opacity:1;fill-rule:evenodd;stroke:#000000;stroke-width:1;stroke-linecap:square;stroke-linejoin:miter;stroke-miterlimit:2;stroke-opacity:1"
       stroke-miterlimit="2"
       transform="matrix(0.26458333,0,0,0.26458333,-41.056894,131.0139)"
       id="g5917" />
    <g
       style="fill:#000000;fill-opacity:1;fill-rule:evenodd;stroke:#000000;stroke-width:1;stroke-linecap:square;stroke-linejoin:miter;stroke-miterlimit:2;stroke-opacity:1"
       stroke-miterlimit="2"
       transform="matrix(0.26458333,0,0,0.26458333,-41.056894,131.0139)"
       id="g5919" />
    <g
       style="fill:#000000;fill-opacity:1;fill-rule:evenodd;stroke:#000000;stroke-width:1;stroke-linecap:square;stroke-linejoin:miter;stroke-miterlimit:2;stroke-opacity:1"
       stroke-miterlimit="2"
       id="g5921"
       transform="matrix(0.26458333,0,0,0.26458333,-43.173561,128.89723)" />
    <g
       style="fill:#000000;fill-opacity:1;fill-rule:evenodd;stroke:#000000;stroke-width:1;stroke-linecap:square;stroke-linejoin:miter;stroke-miterlimit:2;stroke-opacity:1"
       stroke-miterlimit="2"
       id="g5923"
       transform="matrix(0.26458333,0,0,0.26458333,-43.173561,128.89723)" />
    <g
       style="fill:#000000;fill-opacity:1;fill-rule:evenodd;stroke:#000000;stroke-width:1;stroke-linecap:square;stroke-linejoin:miter;stroke-miterlimit:2;stroke-opacity:1"
       stroke-miterlimit="2"
       id="g5925"
       transform="matrix(0.26458333,0,0,0.26458333,-43.173561,128.89723)" />
    <g
       style="fill:#000000;fill-opacity:1;fill-rule:evenodd;stroke:#000000;stroke-width:1;stroke-linecap:square;stroke-linejoin:miter;stroke-miterlimit:2;stroke-opacity:1"
       stroke-miterlimit="2"
       id="g5927"
       transform="matrix(0.26458333,0,0,0.26458333,-43.173561,128.89723)" />
    <g
       style="fill:#000000;fill-opacity:1;fill-rule:evenodd;stroke:#000000;stroke-width:1;stroke-linecap:square;stroke-linejoin:miter;stroke-miterlimit:2;stroke-opacity:1"
       stroke-miterlimit="2"
       id="g5929"
       transform="matrix(0.26458333,0,0,0.26458333,-43.173561,128.89723)" />
    <g
       style="fill:#000000;fill-opacity:1;fill-rule:evenodd;stroke:#000000;stroke-width:1;stroke-linecap:square;stroke-linejoin:miter;stroke-miterlimit:2;stroke-opacity:1"
       stroke-miterlimit="2"
       id="g5931"
       transform="matrix(0.26458333,0,0,0.26458333,-43.173561,128.89723)" />
  </g>
</svg>
