<svg xmlns="http://www.w3.org/2000/svg" width="600" height="900" viewBox="0 0 158.75 238.12501"><g transform="translate(9.355 28.06)"><path d="M57.278 72.086l5.68-.036M68.111 72.086l5.68-.036M78.985 72.086l5.716-.036" fill="none" stroke="#000" stroke-width=".397"/><path d="M53.876 112.638c.032 0 .057.022.057.058v.276a.057.057 0 0 1-.057.058h-.866v2.421c0 .04-.022.061-.058.061h-.208c-.094 0-.14-.06-.14-.143v-2.34h-.866c-.032 0-.061-.02-.061-.057v-.273c0-.036.025-.06.06-.06h2.139m2.935 2.805c.025.036.008.068-.04.068h-.265c-.08 0-.144-.071-.173-.115l-.56-.826h-.711v.88c0 .04-.022.061-.058.061h-.29c-.037 0-.058-.021-.058-.06v-2.756c0-.033.021-.058.057-.058h1.107c.628 0 .966.535.966.967 0 .359-.215.761-.621.908l.646.931m-1.75-2.414v1.15h.712c.406 0 .607-.292.607-.583 0-.287-.205-.567-.607-.567h-.711m5.256 2.418c.018.036.008.064-.032.064h-.327c-.032 0-.05-.014-.061-.04l-.223-.466h-1.548l-.22.467c-.014.025-.032.04-.06.04h-.331c-.036 0-.054-.03-.04-.065l1.355-2.795c.01-.026.029-.033.047-.033h.046c.018 0 .033.007.047.033l1.347 2.795m-2.015-.812h1.196l-.596-1.272-.6 1.272m5.199.363c.029.025.029.057-.004.09-.265.28-.628.449-1.06.449-.797 0-1.458-.64-1.458-1.456a1.467 1.467 0 0 1 2.526-1.016c.032.032.032.064.003.086l-.23.187c-.029.025-.054.025-.082-.004a1.055 1.055 0 0 0-.744-.33c-.647 0-1.067.538-1.067 1.077 0 .543.42 1.064 1.067 1.064.32 0 .578-.162.733-.32.029-.032.057-.036.086-.014l.23.187m2.943.38c.054.058.025.133-.054.133h-.302c-.032 0-.05-.007-.075-.032l-1.344-1.415v1.39a.057.057 0 0 1-.058.057h-.29a.057.057 0 0 1-.058-.057v-2.551a1.325 1.325 0 0 0-.022-.194c-.007-.04.004-.072.04-.072h.248c.086 0 .14.05.14.13v1.2l1.186-1.297a.086.086 0 0 1 .072-.033h.308c.072 0 .097.076.054.122l-1.153 1.258 1.308 1.361m5.527-2.74c.032 0 .057.02.057.057v.276a.057.057 0 0 1-.057.058h-.866v2.421c0 .04-.022.061-.058.061h-.208c-.094 0-.14-.06-.14-.143v-2.34h-.866c-.032 0-.061-.02-.061-.057v-.273c0-.036.025-.06.06-.06h2.139m2.253 2.899c.808 0 1.466-.643 1.466-1.466 0-.812-.658-1.459-1.466-1.459a1.46 1.46 0 0 0-1.473 1.459 1.46 1.46 0 0 0 1.473 1.466m0-.392a1.078 1.078 0 0 1-1.067-1.074c0-.582.485-1.067 1.067-1.067.578 0 1.063.485 1.063 1.067 0 .589-.485 1.074-1.063 1.074m4.67-.913c.044 0 .062.022.062.062v.743c0 .018-.01.036-.025.05-.266.28-.629.45-1.06.45-.798 0-1.459-.64-1.459-1.455a1.467 1.467 0 0 1 2.526-1.017c.032.032.032.064.004.086l-.23.187c-.03.025-.054.025-.083-.004a1.055 1.055 0 0 0-.744-.33c-.646 0-1.067.539-1.067 1.078 0 .542.42 1.063 1.067 1.063.28 0 .51-.122.668-.259v-.265h-.657c-.04 0-.061-.018-.061-.058v-.266c0-.043.018-.065.057-.065h1.003m2.68-1.203H80.15v.876h.827c.036 0 .06.026.06.061v.27c0 .04-.024.061-.06.061h-.827l.004.823h1.423c.035 0 .06.025.06.06v.27a.059.059 0 0 1-.06.061h-1.772a.059.059 0 0 1-.06-.06v-2.756c0-.033.02-.058.057-.058h1.775c.035 0 .06.025.06.058v.276c0 .036-.025.058-.06.058m2.989-.392c.032 0 .057.022.057.058v.276a.057.057 0 0 1-.057.058H83.7v2.422c0 .039-.021.06-.057.06h-.209c-.093 0-.14-.06-.14-.143v-2.34h-.866c-.032 0-.06-.02-.06-.057v-.273c0-.036.024-.06.06-.06h2.138m3.166 0c.036 0 .06.024.06.057v2.755c0 .04-.02.062-.053.062h-.212c-.09 0-.14-.062-.14-.144v-1.064h-1.581v1.146c0 .033-.025.062-.057.062h-.288a.059.059 0 0 1-.06-.062v-2.755c0-.033.02-.058.057-.058h.287c.036 0 .061.025.061.058v1.203h1.581v-1.203c0-.033.021-.058.057-.058h.288m2.777.392h-1.426v.876h.827c.035 0 .06.026.06.061v.27c0 .04-.025.061-.06.061h-.827l.004.823h1.422c.036 0 .062.025.062.06v.27a.058.058 0 0 1-.062.061h-1.77a.059.059 0 0 1-.062-.06v-2.756c0-.033.022-.058.058-.058h1.774c.036 0 .062.025.062.058v.276c0 .036-.026.058-.062.058m3 2.414c.026.036.008.068-.039.068h-.265c-.08 0-.144-.071-.173-.114l-.56-.827h-.712v.88c0 .04-.021.061-.057.061h-.291c-.036 0-.058-.021-.058-.06v-2.756c0-.033.022-.058.058-.058h1.106c.629 0 .967.536.967.967 0 .359-.216.761-.622.909l.647.93m-1.75-2.414v1.15h.712c.406 0 .607-.292.607-.583 0-.287-.205-.567-.607-.567h-.712" fill-rule="nonzero" fill="#969696" stroke-width=".668" stroke-linecap="square" stroke-linejoin="bevel"/><ellipse cx="54.731" cy="72.056" rx="2.049" ry="2.049" fill="none" stroke="#ff9100" stroke-width="1.323" stroke-linecap="square" stroke-linejoin="bevel"/><path d="M84.666 72.325c.016 3.75 4.148 8.698 4.148 8.698 3.749-4.571 4.43-7.489 4.261-9.21a4.205 4.205 0 0 0-4.194-3.915c-2.215 0-4.02 1.743-4.188 3.916m4.183-1.93a2.26 2.26 0 1 1 0 4.519 2.26 2.26 0 0 1 0-4.52" fill="#ff9100"/><ellipse cx="65.552" cy="72.056" rx="2.049" ry="2.049" fill="none" stroke="#ff9100" stroke-width="1.323" stroke-linecap="square" stroke-linejoin="bevel"/><ellipse cx="76.372" cy="72.056" rx="2.049" ry="2.049" fill="none" stroke="#ff9100" stroke-width="1.323" stroke-linecap="square" stroke-linejoin="bevel"/><path d="M93.1 82.819c0 .425-1.888.77-4.217.77-2.33 0-4.217-.345-4.217-.77 0-.425 1.888-.77 4.217-.77 2.329 0 4.217.345 4.217.77" fill-rule="nonzero" fill="#ccc" stroke-width=".668" stroke-linecap="square" stroke-linejoin="bevel"/><path d="M91.686 93.618c.28 0 .516.236.516.516v9.87c0 .28-.236.515-.516.515H90.39a.544.544 0 0 1-.427-.206l-7.203-9.87a.52.52 0 0 1-.045-.545.506.506 0 0 1 .457-.28h1.296c.162 0 .324.074.413.207l5.17 7.026v-6.717c0-.28.221-.516.516-.516h1.12m-6.88 7.66v2.725c0 .28-.236.516-.515.516h-1.12a.522.522 0 0 1-.515-.516v-2.725l-.001-5.438 2.15 2.772M6.222 95.72a.51.51 0 0 1-.442-.515V94.13c0-.148.059-.295.177-.383a.539.539 0 0 1 .412-.133c.84.133 1.59.427 2.254.899a4.946 4.946 0 0 1 1.812 2.46.53.53 0 0 1-.06.47.518.518 0 0 1-.426.222H8.77a.534.534 0 0 1-.486-.31 2.786 2.786 0 0 0-.987-1.222 2.728 2.728 0 0 0-1.075-.413m3.727 4.89c.162 0 .324.075.427.222a.53.53 0 0 1 .059.471 4.946 4.946 0 0 1-1.812 2.46 5.232 5.232 0 0 1-2.254.899h-.074a.467.467 0 0 1-.338-.133.475.475 0 0 1-.177-.383v-1.075a.51.51 0 0 1 .427-.516 2.51 2.51 0 0 0 1.09-.412c.442-.31.766-.707.987-1.223a.534.534 0 0 1 .486-.31H9.95m-5.274-6.82a.496.496 0 0 1 .192.398v1.15a.55.55 0 0 1-.383.5c-.118.03-.221.06-.325.103a2.912 2.912 0 0 0-1.001.722c-.56.634-.84 1.444-.84 2.475 0 1.031.28 1.841.84 2.475.353.397.78.662 1.326.825a.517.517 0 0 1 .383.486v1.163c0 .162-.074.31-.192.398a.502.502 0 0 1-.339.118h-.103a4.902 4.902 0 0 1-2.666-1.532c-.928-1.046-1.4-2.357-1.4-3.933 0-1.562.472-2.887 1.4-3.933a4.791 4.791 0 0 1 2.666-1.517c.162-.045.31 0 .442.103m7.97 3.594a.522.522 0 0 1-.516-.516v-2.74c0-.28.235-.515.515-.515h1.12c.294 0 .515.236.515.516v2.74c0 .28-.22.515-.515.515h-1.12m7.999-3.771c.28 0 .515.236.515.516v9.898c0 .28-.235.516-.515.516h-1.12a.512.512 0 0 1-.515-.516v-3.888h-4.729v3.888c0 .28-.22.516-.515.516h-1.12a.522.522 0 0 1-.515-.516V98.52c0-.28.235-.515.515-.515h6.364V94.13c0-.28.22-.516.515-.516h1.12m10.694 8.809c.295 0 .516.235.516.53v1.075c0 .28-.221.516-.516.516H24.06a.522.522 0 0 1-.515-.516v-1.075c0-.295.235-.53.515-.53h7.277m-7.277-2.283a.522.522 0 0 1-.515-.516v-1.105c0-.28.235-.515.515-.515h6.614c.295 0 .53.235.53.515v1.105c0 .28-.235.516-.53.516H24.06m7.277-6.526c.295 0 .516.236.516.516v1.075c0 .294-.221.53-.516.53H24.06a.525.525 0 0 1-.515-.53V94.13c0-.28.235-.516.515-.516h7.277m7.734 2.106a.51.51 0 0 1-.442-.515V94.13c0-.148.059-.295.176-.383a.539.539 0 0 1 .413-.133c.84.133 1.59.427 2.254.899a4.946 4.946 0 0 1 1.812 2.46.53.53 0 0 1-.06.47.518.518 0 0 1-.427.222H41.62a.534.534 0 0 1-.486-.31 2.786 2.786 0 0 0-.987-1.222 2.728 2.728 0 0 0-1.075-.413m3.726 4.89c.162 0 .325.075.428.222a.53.53 0 0 1 .059.471 4.946 4.946 0 0 1-1.812 2.46 5.232 5.232 0 0 1-2.254.899h-.074a.467.467 0 0 1-.339-.133.475.475 0 0 1-.176-.383v-1.075a.51.51 0 0 1 .427-.516 2.51 2.51 0 0 0 1.09-.412c.442-.31.766-.707.987-1.223a.534.534 0 0 1 .486-.31h1.178m-5.273-6.82a.496.496 0 0 1 .191.398v1.15a.55.55 0 0 1-.383.5c-.117.03-.22.06-.324.103a2.912 2.912 0 0 0-1.001.722c-.56.634-.84 1.444-.84 2.475 0 1.031.28 1.841.84 2.475.353.397.78.662 1.325.825a.517.517 0 0 1 .383.486v1.163c0 .162-.073.31-.191.398a.502.502 0 0 1-.339.118h-.103a4.902 4.902 0 0 1-2.666-1.532c-.928-1.046-1.4-2.357-1.4-3.933 0-1.562.472-2.887 1.4-3.933a4.791 4.791 0 0 1 2.666-1.517c.162-.045.31 0 .442.103m16.807 9.913a.493.493 0 0 1 .045.53.506.506 0 0 1-.457.28h-1.4a.516.516 0 0 1-.427-.22l-3.52-5.068-1.444 1.355V104c0 .28-.235.516-.515.516h-1.12a.522.522 0 0 1-.515-.516v-4.095c0-.147.058-.28.162-.368l6.157-5.775a.479.479 0 0 1 .353-.147h1.591c.207 0 .398.133.472.324a.518.518 0 0 1-.118.575l-3.447 3.24 4.183 5.951m-8.838-6.334a.512.512 0 0 1-.515-.515V94.13c0-.28.235-.516.515-.516h1.12c.28 0 .515.236.515.516v2.725a.512.512 0 0 1-.515.515h-1.12m15.025-3.756c1.164 0 2.121.339 2.828 1.002.722.677 1.076 1.59 1.076 2.695 0 1.12-.354 2.018-1.076 2.696-.707.663-1.664.987-2.828.987h-2.813v3.005c0 .28-.236.516-.516.516h-1.12a.522.522 0 0 1-.515-.516v-4.566c0-.28.236-.516.516-.516h4.36c.648 0 1.12-.133 1.414-.427.295-.265.427-.663.427-1.179 0-.515-.132-.898-.427-1.178-.295-.28-.766-.427-1.414-.427h-4.36a.522.522 0 0 1-.516-.516v-1.06c0-.28.236-.516.516-.516h4.448m9.678.118c.118.103.177.25.177.398v1.104a.52.52 0 0 1-.413.516 2.973 2.973 0 0 0-1.605.898c-.604.634-.899 1.444-.899 2.46 0 1.002.295 1.812.899 2.46.442.457.972.752 1.605.884a.52.52 0 0 1 .413.516v1.105a.526.526 0 0 1-.177.397.59.59 0 0 1-.339.118h-.088a5.185 5.185 0 0 1-2.931-1.547c-1.017-1.045-1.532-2.371-1.532-3.933 0-1.561.515-2.887 1.532-3.947a5.165 5.165 0 0 1 2.93-1.532c.148-.03.31.014.428.103m4.625 1.429c1.017 1.06 1.532 2.371 1.532 3.947 0 1.562-.515 2.888-1.532 3.933a5.185 5.185 0 0 1-2.93 1.547h-.09a.59.59 0 0 1-.338-.118.526.526 0 0 1-.177-.397v-1.105a.52.52 0 0 1 .413-.516 3.047 3.047 0 0 0 1.605-.884c.604-.648.899-1.458.899-2.46 0-1.016-.295-1.826-.899-2.46a2.973 2.973 0 0 0-1.605-.898.52.52 0 0 1-.413-.516V94.13c0-.148.059-.295.177-.398a.553.553 0 0 1 .427-.103 5.165 5.165 0 0 1 2.931 1.532m4.935 2.828c.295 0 .516.236.516.53v5.51c0 .28-.221.515-.516.515h-1.12a.522.522 0 0 1-.515-.516V98.52c0-.294.236-.53.516-.53h1.12m0-4.375c.294 0 .515.236.515.516v2.725c0 .294-.221.53-.516.53h-1.12a.525.525 0 0 1-.515-.53V94.13c0-.28.236-.516.516-.516h1.12m15.879 0c.294 0 .53.236.53.53v1.076c0 .294-.236.53-.53.53h-1.518a.525.525 0 0 1-.515-.53v-1.076c0-.294.235-.53.515-.53h1.518m6.584 0c.28 0 .516.236.516.53v1.076c0 .294-.236.53-.516.53h-2.96v8.367c0 .28-.236.515-.516.515h-1.135a.525.525 0 0 1-.53-.515v-9.973c0-.294.236-.53.53-.53h4.611m12.83 0c.28 0 .516.236.516.516v9.869c0 .28-.236.516-.516.516h-1.12a.522.522 0 0 1-.515-.516v-9.87c0-.28.236-.515.516-.515h1.12m5.376 8.794c.294 0 .515.236.515.516v1.075c0 .28-.22.516-.515.516h-3.432a.512.512 0 0 1-.516-.516v-1.075c0-.28.221-.516.516-.516h3.432m3.58-4.42c.294 0 .515.237.515.531v5.51c0 .28-.221.515-.516.515h-1.12a.522.522 0 0 1-.515-.516V98.52c0-.294.236-.53.516-.53h1.12m0-4.375c.294 0 .515.236.515.516v2.725c0 .294-.221.53-.516.53h-1.12a.525.525 0 0 1-.515-.53V94.13c0-.28.236-.516.516-.516h1.12m11.474 0a.56.56 0 0 1 .428.22.519.519 0 0 1 .044.487l-3.963 9.781a.512.512 0 0 1-.471.324h-1.267a.532.532 0 0 1-.486-.324l-3.963-9.781a.522.522 0 0 1 .487-.707h1.207c.207 0 .398.133.472.324l2.916 7.321 2.902-7.32a.532.532 0 0 1 .486-.325h1.208m9.546 8.809c.294 0 .515.235.515.53v1.075c0 .28-.22.516-.515.516h-7.277a.522.522 0 0 1-.516-.516v-1.075c0-.295.236-.53.516-.53h7.277m-7.277-2.283a.522.522 0 0 1-.516-.516v-1.105c0-.28.236-.515.516-.515h6.614c.294 0 .53.235.53.515v1.105c0 .28-.236.516-.53.516h-6.614m7.277-6.526c.294 0 .515.236.515.516v1.075c0 .294-.22.53-.515.53h-7.277a.525.525 0 0 1-.516-.53V94.13c0-.28.236-.516.516-.516h7.277" fill-rule="nonzero" stroke-linecap="square" stroke-linejoin="bevel" stroke-width=".668"/></g><text style="line-height:1.25" x="79.167" y="69.647" font-weight="400" font-size="10.583" font-family="sans-serif" letter-spacing="0" word-spacing="0" stroke-width=".265" transform="translate(0 -58.875)"><tspan x="79.167" y="69.647" style="text-align:center;-inkscape-font-specification:'AR DARLING'" text-anchor="middle" font-family="AR DARLING">Do you run events with</tspan><tspan x="79.167" y="82.876" style="text-align:center;-inkscape-font-specification:'AR DARLING'" text-anchor="middle" font-family="AR DARLING">participants all over the</tspan><tspan x="79.167" y="96.106" style="text-align:center;-inkscape-font-specification:'AR DARLING'" text-anchor="middle" font-family="AR DARLING"> countryside?</tspan></text></svg>